<?xml version="1.0" encoding="UTF-8" standalone="no"?>
<svg
   xmlns:dc="http://purl.org/dc/elements/1.1/"
   xmlns:cc="http://creativecommons.org/ns#"
   xmlns:rdf="http://www.w3.org/1999/02/22-rdf-syntax-ns#"
   xmlns:svg="http://www.w3.org/2000/svg"
   xmlns="http://www.w3.org/2000/svg"
   viewBox="0 0 452.27499 264.22501"
   height="264.22501"
   width="452.27499"
   xml:space="preserve"
   version="1.1"
   id="svg2"><metadata
     id="metadata8"><rdf:RDF><cc:Work
         rdf:about=""><dc:format>image/svg+xml</dc:format><dc:type
           rdf:resource="http://purl.org/dc/dcmitype/StillImage" /></cc:Work></rdf:RDF></metadata><defs
     id="defs6"><clipPath
       id="clipPath18"
       clipPathUnits="userSpaceOnUse"><path
         id="path20"
         d="m 0,0 3618,0 0,2113.85 -3618,0 L 0,0 Z" /></clipPath></defs><g
     transform="matrix(1.25,0,0,-1.25,0,264.225)"
     id="g10"><g
       transform="scale(0.1,0.1)"
       id="g12"><g
         id="g14"><g
           clip-path="url(#clipPath18)"
           id="g16"><path
             id="path22"
             style="fill:#253b7d;fill-opacity:1;fill-rule:nonzero;stroke:none"
             d="m 488.758,1393.34 47.109,0 c 111.035,0 214.676,37.82 214.676,185.03 0,180.97 -144.016,206.62 -186.398,206.62 0,0 -37.02,0.69 -50.493,0 -27.578,0 -48.441,-14.84 -48.441,-38.49 l -0.691,-318.03 c 0,-35.8 10.109,-35.13 24.238,-35.13" /><path
             id="path24"
             style="fill:#253b7d;fill-opacity:1;fill-rule:nonzero;stroke:none"
             d="m 522.414,1353.52 c -22.211,-2.05 -35.164,-1.75 -44.406,-2.72 -16.172,0 -13.473,-18.23 -13.473,-29.7 l 0.676,-327.498 c 6.043,-104.672 88.836,-104 88.836,-104 l 48.461,0 c 80.078,8.117 219.387,39.168 219.387,209.338 0,216.09 -173.625,254.58 -299.481,254.58" /><path
             id="path26"
             style="fill:#253b7d;fill-opacity:1;fill-rule:nonzero;stroke:none"
             d="m 3150.07,863.121 c -63.57,0 -69.64,52.297 -69.64,75.367 0,42.043 36.9,104.572 101.14,104.572 56.09,0 71.83,-38.91 71.83,-78.49 0,-50.402 -37.81,-101.449 -103.33,-101.449 z m -94.51,182.469 c -1.35,-15.52 -10.72,-35.78 -10.1,-35.78 -90.2,-111.412 -258.43,-186.369 -309.4,-138.169 -10.23,9.66 -30.47,25.39 -14.99,70.629 0,0 142.47,322.84 158.16,359.93 12.12,31.73 -11.44,20.95 -11.44,21.61 -47.12,-16.24 -94.23,-52.68 -137.34,-87.79 -12.74,11.49 -3.7,26.7 -5.35,27.68 49.81,60.77 105.25,93.52 126.53,106.02 27.6,16.21 79.42,43.21 132.59,46.59 27.55,-0.85 78.71,-24.31 56.52,-87.12 0,0 -134.74,-302.11 -162.19,-365.979 -9.99,-25.461 20.19,-17.543 26.93,-12.16 39.7,18.918 105.46,68.629 145.35,101.959 0,-0.65 5.59,2.71 4.73,-7.42 z M 2656.47,936.199 c 0,-128.961 -181.71,-189.078 -223.44,-196.508 -9.3,-1.64 -19.51,13.508 -7.41,19.59 139.98,35.821 159.83,93.52 173.97,128.969 0,0 -48.79,-0.648 -69.12,15.121 -20.55,15.938 -28.79,40.238 -29.38,60.481 -0.07,29.089 26.47,66.128 67.15,66.128 103.64,0.67 88.23,-93.781 88.23,-93.781 z m -1323.1,-54.687 c 7.39,-0.672 10.77,-8.774 10.77,-16.891 0,-6.949 -2.03,-18.91 -10.98,-17.891 -80.58,2.372 -241.39,5.071 -357.828,1.032 -9.437,0 -11.445,10.117 -11.445,19.547 0.676,10.16 4.035,14.882 16.156,14.882 78.087,6.739 98.257,24.289 98.257,68.879 l 0,781.94 c 0,63.37 -71.66,60.85 -97.913,61.77 -12.813,0.46 -18.211,1.03 -17.832,15.14 -0.016,14.91 2.683,18.29 22.871,18.29 159.494,-6.07 221.084,-3.04 339.194,1.02 0,0 20.19,6.08 20.19,-18.23 0,-19.25 -17.16,-16.22 -17.16,-16.22 -48.8,-3.71 -101.97,-5.05 -101.97,-65.83 l -0.66,-767.759 c 0,-59.429 20.95,-71.722 108.35,-79.679 z M 932.93,1024.65 C 889.73,918.5 765.367,829.52 460.504,847.762 c -72.391,0.097 -191.809,0 -214.68,0 -18.179,0 -37.035,-6.082 -36.379,16.199 3.899,0.66 -3.34,11.469 8.106,17.559 3.863,0.652 33.797,4.73 37.676,5.378 70.675,12.84 59.906,74.961 61.933,99.274 2.528,30.458 1.332,67.178 1.332,128.288 l 0,418.67 c 0,62.96 3.375,193.78 -10.769,216.74 -18.457,29.99 -44.86,27.06 -70.66,30.39 -21.258,2.8 -43.094,-5.39 -43.754,27.02 0,29.02 20.191,23.63 20.191,23.63 15.391,-0.25 39.508,1.36 134.305,1.36 162.386,2.01 299.754,12.15 416.886,-43.89 105.422,-50.46 112.383,-146.69 112.383,-188.39 0,-133.03 -146.058,-205.29 -156.136,-205.29 -8.743,-0.68 -10.75,-16.21 0.675,-16.21 2.422,-5.35 38.367,5.41 82.778,-16.2 64.961,-31.61 121.804,-85.09 140.519,-166.98 14.543,-63.7 1.492,-137.56 -11.98,-170.66 z m 2125.97,617.19 c 59.38,0 76.07,-41.18 76.07,-83.06 0,-53.33 -40.06,-107.35 -109.37,-107.35 -67.3,0 -73.7,55.35 -73.7,79.75 0,44.5 39.04,110.66 107,110.66 z m -3058.8492187,469.8 0,-1596.019 L 3618.16,514.5 l 0,1599.35 -3618.1092187,-2.21" /><path
             id="path28"
             style="fill:#253b7d;fill-opacity:1;fill-rule:nonzero;stroke:none"
             d="M 0,94.7891 3618.24,94.9102 3618.24,0 0,0.0507813 0,94.7891" /><path
             id="path30"
             style="fill:#231f20;fill-opacity:1;fill-rule:nonzero;stroke:none"
             d="m 108.199,294.988 39.664,0 c 26.926,0 45.852,-5.008 58.231,-14.578 12.707,-9.851 19.754,-23.91 19.754,-40.98 0,-19.989 -5.469,-34.071 -14.387,-43.539 -11.758,-11.832 -27.496,-16.981 -51.043,-16.981 l -38.02,0 c -11.964,0 -14.199,2.758 -14.199,17.918 l 0,98.16 z M 49.0898,415.281 c 28.2735,0 30.4727,-1.902 30.4727,-28.172 l 0,-183.289 c 0,-26.082 -2.1992,-27.98 -30.4727,-27.98 l 0,-10.731 113.7692,0 c 36.309,0 57.743,8.262 72.149,22.051 14.387,13.61 20.828,31.551 20.828,51.899 0,20.382 -9.852,35.39 -23.199,45.25 -15.465,11.761 -36.172,17.98 -59.477,18.812 l 0,0.52 c 23.305,3.531 38.977,11.058 49.797,21.257 13.176,12.114 18.008,27.93 18.008,42.141 0,18.699 -9.16,33.609 -23.344,43.402 -19.094,12.821 -40.34,15.59 -73.461,15.59 l -95.0702,0 0,-10.75 z m 59.1092,-15.152 c 0,9.16 1.403,12.082 11.047,12.082 l 29.988,0 c 23.981,0 39.2,-5.699 48.532,-13.859 9.765,-9.243 13.882,-21.602 13.882,-34.122 0,-18.57 -6.835,-31.57 -17.503,-40.562 -12.758,-10.258 -31.926,-14.879 -54.59,-14.879 l -31.356,0 0,91.34" /><path
             id="path32"
             style="fill:#231f20;fill-opacity:1;fill-rule:nonzero;stroke:none"
             d="m 418.797,289.891 c 23.906,2.859 44.098,12.07 55.715,22.039 15.547,13.218 22.629,30.371 22.629,47.531 0,21.219 -9.383,37.988 -27.2,49.508 -19.757,12.84 -42.179,17.062 -79.195,17.062 l -103.797,0 0,-10.75 c 28.774,0 30.957,-1.859 30.957,-27.402 l 0,-184.707 c 0,-25.492 -2.183,-27.344 -30.957,-27.344 l 0,-10.707 91.399,0 0,10.707 c -30.004,0 -31.805,1.582 -31.805,27.242 l 0,83.539 43.215,0 83.472,-121.488 49.915,0 0,10.707 c -19.946,0 -25.625,2.563 -41.672,25.024 l -62.676,89.039 z m -72.254,100.371 c 0,19 0.762,21.957 10.543,21.957 l 32.328,0 c 29.176,0 46.938,-5.43 58.746,-14.219 13.262,-9.602 19.063,-23.84 19.063,-38.172 0,-17.328 -5.16,-31.637 -19.653,-42.976 -14.074,-10.743 -35.562,-16.473 -66.539,-16.473 l -34.488,0 0,89.883" /><path
             id="path34"
             style="fill:#231f20;fill-opacity:1;fill-rule:nonzero;stroke:none"
             d="m 690.016,249.039 17.836,-49.551 c 6.804,-18.519 5.937,-23.648 -17.575,-23.648 l 0,-10.731 72.961,0 0,10.731 c -13.886,0 -18.437,3.441 -26.265,24.672 l -87.52,230.668 -14.183,0 -79.403,-235.61 c -5.605,-16.558 -10.004,-19.73 -24.269,-19.73 l 0,-10.731 61.047,0 0,10.731 c -22.715,0 -23.875,3.859 -16.844,26.531 l 14.523,46.668 99.692,0 z m -5.106,13.813 -89.773,0 41.433,127.546 1.352,0 46.988,-127.546" /><path
             id="path36"
             style="fill:#231f20;fill-opacity:1;fill-rule:nonzero;stroke:none"
             d="m 1015.82,198.879 0.78,0 0,189.25 c 0,25.59 -2.95,27.16 -32.381,27.16 l 0,10.75 78.791,0 0,-10.75 c -27.84,0 -30.49,-1.59 -30.49,-27.16 l 0,-225.981 -18.94,0 -182.435,238.43 -0.797,0 0,-197.598 c 0,-25.562 2.89,-27.14 31.078,-27.14 l 0,-10.731 -78.051,0 0,10.731 c 28.551,0 31.043,1.578 31.043,27.14 l 0,185.301 c 0,25.61 -1.801,27.008 -31.527,27.008 l 0,10.75 60.668,0 172.261,-227.16" /><path
             id="path38"
             style="fill:#231f20;fill-opacity:1;fill-rule:nonzero;stroke:none"
             d="m 1092.41,165.109 107.77,0 c 62.33,0 100.68,13.731 126.42,38.02 24.08,23.012 35.63,55.902 35.63,96.07 0,34.571 -9.52,66.949 -36.65,92.832 -26.99,25.699 -62.09,33.989 -112.89,33.989 l -120.28,0 0,-10.739 c 29.78,0 31.97,-1.761 31.97,-27.07 l 0,-185.32 c 0,-25.321 -2.19,-27.051 -31.97,-27.051 l 0,-10.731 z m 60.6,231.231 c 0,13.031 2.13,16.012 13.99,16.012 l 41.9,0 c 42.46,0 74.64,-7.942 96.53,-32.743 21.21,-24.461 26.8,-51.679 26.8,-84.789 0,-32.25 -8,-60.949 -29.26,-81.929 -21.4,-21.672 -55.82,-34.121 -106.55,-34.121 l -29.26,0 c -12.69,0 -14.15,2.398 -14.15,17.671 l 0,199.899" /><path
             id="path40"
             style="fill:#231f20;fill-opacity:1;fill-rule:nonzero;stroke:none"
             d="m 1582.19,388.301 c 0,25.277 -1.61,26.98 -37.64,26.98 l 0,10.75 103.94,0 0,-10.75 c -36.03,0 -37.66,-1.703 -37.66,-26.98 l 0,-185.473 c 0,-25.297 1.63,-26.976 37.69,-26.976 l 0,-10.731 -104.02,0 0,10.731 c 36.08,0 37.69,1.679 37.69,26.976 l 0,185.473" /><path
             id="path42"
             style="fill:#231f20;fill-opacity:1;fill-rule:nonzero;stroke:none"
             d="m 1908.82,198.879 0.76,0 0,189.25 c 0,25.59 -2.96,27.16 -32.34,27.16 l 0,10.75 78.76,0 0,-10.75 c -27.82,0 -30.49,-1.59 -30.49,-27.16 l 0,-225.981 -18.92,0 -182.46,238.43 -0.78,0 0,-197.598 c 0,-25.562 2.88,-27.14 31.06,-27.14 l 0,-10.731 -78.03,0 0,10.731 c 28.51,0 31.04,1.578 31.04,27.14 l 0,185.301 c 0,25.61 -1.8,27.008 -31.54,27.008 l 0,10.75 60.67,0 172.27,-227.16" /><path
             id="path44"
             style="fill:#231f20;fill-opacity:1;fill-rule:nonzero;stroke:none"
             d="m 2120.85,368.16 c -7.62,37.578 -15.83,49.192 -53.61,49.192 -16.41,0 -30.16,-5.141 -39.46,-13.332 -8.03,-7.27 -12.13,-16.559 -12.13,-27.532 0,-9.91 3.16,-19.468 10.82,-28.527 8.29,-9.34 20.7,-17.32 43.65,-31.742 28.17,-17.758 46.42,-26.18 60.04,-42.071 8.9,-11.628 15.34,-25.187 15.34,-43.519 0,-18.617 -6.73,-35.481 -19.84,-47.93 -14.51,-13.328 -37.12,-22.75 -68.3,-22.75 -20.82,0 -44.12,4.051 -64.39,10.699 -2.69,22.692 -6.86,39.09 -11.12,54.352 l 13.56,3.371 c 11.3,-43.262 29.57,-54.601 64.73,-54.601 15.41,0 29.77,4.71 40.17,13.449 10.29,8.711 16.97,21.543 16.97,37.679 0,13.672 -3.71,22.774 -10.96,32.551 -10.93,12.891 -27.86,22.84 -48.46,34.879 -23.31,15.723 -47.01,27.551 -58.26,43.453 -6.43,9.91 -10.84,21.821 -10.84,35.387 0,15.32 6.59,31.012 21.15,42.871 12.84,10.332 32.02,17.152 59.03,17.152 22.39,0 40.2,-3 57.07,-9.031 1.9,-14.332 5.22,-34.601 8.39,-51.422 l -13.55,-2.578" /><path
             id="path46"
             style="fill:#231f20;fill-opacity:1;fill-rule:nonzero;stroke:none"
             d="m 2305.45,202.801 c 0,-25.36 1.5,-27.153 38.21,-27.153 l 0,-10.527 -105.1,0 0,10.527 c 36.73,0 38.25,1.793 38.25,27.153 l 0,208.48 -62.92,0 c -22.75,0 -25.38,-1.812 -33.52,-43.383 l -12.38,0 9.08,58.133 228.09,0 9.09,-58.133 -12.42,0 c -8.51,41.993 -11.02,43.383 -33.58,43.383 l -62.8,0 0,-208.48" /><path
             id="path48"
             style="fill:#231f20;fill-opacity:1;fill-rule:nonzero;stroke:none"
             d="m 2472.58,388.301 c 0,25.277 -1.63,26.98 -37.68,26.98 l 0,10.75 103.96,0 0,-10.75 c -36.05,0 -37.68,-1.703 -37.68,-26.98 l 0,-185.473 c 0,-25.297 1.63,-26.976 37.7,-26.976 l 0,-10.731 -104.01,0 0,10.731 c 36.08,0 37.71,1.679 37.71,26.976 l 0,185.473" /><path
             id="path50"
             style="fill:#231f20;fill-opacity:1;fill-rule:nonzero;stroke:none"
             d="m 2696.88,202.801 c 0,-25.36 1.53,-27.153 38.21,-27.153 l 0,-10.527 -105.07,0 0,10.527 c 36.68,0 38.23,1.793 38.23,27.153 l 0,208.48 -62.94,0 c -22.7,0 -25.33,-1.812 -33.49,-43.383 l -12.39,0 9.1,58.133 228.08,0 9.07,-58.133 -12.41,0 c -8.5,41.993 -11,43.383 -33.57,43.383 l -62.82,0 0,-208.48" /><path
             id="path52"
             style="fill:#231f20;fill-opacity:1;fill-rule:nonzero;stroke:none"
             d="m 3046.36,388.141 c 0,25.597 -2.59,27.14 -30.42,27.14 l 0,10.739 75.79,0 0,-10.739 c -27.05,0 -29.06,-1.812 -29.06,-27.14 l 0,-136.012 c 0,-33.129 -10.07,-55.719 -27.65,-70.738 -17.69,-14.621 -42.31,-21.442 -72.94,-21.442 -32.67,0 -58.04,5.86 -75.21,18.242 -23.57,16.411 -31.15,42.579 -31.15,78.18 l 0,131.77 c 0,25.527 -1.68,27.14 -29.61,27.14 l 0,10.739 89.38,0 0,-10.739 c -29.12,0 -30.54,-1.332 -30.54,-27.14 l 0,-130.231 c 0,-28.949 5.28,-50.89 22.64,-65.211 12.69,-11.109 31.6,-17.09 59.36,-17.09 25,0 45.43,6.082 58.55,18.762 17.44,15.777 20.86,38.629 20.86,62.051 l 0,131.719" /><path
             id="path54"
             style="fill:#231f20;fill-opacity:1;fill-rule:nonzero;stroke:none"
             d="m 3248.38,202.801 c 0,-25.36 1.51,-27.153 38.2,-27.153 l 0,-10.527 -105.06,0 0,10.527 c 36.69,0 38.21,1.793 38.21,27.153 l 0,208.48 -62.92,0 c -22.73,0 -25.35,-1.812 -33.52,-43.383 l -12.36,0 9.06,58.133 228.11,0 9.07,-58.133 -12.4,0 c -8.52,41.993 -11.01,43.383 -33.59,43.383 l -62.8,0 0,-208.48" /><path
             id="path56"
             style="fill:#231f20;fill-opacity:1;fill-rule:nonzero;stroke:none"
             d="m 3385.82,164.27 0,10.718 c 28.35,0 30.7,1.883 30.7,27.25 l 0,184.934 c 0,25.398 -2.41,27.258 -30.92,27.258 l 0,10.742 178.47,0 12.14,-55.262 -13.92,0 c -10.32,40.488 -14.06,41.469 -34.96,41.469 l -67.87,0 c -13.11,0 -14.3,-2.078 -14.3,-17.367 l 0,-86.953 61.95,0 c 17.09,0 19.63,3.121 19.63,35.902 l 13.65,0 0,-86.18 -13.65,0 c 0,34.278 -2.63,36.481 -19.84,36.481 l -61.74,0 0,-99.512 c 0,-13.941 3.2,-15.691 11.08,-15.691 l 82.1,0 c 22.41,0 26.02,2.132 36.66,42.293 l 13.9,0 -13.51,-56.082 -189.57,0" /></g></g></g></g></svg>