<?xml version="1.0" encoding="UTF-8" standalone="no"?>
<svg
   xmlns:dc="http://purl.org/dc/elements/1.1/"
   xmlns:cc="http://creativecommons.org/ns#"
   xmlns:rdf="http://www.w3.org/1999/02/22-rdf-syntax-ns#"
   xmlns:svg="http://www.w3.org/2000/svg"
   xmlns="http://www.w3.org/2000/svg"
   viewBox="0 0 485.82666 340.49332"
   height="340.49332"
   width="485.82666"
   xml:space="preserve"
   id="svg2"
   version="1.1"><metadata
     id="metadata8"><rdf:RDF><cc:Work
         rdf:about=""><dc:format>image/svg+xml</dc:format><dc:type
           rdf:resource="http://purl.org/dc/dcmitype/StillImage" /></cc:Work></rdf:RDF></metadata><defs
     id="defs6"><clipPath
       id="clipPath20"
       clipPathUnits="userSpaceOnUse"><path
         id="path18"
         d="M 0,2553.71 V 0 h 3643.66 v 2553.71 z" /></clipPath></defs><g
     transform="matrix(1.3333333,0,0,-1.3333333,0,340.49333)"
     id="g10"><g
       transform="scale(0.1)"
       id="g12"><g
         id="g14"><g
           clip-path="url(#clipPath20)"
           id="g16"><path
             id="path22"
             style="fill:#253b7d;fill-opacity:1;fill-rule:nonzero;stroke:none"
             d="m 500.238,1833.2 h 47.114 c 111.035,0 214.675,37.82 214.675,185.03 0,180.97 -144.015,206.62 -186.402,206.62 0,0 -37.016,0.69 -50.488,0 -27.578,0 -48.442,-14.84 -48.442,-38.49 l -0.691,-318.03 c 0,-35.8 10.109,-35.13 24.234,-35.13" /><path
             id="path24"
             style="fill:#253b7d;fill-opacity:1;fill-rule:nonzero;stroke:none"
             d="m 533.898,1793.38 c -22.21,-2.05 -35.164,-1.74 -44.41,-2.72 -16.168,0 -13.468,-18.23 -13.468,-29.7 l 0.675,-327.5 c 6.043,-104.67 88.836,-104 88.836,-104 h 48.461 c 80.078,8.12 219.387,39.17 219.387,209.34 0,216.09 -173.625,254.58 -299.481,254.58" /><path
             id="path26"
             style="fill:#253b7d;fill-opacity:1;fill-rule:nonzero;stroke:none"
             d="m 3161.56,1302.98 c -63.58,0 -69.64,52.3 -69.64,75.37 0,42.04 36.9,104.57 101.13,104.57 56.1,0 71.84,-38.91 71.84,-78.49 0,-50.4 -37.82,-101.45 -103.33,-101.45 z m -94.52,182.47 c -1.35,-15.52 -10.72,-35.78 -10.09,-35.78 -90.21,-111.41 -258.43,-186.37 -309.4,-138.17 -10.24,9.66 -30.48,25.39 -15,70.63 0,0 142.48,322.84 158.16,359.94 12.12,31.72 -11.44,20.94 -11.44,21.6 -47.11,-16.24 -94.22,-52.68 -137.34,-87.79 -12.74,11.49 -3.7,26.7 -5.35,27.68 49.82,60.77 105.26,93.52 126.53,106.02 27.6,16.21 79.42,43.21 132.6,46.59 27.54,-0.85 78.71,-24.31 56.51,-87.12 0,0 -134.74,-302.11 -162.18,-365.98 -9.99,-25.46 20.19,-17.54 26.92,-12.16 39.7,18.92 105.46,68.63 145.35,101.96 0,-0.65 5.59,2.71 4.73,-7.42 z m -399.09,-109.39 c 0,-128.96 -181.71,-189.08 -223.44,-196.51 -9.29,-1.64 -19.51,13.51 -7.41,19.59 139.99,35.82 159.83,93.52 173.97,128.97 0,0 -48.79,-0.65 -69.11,15.12 -20.55,15.94 -28.8,40.24 -29.38,60.48 -0.07,29.09 26.47,66.13 67.14,66.13 103.64,0.67 88.23,-93.78 88.23,-93.78 z m -1323.1,-54.69 c 7.4,-0.67 10.77,-8.77 10.77,-16.89 0,-6.95 -2.02,-18.91 -10.98,-17.89 -80.58,2.37 -241.39,5.07 -357.824,1.03 -9.437,0 -11.445,10.12 -11.445,19.55 0.676,10.16 4.035,14.88 16.156,14.88 78.083,6.74 98.253,24.29 98.253,68.88 v 781.94 c 0,63.36 -71.66,60.85 -97.909,61.77 -12.812,0.46 -18.215,1.03 -17.832,15.14 -0.016,14.91 2.684,18.29 22.871,18.29 159.5,-6.07 221.08,-3.04 339.2,1.02 0,0 20.19,6.08 20.19,-18.23 0,-19.25 -17.16,-16.22 -17.16,-16.22 -48.81,-3.71 -101.98,-5.05 -101.98,-65.83 l -0.66,-767.76 c 0,-59.43 20.95,-71.72 108.35,-79.68 z m -400.436,143.14 c -43.199,-106.15 -167.562,-195.13 -472.43,-176.89 -72.386,0.1 -191.804,0 -214.675,0 -18.18,0 -37.036,-6.08 -36.379,16.2 3.898,0.66 -3.34,11.47 8.105,17.56 3.86,0.65 33.797,4.73 37.676,5.38 70.676,12.84 59.902,74.96 61.93,99.27 2.531,30.46 1.336,67.18 1.336,128.29 v 418.67 c 0,62.96 3.375,193.78 -10.77,216.74 -18.457,29.98 -44.859,27.06 -70.66,30.4 -21.262,2.79 -43.094,-5.4 -43.754,27.01 0,29.02 20.191,23.63 20.191,23.63 15.391,-0.25 39.508,1.36 134.305,1.36 162.387,2.01 299.754,12.15 416.887,-43.89 105.422,-50.46 112.383,-146.69 112.383,-188.39 0,-133.03 -146.059,-205.3 -156.137,-205.3 -8.746,-0.67 -10.75,-16.2 0.676,-16.2 2.422,-5.35 38.367,5.41 82.777,-16.21 64.961,-31.6 121.805,-85.08 140.52,-166.97 14.543,-63.7 1.488,-137.56 -11.981,-170.66 z M 3070.38,2081.7 c 59.39,0 76.08,-41.18 76.08,-83.06 0,-53.34 -40.07,-107.35 -109.37,-107.35 -67.3,0 -73.71,55.35 -73.71,79.75 0,44.5 39.04,110.66 107,110.66 z M 11.5352,2551.5 V 955.48 L 3629.64,954.359 V 2553.71 L 11.5352,2551.5" /><path
             id="path28"
             style="fill:#253b7d;fill-opacity:1;fill-rule:nonzero;stroke:none"
             d="M 11.4844,534.648 3629.73,534.77 V 439.859 L 11.4844,439.91 v 94.738" /><path
             id="path30"
             style="fill:#231f20;fill-opacity:1;fill-rule:nonzero;stroke:none"
             d="m 119.684,734.852 h 39.664 c 26.925,0 45.847,-5.012 58.226,-14.582 12.711,-9.848 19.758,-23.911 19.758,-40.981 0,-19.988 -5.473,-34.07 -14.387,-43.539 -11.757,-11.828 -27.496,-16.98 -51.043,-16.98 h -38.023 c -11.961,0 -14.195,2.761 -14.195,17.921 z M 60.5742,855.141 c 28.2735,0 30.4727,-1.903 30.4727,-28.172 V 643.68 c 0,-26.078 -2.1992,-27.981 -30.4727,-27.981 v -10.73 H 174.344 c 36.308,0 57.742,8.261 72.148,22.051 14.387,13.609 20.828,31.55 20.828,51.902 0,20.379 -9.851,35.387 -23.203,45.25 -15.461,11.758 -36.168,17.976 -59.472,18.808 v 0.52 c 23.304,3.531 38.972,11.059 49.796,21.262 13.176,12.109 18.004,27.929 18.004,42.136 0,18.704 -9.16,33.614 -23.34,43.403 -19.093,12.82 -40.339,15.59 -73.46,15.59 H 60.5742 Z m 59.1098,-15.153 c 0,9.16 1.402,12.082 11.046,12.082 h 29.989 c 23.976,0 39.195,-5.699 48.527,-13.859 9.77,-9.242 13.887,-21.602 13.887,-34.121 0,-18.57 -6.836,-31.57 -17.504,-40.559 -12.758,-10.261 -31.926,-14.883 -54.59,-14.883 h -31.355 v 91.34" /><path
             id="path32"
             style="fill:#231f20;fill-opacity:1;fill-rule:nonzero;stroke:none"
             d="m 430.277,729.75 c 23.911,2.859 44.102,12.07 55.719,22.039 15.547,13.223 22.629,30.371 22.629,47.531 0,21.219 -9.387,37.989 -27.199,49.508 -19.758,12.844 -42.18,17.063 -79.196,17.063 H 298.434 v -10.75 c 28.773,0 30.957,-1.86 30.957,-27.403 V 643.031 c 0,-25.492 -2.184,-27.34 -30.957,-27.34 V 604.98 h 91.398 v 10.711 c -30.004,0 -31.805,1.579 -31.805,27.239 v 83.539 h 43.215 L 484.715,604.98 h 49.914 v 10.711 c -19.945,0 -25.625,2.559 -41.676,25.02 z m -72.25,100.371 c 0,19 0.762,21.961 10.543,21.961 h 32.328 c 29.172,0 46.938,-5.434 58.747,-14.223 13.261,-9.597 19.058,-23.839 19.058,-38.168 0,-17.332 -5.156,-31.64 -19.648,-42.98 -14.075,-10.742 -35.563,-16.473 -66.539,-16.473 h -34.489 v 89.883" /><path
             id="path34"
             style="fill:#231f20;fill-opacity:1;fill-rule:nonzero;stroke:none"
             d="m 701.5,688.898 17.836,-49.546 c 6.805,-18.52 5.937,-23.653 -17.574,-23.653 v -10.73 h 72.961 v 10.73 c -13.887,0 -18.438,3.442 -26.266,24.672 L 660.938,871.039 H 646.754 L 567.352,635.43 c -5.61,-16.559 -10.004,-19.731 -24.274,-19.731 v -10.73 h 61.051 v 10.73 c -22.715,0 -23.875,3.86 -16.848,26.531 l 14.528,46.668 z m -5.105,13.813 h -89.774 l 41.434,127.551 h 1.351 l 46.989,-127.551" /><path
             id="path36"
             style="fill:#231f20;fill-opacity:1;fill-rule:nonzero;stroke:none"
             d="m 1027.3,638.738 h 0.78 v 189.25 c 0,25.59 -2.95,27.16 -32.377,27.16 v 10.75 h 78.797 v -10.75 c -27.84,0 -30.49,-1.589 -30.49,-27.16 V 602.012 h -18.94 L 842.629,840.441 h -0.797 V 642.84 c 0,-25.559 2.891,-27.141 31.078,-27.141 v -10.73 h -78.051 v 10.73 c 28.551,0 31.043,1.582 31.043,27.141 v 185.301 c 0,25.609 -1.8,27.007 -31.527,27.007 v 10.75 h 60.668 L 1027.3,638.738" /><path
             id="path38"
             style="fill:#231f20;fill-opacity:1;fill-rule:nonzero;stroke:none"
             d="m 1103.9,604.969 h 107.76 c 62.33,0 100.68,13.73 126.43,38.019 24.08,23.012 35.63,55.903 35.63,96.071 0,34.57 -9.52,66.953 -36.66,92.832 -26.99,25.699 -62.08,33.988 -112.88,33.988 H 1103.9 v -10.738 c 29.78,0 31.96,-1.762 31.96,-27.071 V 642.75 c 0,-25.32 -2.18,-27.051 -31.96,-27.051 z m 60.6,231.23 c 0,13.031 2.12,16.012 13.99,16.012 h 41.89 c 42.46,0 74.65,-7.941 96.53,-32.742 21.21,-24.457 26.8,-51.68 26.8,-84.789 0,-32.25 -8,-60.95 -29.26,-81.93 -21.4,-21.672 -55.82,-34.121 -106.55,-34.121 h -29.26 c -12.69,0 -14.14,2.402 -14.14,17.672 v 199.898" /><path
             id="path40"
             style="fill:#231f20;fill-opacity:1;fill-rule:nonzero;stroke:none"
             d="m 1593.67,828.16 c 0,25.281 -1.61,26.981 -37.64,26.981 v 10.75 h 103.94 v -10.75 c -36.03,0 -37.66,-1.7 -37.66,-26.981 V 642.691 c 0,-25.3 1.63,-26.98 37.69,-26.98 V 604.98 h -104.02 v 10.731 c 36.08,0 37.69,1.68 37.69,26.98 V 828.16" /><path
             id="path42"
             style="fill:#231f20;fill-opacity:1;fill-rule:nonzero;stroke:none"
             d="m 1920.3,638.738 h 0.76 v 189.25 c 0,25.59 -2.96,27.16 -32.34,27.16 v 10.75 h 78.76 v -10.75 c -27.82,0 -30.49,-1.589 -30.49,-27.16 V 602.012 h -18.92 l -182.46,238.429 h -0.78 V 642.84 c 0,-25.559 2.88,-27.141 31.07,-27.141 v -10.73 h -78.04 v 10.73 c 28.52,0 31.05,1.582 31.05,27.141 v 185.301 c 0,25.609 -1.81,27.007 -31.55,27.007 v 10.75 h 60.67 l 172.27,-227.16" /><path
             id="path44"
             style="fill:#231f20;fill-opacity:1;fill-rule:nonzero;stroke:none"
             d="m 2132.33,808.02 c -7.62,37.582 -15.82,49.191 -53.6,49.191 -16.42,0 -30.16,-5.141 -39.46,-13.332 -8.04,-7.27 -12.14,-16.559 -12.14,-27.527 0,-9.911 3.17,-19.473 10.82,-28.532 8.29,-9.34 20.71,-17.32 43.65,-31.742 28.17,-17.758 46.42,-26.18 60.05,-42.066 8.89,-11.633 15.34,-25.192 15.34,-43.524 0,-18.617 -6.74,-35.476 -19.85,-47.929 -14.51,-13.329 -37.12,-22.75 -68.3,-22.75 -20.81,0 -44.12,4.05 -64.39,10.703 -2.68,22.687 -6.86,39.09 -11.12,54.347 l 13.56,3.371 c 11.31,-43.261 29.57,-54.601 64.74,-54.601 15.41,0 29.76,4.711 40.17,13.453 10.28,8.707 16.96,21.539 16.96,37.68 0,13.668 -3.7,22.769 -10.96,32.547 -10.92,12.89 -27.86,22.839 -48.46,34.882 -23.3,15.719 -47.01,27.547 -58.26,43.45 -6.42,9.91 -10.84,21.82 -10.84,35.39 0,15.321 6.6,31.008 21.16,42.867 12.83,10.332 32.01,17.153 59.02,17.153 22.39,0 40.21,-3 57.07,-9.031 1.9,-14.329 5.23,-34.598 8.4,-51.418 l -13.56,-2.582" /><path
             id="path46"
             style="fill:#231f20;fill-opacity:1;fill-rule:nonzero;stroke:none"
             d="m 2316.93,642.66 c 0,-25.359 1.51,-27.148 38.21,-27.148 V 604.98 h -105.09 v 10.532 c 36.72,0 38.24,1.789 38.24,27.148 v 208.481 h -62.92 c -22.75,0 -25.38,-1.813 -33.51,-43.379 h -12.38 l 9.07,58.129 h 228.09 l 9.09,-58.129 h -12.41 c -8.52,41.988 -11.03,43.379 -33.59,43.379 h -62.8 V 642.66" /><path
             id="path48"
             style="fill:#231f20;fill-opacity:1;fill-rule:nonzero;stroke:none"
             d="m 2484.06,828.16 c 0,25.281 -1.62,26.981 -37.67,26.981 v 10.75 h 103.95 v -10.75 c -36.05,0 -37.67,-1.7 -37.67,-26.981 V 642.691 c 0,-25.3 1.62,-26.98 37.69,-26.98 V 604.98 h -104.01 v 10.731 c 36.09,0 37.71,1.68 37.71,26.98 V 828.16" /><path
             id="path50"
             style="fill:#231f20;fill-opacity:1;fill-rule:nonzero;stroke:none"
             d="m 2708.37,642.66 c 0,-25.359 1.52,-27.148 38.21,-27.148 V 604.98 H 2641.5 v 10.532 c 36.69,0 38.23,1.789 38.23,27.148 v 208.481 h -62.94 c -22.7,0 -25.33,-1.813 -33.48,-43.379 h -12.4 l 9.11,58.129 h 228.07 l 9.08,-58.129 h -12.42 c -8.5,41.988 -10.99,43.379 -33.57,43.379 h -62.81 V 642.66" /><path
             id="path52"
             style="fill:#231f20;fill-opacity:1;fill-rule:nonzero;stroke:none"
             d="m 3057.85,828 c 0,25.602 -2.6,27.141 -30.42,27.141 v 10.738 h 75.78 v -10.738 c -27.04,0 -29.05,-1.809 -29.05,-27.141 V 691.988 c 0,-33.129 -10.08,-55.718 -27.65,-70.738 -17.7,-14.621 -42.32,-21.441 -72.95,-21.441 -32.67,0 -58.03,5.863 -75.21,18.242 -23.56,16.41 -31.14,42.578 -31.14,78.179 V 828 c 0,25.531 -1.68,27.141 -29.61,27.141 v 10.738 h 89.37 v -10.738 c -29.12,0 -30.54,-1.332 -30.54,-27.141 V 697.77 c 0,-28.95 5.28,-50.891 22.65,-65.211 12.69,-11.11 31.6,-17.09 59.35,-17.09 25,0 45.43,6.082 58.56,18.761 17.43,15.782 20.86,38.629 20.86,62.051 V 828" /><path
             id="path54"
             style="fill:#231f20;fill-opacity:1;fill-rule:nonzero;stroke:none"
             d="m 3259.87,642.66 c 0,-25.359 1.5,-27.148 38.19,-27.148 V 604.98 H 3193 v 10.532 c 36.69,0 38.21,1.789 38.21,27.148 v 208.481 h -62.92 c -22.73,0 -25.34,-1.813 -33.51,-43.379 h -12.37 l 9.06,58.129 h 228.11 l 9.07,-58.129 h -12.39 c -8.52,41.988 -11.02,43.379 -33.59,43.379 h -62.8 V 642.66" /><path
             id="path56"
             style="fill:#231f20;fill-opacity:1;fill-rule:nonzero;stroke:none"
             d="m 3397.31,604.129 v 10.723 c 28.34,0 30.69,1.878 30.69,27.25 v 184.929 c 0,25.399 -2.4,27.258 -30.92,27.258 v 10.742 h 178.47 l 12.14,-55.261 h -13.92 c -10.32,40.492 -14.06,41.468 -34.96,41.468 h -67.87 c -13.1,0 -14.3,-2.078 -14.3,-17.367 v -86.949 h 61.95 c 17.09,0 19.63,3.117 19.63,35.898 h 13.65 v -86.179 h -13.65 c 0,34.281 -2.63,36.48 -19.84,36.48 h -61.74 v -99.512 c 0,-13.937 3.2,-15.687 11.08,-15.687 h 82.1 c 22.41,0 26.03,2.129 36.66,42.289 h 13.9 l -13.5,-56.082 h -189.57" /><path
             id="path58"
             style="fill:#253b7d;fill-opacity:1;fill-rule:nonzero;stroke:none"
             d="m 0,306.02 0.171875,6.582 3.933595,0.347 c 5.51953,0.461 9.69533,0.692 12.56253,0.692 l 4.2773,-0.34 h 6.1211 l 27.4258,-0.531 9.8633,-0.168 c 1.3047,-0.102 3.832,-0.352 7.5273,-0.692 l 0.1875,-1.211 c 0,-0.937 -0.1875,-2.199 -0.5664,-3.82 -5.9805,-1.617 -10.793,-2.481 -14.4023,-2.609 -3.4688,-1.04 -5.7032,-2.25 -6.668,-3.622 -1.6836,-2.429 -2.6289,-6.066 -2.8672,-10.918 l -0.8945,-19.929 -0.8906,-21.321 0.1875,-3.289 c 0,-4.621 -0.1875,-12.89 -0.5352,-24.781 v -17.672 l -1.2539,-19.929 v -11.95 l -1.2383,-35 L 41.5,116.801 c -0.1055,-1.289 -0.1562,-3.063 -0.1562,-5.391 4.1757,3.699 7.0976,6.59 8.7812,8.68 3.6953,4.84 7.4609,9.07 11.2891,12.629 1.789,1.64 4.3515,4.531 7.6992,8.679 5.7422,6.942 15.5351,17.614 29.3867,32.063 2.387,2.527 4.484,4.91 6.273,7.109 l 0.188,6.739 5.738,66.203 c 1.188,10.847 1.809,23.218 1.809,37.078 0,4.269 -0.895,7.281 -2.703,9.019 -2.867,2.762 -7.852,4.789 -14.9144,6.051 -2.3906,0.461 -4.4336,0.942 -6.1015,1.399 l -0.1875,5.543 c 1.5625,0 6.1679,0.168 13.8324,0.519 h 9.711 l 3.953,0.18 11.324,-0.352 12.047,0.512 24.074,-0.691 1.441,0.531 c 0.723,0 1.688,-0.321 2.871,-0.903 v -4.597 c -1.906,-0.61 -4.656,-1.18 -8.25,-1.781 -9.57,-1.622 -15.773,-3.469 -18.574,-5.54 -2.836,-2.101 -4.226,-7.289 -4.226,-15.621 -0.121,-5.308 -1.016,-20.769 -2.684,-46.429 -0.941,-13.969 -1.426,-22.071 -1.426,-24.25 v -4.508 c 4.196,4.969 8.078,9.289 11.668,12.988 3.594,3.719 15.262,17.102 35.004,40.211 2.528,2.777 5.399,6.457 8.629,11.078 12.457,13.871 18.695,21.84 18.695,23.922 0,0.809 -0.359,1.508 -1.082,2.07 -1.683,1.52 -4.195,2.789 -7.543,3.829 l -4.316,1.39 c -1.562,0.449 -3.176,0.82 -4.879,1.121 -1.668,0.278 -3.332,0.778 -5.019,1.481 l -0.168,1.898 c 0,0.91 0.168,2.199 0.531,3.801 l 1.805,-0.16 10.996,0.508 55.144,-0.348 c 0,-2.66 -0.359,-4.859 -1.082,-6.582 -1.683,-0.359 -2.902,-0.578 -3.609,-0.688 -5.653,-0.812 -10.965,-2.421 -15.86,-4.863 -4.933,-2.43 -9.675,-5.656 -14.246,-9.687 -9.746,-8.68 -17.972,-16.77 -24.695,-24.27 l -46.5,-54.223 c -3.953,-4.398 -7.063,-7.75 -9.328,-10.078 -2.391,-2.98 -4.606,-5.422 -6.637,-7.261 l -1.082,-24.411 c 0,-1.839 -0.117,-4.429 -0.344,-7.769 l -2.867,-39.988 c -0.484,-5.411 -0.707,-9.571 -0.707,-12.461 1.668,1.609 2.735,2.718 3.231,3.3 l 28.73,31.692 c 1.789,2.078 5.621,6.098 11.5,12.109 1.305,1.278 5.496,5.84 12.559,13.68 3.007,3.238 6.293,6.59 9.882,10.059 2.165,2.07 4.075,4.039 5.774,5.89 l 60.508,67 23.164,25.449 c 6.355,7.289 10.308,12.243 11.855,14.911 0.961,1.511 1.684,3.628 2.164,6.421 -1.683,0.918 -4.382,1.668 -8.093,2.25 -2.629,0.68 -5.086,1.219 -7.356,1.539 -1.32,0.129 -4.09,0.641 -8.281,1.579 v 5.363 l 14.211,1.039 h 7.168 l 6.836,0.18 c 14.988,0 25.297,-0.051 30.918,-0.18 l -0.535,-6.742 c -9.469,-3.36 -16.051,-6.489 -19.762,-9.379 -5.637,-4.149 -19.778,-18.711 -42.41,-43.66 l -62.551,-67.758 -6.649,-7.621 -7.203,-7.27 L 150.43,127.18 107.301,81.6094 h -1.977 c -1.582,0 -3.594,0.1211 -6.1209,0.3515 v 3.9805 l -0.1718,2.7695 c 0,0.5899 0.121,1.5782 0.3437,2.9375 0.2422,2.2032 0.844,12.7816 1.805,31.7306 l 1.976,29.973 -0.172,7.457 0.364,6.23 c -1.325,-1.039 -4.1957,-4 -8.6097,-8.848 -0.4805,-0.461 -2.3399,-2.293 -5.5703,-5.472 -3.2305,-3.188 -6.7539,-7.199 -10.5664,-12.059 -6.461,-6.851 -22.668,-24.781 -48.5977,-53.8397 -0.9805,-1.039 -2.8203,-2.8398 -5.5664,-5.3906 l -9.1602,-0.3399 -0.207,2.25 1.6328,64.8082 1.8047,57.184 2.1641,61.508 c 0.5859,6.84 0.8945,10.879 0.8945,12.148 v 7.621 l 0.1719,6.582 c -0.3633,2.891 -1.1836,5.661 -2.4922,8.321 -0.6016,1.269 -1.582,2.218 -2.9375,2.847 -1.375,0.629 -3.832,0.973 -7.40626,0.973 C 5.22266,305.332 2.25,305.559 0,306.02" /><path
             id="path60"
             style="fill:#253b7d;fill-opacity:1;fill-rule:nonzero;stroke:none"
             d="m 385.047,311.211 0.723,3.648 c 20.363,2.2 32.648,3.289 36.91,3.289 1.289,0 3.179,-0.046 5.652,-0.179 l -0.894,-3.289 -4.758,-11.629 -10.414,-28.961 c -1.668,-4.399 -3.953,-11.231 -6.891,-20.469 -5.414,-17.141 -11.117,-32.539 -17.047,-46.242 -5.945,-13.707 -11.512,-28.598 -16.687,-44.66 1.875,2.301 4.297,5.519 7.218,9.691 17.114,23.34 31.43,39.281 42.996,47.828 7.821,5.774 15.536,8.653 23.114,8.653 6.133,0 11.41,-2.469 15.793,-7.442 4.398,-4.961 6.597,-12.59 6.597,-22.867 0,-13.16 -3.406,-28.742 -10.226,-46.711 -6.82,-17.961 -14.879,-32.543 -24.211,-43.762 -9.348,-11.1871 -17.32,-18.4176 -23.957,-21.6402 -6.629,-3.2383 -12.645,-4.8477 -18.024,-4.8477 -4.656,0 -8.199,1.1875 -10.601,3.6406 -3.578,3.5664 -5.363,7.2578 -5.363,11.0781 0,1.7305 0.961,3.379 2.871,4.9302 1.906,1.562 4.414,2.359 7.523,2.359 2.391,0 4.313,-0.52 5.742,-1.481 1.426,-0.988 3.641,-3.6089 6.633,-7.8863 2.027,-1.8633 3.711,-2.7734 5.016,-2.7734 2.269,0 5.363,2.4726 9.332,7.4414 7.769,9.9413 16.496,28.8323 26.152,56.6723 7.785,22.078 11.688,38.75 11.688,50.089 0,6.231 -0.911,10.45 -2.715,12.649 -1.805,2.191 -4.278,3.289 -7.406,3.289 -1.684,0 -3.61,-0.527 -5.793,-1.57 -6.497,-3.11 -13.54,-8.5 -21.133,-16.118 -7.598,-7.613 -19.574,-22.351 -35.953,-44.179 -3.524,-4.883 -9.383,-15.981 -17.563,-33.274 -8.195,-17.316 -13.746,-29.5192 -16.683,-36.6091 -1.532,-3.5078 -2.973,-5.7891 -4.383,-6.7695 -1.391,-1 -3.266,-1.4883 -5.602,-1.4883 -2.543,0 -4.398,0.4492 -5.48,1.3789 -1.118,0.9219 -1.668,2.2617 -1.668,3.9805 0,1.9804 0.945,5.1406 2.816,9.539 l 12.668,31.0115 c 0.703,1.489 1.34,3 1.906,4.5 l 49.782,140.008 7.234,20.121 c 1.906,5.121 2.871,8.621 2.871,10.488 0,1.383 -0.359,2.473 -1.066,3.231 -0.723,0.762 -2.078,1.312 -4.09,1.672 -4.672,0.929 -8.883,2.148 -12.629,3.66" /><path
             id="path62"
             style="fill:#253b7d;fill-opacity:1;fill-rule:nonzero;stroke:none"
             d="m 521.523,158.719 c 3.832,-0.098 9.829,1.32 17.973,4.332 4.434,1.621 10.313,4.808 17.598,9.539 2.886,1.851 6.183,4.988 9.898,9.441 3.711,4.438 6.531,9.071 8.453,13.848 1.91,4.812 2.871,9.742 2.871,14.82 0,3.352 -1.015,6.121 -3.058,8.321 -2.043,2.199 -4.313,3.289 -6.824,3.289 -3.231,0 -7.079,-1.778 -11.496,-5.36 -7.442,-6.25 -15.243,-16.699 -23.368,-31.379 -6.121,-11.179 -10.121,-20.14 -12.047,-26.851 m -3.058,-8.828 c -3.953,-10.493 -5.93,-21.09 -5.93,-31.801 0,-7.809 1.926,-14.09 5.758,-18.8087 2.508,-3.2422 5.926,-4.8321 10.238,-4.8321 2.633,0 4.969,0.5 7.016,1.5391 4.43,2.1836 8.226,4.7737 11.406,7.7617 3.184,2.988 6.5,6.898 9.985,11.719 3.472,4.84 6.289,10.242 8.441,16.222 h 2.523 c 1.426,0 3.043,-0.121 4.844,-0.351 -3.59,-12.899 -12.457,-25.551 -26.617,-37.9884 -8.832,-7.7032 -18.024,-11.5821 -27.477,-11.5821 -6.355,0 -11.754,2.7891 -16.187,8.3516 -5.86,7.2578 -8.797,17.3089 -8.797,30.1409 0,5.539 0.859,12.168 2.594,19.91 1.754,7.75 3.746,14.219 6.031,19.41 3.59,8.098 7.613,15.719 12.047,22.879 l 13.832,19.41 c 8.988,9.238 14.023,14.32 15.105,15.25 4.192,3.469 8.403,6.09 12.664,7.891 4.247,1.797 8.661,2.668 13.215,2.668 5.86,0 11.016,-2.348 15.449,-7.102 4.434,-4.746 6.653,-10.726 6.653,-17.898 0,-6.371 -1.703,-12.66 -5.121,-18.852 -3.422,-6.199 -7.098,-10.726 -11.051,-13.637 L 560.172,160.84 C 558.484,160 554,158.539 546.68,156.398 c -7.305,-2.148 -16.703,-4.308 -28.215,-6.507" /><path
             id="path64"
             style="fill:#253b7d;fill-opacity:1;fill-rule:nonzero;stroke:none"
             d="m 641.227,214.691 c -3.954,-2.761 -7.7,-6 -11.153,-9.691 -0.961,-1.039 -6.41,-7.969 -16.344,-20.801 l -7.371,-0.347 c 2.973,6.238 8.543,13.91 16.672,23.046 8.125,9.133 15.172,15.364 21.153,18.723 3.832,2.18 8.129,3.449 12.886,3.801 3.008,-0.793 5.035,-1.883 6.223,-3.262 1.133,-1.359 1.699,-3.019 1.699,-4.969 0,-1.953 -0.238,-3.91 -0.722,-5.851 -1.321,-6.289 -3.934,-15.32 -7.852,-27.11 -3.934,-11.789 -7.457,-21.089 -10.516,-27.89 l -9.347,-21.328 -0.723,-3.121 c 1.684,2.789 5.086,8.961 10.242,18.55 19.539,35.688 33.614,57.7 42.239,66.059 6.355,5.941 13.781,8.922 22.269,8.922 4.813,0 9.297,-1.852 13.488,-5.543 3.129,-2.891 4.676,-6.707 4.676,-11.438 0,-5.32 -1.734,-9.871 -5.207,-13.691 -2.402,-2.66 -5.809,-3.98 -10.242,-3.98 -3.711,0 -6.32,0.832 -7.836,2.5 -1.477,1.671 -2.406,5.878 -2.766,12.582 -1.562,2.988 -3.3,4.488 -5.222,4.488 -1.91,0 -3.953,-0.961 -6.102,-2.942 -5.773,-4.968 -16.637,-20.847 -32.598,-47.648 -15.949,-26.82 -25.964,-45.449 -29.968,-55.879 -4.039,-10.4413 -7.289,-17.621 -9.813,-21.5507 -1.308,-1.9805 -3.746,-2.9687 -7.304,-2.9687 -3.215,0 -5.516,0.539 -6.875,1.6367 -1.372,1.1015 -2.043,2.5117 -2.043,4.2617 0,2.2813 0.585,4.9492 1.789,7.9492 5.152,12.1408 13.418,34.4918 24.793,67.0628 l 12.597,37.097 c 0.824,3.301 1.426,5.422 1.785,6.332 l 1.082,2.547 c 0,1.141 -1.199,2.641 -3.589,4.453" /><path
             id="path66"
             style="fill:#253b7d;fill-opacity:1;fill-rule:nonzero;stroke:none"
             d="m 749.246,158.719 c 3.832,-0.098 9.813,1.32 17.977,4.332 4.398,1.621 10.277,4.808 17.597,9.539 2.887,1.851 6.188,4.988 9.899,9.441 3.711,4.438 6.527,9.071 8.418,13.848 1.941,4.812 2.902,9.742 2.902,14.82 0,3.352 -1.027,6.121 -3.059,8.321 -2.042,2.199 -4.312,3.289 -6.839,3.289 -3.246,0 -7.059,-1.778 -11.496,-5.36 -7.422,-6.25 -15.223,-16.699 -23.368,-31.379 -6.101,-11.179 -10.14,-20.14 -12.031,-26.851 m -3.058,-8.828 c -3.95,-10.493 -5.926,-21.09 -5.926,-31.801 0,-7.809 1.906,-14.09 5.722,-18.8087 2.543,-3.2422 5.946,-4.8321 10.274,-4.8321 2.629,0 4.969,0.5 6.996,1.5391 4.434,2.1836 8.246,4.7737 11.426,7.7617 3.164,2.988 6.496,6.898 9.965,11.719 3.472,4.84 6.289,10.242 8.457,16.222 h 2.507 c 1.446,0 3.059,-0.121 4.848,-0.351 -3.594,-12.899 -12.461,-25.551 -26.602,-37.9884 -8.867,-7.7032 -18.027,-11.5821 -27.496,-11.5821 -6.339,0 -11.734,2.7891 -16.168,8.3516 -5.878,7.2578 -8.816,17.3089 -8.816,30.1409 0,5.539 0.875,12.168 2.613,19.91 1.735,7.75 3.746,14.219 6.032,19.41 3.589,8.098 7.593,15.719 12.027,22.879 l 13.851,19.41 c 8.989,9.238 14.004,14.32 15.086,15.25 4.192,3.469 8.422,6.09 12.664,7.891 4.262,1.797 8.665,2.668 13.215,2.668 5.879,0 11.032,-2.348 15.469,-7.102 4.43,-4.746 6.648,-10.726 6.648,-17.898 0,-6.371 -1.718,-12.66 -5.121,-18.852 -3.421,-6.199 -7.113,-10.726 -11.066,-13.637 l -14.914,-9.351 c -1.668,-0.84 -6.172,-2.301 -13.473,-4.442 -7.32,-2.148 -16.738,-4.308 -28.218,-6.507" /><path
             id="path68"
             style="fill:#253b7d;fill-opacity:1;fill-rule:nonzero;stroke:none"
             d="m 929.148,185.93 c 1.446,7.281 3.352,14.621 5.758,22.011 0.465,1.489 2.746,6.809 6.821,15.938 l 3.214,5.012 2.164,4 c 9.125,12.578 17.719,23.191 25.813,31.8 8.074,8.598 15.41,15.098 22.012,19.489 11.01,7.39 23.01,13.242 35.95,17.511 17.48,5.879 31.98,9.457 43.49,10.739 l 19.37,2.25 c 2.08,0.23 5.26,0.351 9.57,0.351 10.77,0 24.38,-0.761 40.8,-2.269 8.14,-0.692 14.02,-1.551 17.61,-2.59 0.21,-2.781 0.36,-4.852 0.36,-6.242 0,-2.309 -0.19,-4.508 -0.55,-6.578 l -2.68,-17.321 c -0.6,-2.781 -1.51,-5.84 -2.72,-9.179 -2.14,0.218 -4.36,0.679 -6.63,1.367 l -2.7,18.883 c -0.98,5.66 -1.89,9.25 -2.78,10.75 -0.91,1.488 -1.84,2.476 -2.78,2.957 -2.17,1.273 -5.23,2.132 -9.18,2.582 -8.51,0.808 -13.42,1.218 -14.73,1.218 -13.19,0 -24.74,-1.218 -34.69,-3.621 -14.27,-3.597 -26.07,-7.41 -35.4,-11.449 -9.35,-4.039 -18.85,-10.027 -28.49,-17.937 -9.66,-7.922 -17.05,-15.051 -22.207,-21.403 l -3.059,-3.289 c -3.468,-4.609 -6.82,-8.89 -10.05,-12.832 -4.914,-7.269 -10.723,-19.629 -17.442,-37.078 -4.226,-10.621 -6.289,-21.418 -6.289,-32.391 l 0.723,-10.75 c 0.117,-0.687 0.168,-1.789 0.168,-3.3 1.566,-7.86 4.039,-15.11 7.461,-21.739 3.418,-6.648 7.578,-12.55 12.492,-17.691 4.898,-5.129 11.375,-9.949 19.383,-14.457 6.24,-3.4728 12.51,-5.8322 18.87,-7.1134 9.23,-1.8477 16.77,-2.7578 22.63,-2.7578 14.97,0 27.86,1.3203 38.63,3.9687 6.1,1.5118 11.01,4.1797 14.73,7.9685 2.16,2.332 3.83,5.5 5.03,9.543 5.04,17.918 7.56,31.078 7.56,39.508 0,3.59 -1.44,5.891 -4.31,6.93 -7.18,2.66 -13.34,4 -18.47,4 l -11.5,-0.18 c -1.55,0 -3.4,0.5 -5.57,1.543 1.81,3.238 2.94,4.988 3.42,5.219 l 6.48,0.168 14.19,-0.348 14.75,0.348 c 2.85,0 6.82,-0.078 11.86,-0.27 5.03,-0.168 8.55,-0.25 10.6,-0.25 5.75,0 10.08,0.082 13.02,0.25 2.94,0.192 5.19,0.27 6.74,0.27 l 14.38,-0.52 v -5.367 c -2.64,-0.711 -5.87,-1.344 -9.71,-1.902 -6.95,-0.942 -11.34,-2.25 -13.14,-4 -2.63,-2.649 -4.59,-6.981 -5.76,-13 -1.9,-10.032 -3.83,-18.828 -5.76,-26.321 l -4.84,-22.8785 -38.65,-8.6797 c -9.21,-1.9492 -15.57,-3.1094 -19.04,-3.461 l -16.89,-1.7304 c -11.5,0 -23.3,0.582 -35.4,1.7304 -2.63,0.25 -6,1.0391 -10.05,2.4297 l -22.117,7.7891 c -5.156,2.5508 -12.097,6.6524 -20.847,12.3204 -8.504,7.141 -13.762,11.941 -15.825,14.383 -4.175,5.187 -7.82,11.129 -10.964,17.828 -1.77,3.832 -3.094,8.379 -3.934,13.699 -1.309,8.07 -1.977,14.09 -1.977,18.02 l 1.082,16.121" /><path
             id="path70"
             style="fill:#253b7d;fill-opacity:1;fill-rule:nonzero;stroke:none"
             d="m 1221.74,214.691 c -3.95,-2.761 -7.66,-6 -11.13,-9.691 -0.96,-1.039 -6.41,-7.969 -16.36,-20.801 l -7.37,-0.347 c 2.97,6.238 8.56,13.91 16.67,23.046 8.12,9.133 15.19,15.364 21.17,18.723 3.81,2.18 8.12,3.449 12.9,3.801 2.99,-0.793 5.05,-1.883 6.19,-3.262 1.13,-1.359 1.7,-3.019 1.7,-4.969 0,-1.953 -0.24,-3.91 -0.71,-5.851 -1.32,-6.289 -3.95,-15.32 -7.87,-27.11 -3.91,-11.789 -7.42,-21.089 -10.51,-27.89 l -9.35,-21.328 -0.71,-3.121 c 1.67,2.789 5.07,8.961 10.23,18.55 19.54,35.688 33.61,57.7 42.25,66.059 6.35,5.941 13.77,8.922 22.26,8.922 4.81,0 9.31,-1.852 13.51,-5.543 3.11,-2.891 4.67,-6.707 4.67,-11.438 0,-5.32 -1.74,-9.871 -5.22,-13.691 -2.39,-2.66 -5.81,-3.98 -10.25,-3.98 -3.71,0 -6.32,0.832 -7.83,2.5 -1.48,1.671 -2.41,5.878 -2.77,12.582 -1.55,2.988 -3.3,4.488 -5.21,4.488 -1.92,0 -3.95,-0.961 -6.11,-2.942 -5.78,-4.968 -16.62,-20.847 -32.58,-47.648 -15.97,-26.82 -25.95,-45.449 -29.97,-55.879 -4.02,-10.4413 -7.31,-17.621 -9.82,-21.5507 -1.3,-1.9805 -3.76,-2.9687 -7.32,-2.9687 -3.21,0 -5.49,0.539 -6.87,1.6367 -1.36,1.1015 -2.05,2.5117 -2.05,4.2617 0,2.2813 0.61,4.9492 1.81,7.9492 5.14,12.1408 13.4,34.4918 24.8,67.0628 l 12.58,37.097 c 0.84,3.301 1.44,5.422 1.8,6.332 l 1.07,2.547 c 0,1.141 -1.19,2.641 -3.6,4.453" /><path
             id="path72"
             style="fill:#253b7d;fill-opacity:1;fill-rule:nonzero;stroke:none"
             d="m 1329.76,158.719 c 3.83,-0.098 9.83,1.32 17.98,4.332 4.43,1.621 10.31,4.808 17.59,9.539 2.89,1.851 6.19,4.988 9.9,9.441 3.71,4.438 6.53,9.071 8.46,13.848 1.9,4.812 2.87,9.742 2.87,14.82 0,3.352 -1.02,6.121 -3.06,8.321 -2.05,2.199 -4.32,3.289 -6.82,3.289 -3.23,0 -7.08,-1.778 -11.5,-5.36 -7.44,-6.25 -15.24,-16.699 -23.37,-31.379 -6.12,-11.179 -10.12,-20.14 -12.05,-26.851 m -3.06,-8.828 c -3.95,-10.493 -5.92,-21.09 -5.92,-31.801 0,-7.809 1.92,-14.09 5.75,-18.8087 2.51,-3.2422 5.93,-4.8321 10.24,-4.8321 2.63,0 4.97,0.5 7.01,1.5391 4.44,2.1836 8.24,4.7737 11.42,7.7617 3.17,2.988 6.49,6.898 9.98,11.719 3.47,4.84 6.29,10.242 8.44,16.222 h 2.52 c 1.43,0 3.04,-0.121 4.85,-0.351 -3.59,-12.899 -12.46,-25.551 -26.62,-37.9884 -8.83,-7.7032 -18.02,-11.5821 -27.48,-11.5821 -6.36,0 -11.75,2.7891 -16.18,8.3516 -5.86,7.2578 -8.8,17.3089 -8.8,30.1409 0,5.539 0.86,12.168 2.59,19.91 1.75,7.75 3.75,14.219 6.03,19.41 3.6,8.098 7.62,15.719 12.05,22.879 l 13.83,19.41 c 8.99,9.238 14.02,14.32 15.11,15.25 4.19,3.469 8.4,6.09 12.66,7.891 4.25,1.797 8.66,2.668 13.22,2.668 5.86,0 11.01,-2.348 15.45,-7.102 4.43,-4.746 6.65,-10.726 6.65,-17.898 0,-6.371 -1.7,-12.66 -5.12,-18.852 -3.42,-6.199 -7.1,-10.726 -11.05,-13.637 l -14.92,-9.351 c -1.68,-0.84 -6.17,-2.301 -13.49,-4.442 -7.3,-2.148 -16.7,-4.308 -28.22,-6.507" /><path
             id="path74"
             style="fill:#253b7d;fill-opacity:1;fill-rule:nonzero;stroke:none"
             d="m 1441.7,99.2813 c 2.97,0.707 5.57,1.6797 7.77,2.9567 1.37,0.692 6.2,3.871 14.48,9.532 15.08,14.21 23.6,22.339 25.57,24.429 4.33,4.512 9.22,10.68 14.66,18.531 1.48,1.969 4.61,7.391 9.45,16.301 l 4.68,11.957 c 1.66,7.032 2.51,11.094 2.51,12.121 0,3.243 -1.39,6.313 -4.18,9.18 -1.85,1.731 -4.9,2.609 -9.07,2.609 -4.81,0 -8.96,-0.757 -12.41,-2.25 -7.77,-3.468 -14.86,-7.859 -21.27,-13.179 -8.65,-7.258 -16.98,-16.61 -24.99,-27.981 -8.02,-11.379 -13.7,-20.886 -17.03,-28.508 -4.57,-10.511 -6.86,-18.371 -6.86,-23.57 0,-4.269 0.92,-7.441 2.79,-9.519 1.84,-2.0824 4.21,-3.1097 7.04,-3.1097 1,0 3.29,0.1484 6.86,0.5 m 87.74,113.6797 c 1.21,1.961 1.98,3.539 2.34,4.68 1.44,3.461 2.87,5.711 4.31,6.75 3.37,0.359 5.83,0.531 7.39,0.531 2.05,0 4.02,-0.41 5.95,-1.223 l 0.53,-2.078 c 0,-0.691 -0.29,-1.73 -0.89,-3.121 -0.36,-0.711 -1.15,-2.891 -2.34,-6.602 l -1.44,-3.449 -11.88,-31.019 c -5.03,-13.969 -9.43,-25.121 -13.21,-33.43 -3.78,-8.328 -7.05,-16.789 -9.8,-25.391 -2.76,-8.609 -5.29,-14.769 -7.56,-18.468 l -0.72,-1.6527 c 0,-0.668 0.64,-1.5664 1.91,-2.668 5.05,2.8789 9.31,6.0077 12.78,9.3597 8.99,8.672 14.32,14.039 16,16.109 1.24,1.5 2.41,2.891 3.54,4.16 1.34,-1.16 2.58,-2.359 3.7,-3.648 -3.22,-4.5 -8.61,-10.629 -16.19,-18.371 -7.58,-7.7191 -14.42,-13.2112 -20.5,-16.4495 -4.71,-2.4219 -9.13,-3.6407 -13.27,-3.6407 -2.63,0 -4.62,0.5586 -5.93,1.711 -1.32,1.1211 -1.99,2.5781 -1.99,4.4101 0,1.5782 0.6,4.5586 1.8,8.961 2.99,7.6171 5.09,12.6481 6.29,15.0781 1.21,2.43 2.82,6.18 4.85,11.262 1.2,3.117 3.66,8.558 7.37,16.297 -2.34,-2.2 -5.24,-5.438 -8.68,-9.719 -9.98,-11.789 -21.44,-22.942 -34.38,-33.4494 -2.96,-2.4101 -10.11,-6.2812 -21.43,-11.5898 -4.19,-1.5195 -9.11,-2.4805 -14.8,-2.961 -4.79,0.1211 -8.01,0.5821 -9.6,1.3907 -2.96,1.4883 -5.36,3.8711 -7.2,7.1093 -1.36,2.4219 -2.03,6.1797 -2.03,11.2622 0,7.398 1.7,15.589 5.14,24.597 5.87,15.36 11.8,26.742 17.82,34.141 10.27,12.832 20.48,22.98 30.59,30.512 10.08,7.488 19.36,12.98 27.82,16.457 11.13,4.601 20.81,6.929 29,6.929 2.72,0 5.28,-0.25 7.74,-0.687 2.44,-0.481 4.77,-1.16 6.97,-2.09" /><path
             id="path76"
             style="fill:#253b7d;fill-opacity:1;fill-rule:nonzero;stroke:none"
             d="m 1606.89,213.48 h -10.96 l -5.02,0.168 -11.68,-0.339 h -2.34 c 0.24,2.543 1.27,5.48 3.09,8.851 17.46,0.449 27.84,0.86 31.12,1.192 2.34,5.539 4.3,9.988 5.97,13.347 3.52,7.5 7.16,16.41 10.92,26.68 1.19,3.351 2.48,6.43 3.89,9.191 2.64,0.352 5.69,0.52 9.16,0.52 2.87,0 5.63,-0.289 8.28,-0.871 l 0.34,-2.758 c 0,-2.199 -5.29,-14.91 -15.86,-38.133 -1.17,-2.668 -2.16,-5.367 -3,-8.137 3.45,-0.582 5.46,-0.859 6.06,-0.859 h 3.73 l 6.05,-0.172 17.05,0.32 c 0,-3.808 -0.69,-6.921 -2.19,-9.351 -4.69,-0.457 -10.91,-0.688 -18.59,-0.688 -3.78,0 -6.2,-0.05 -7.27,-0.171 -6.03,-0.59 -9.52,-1.161 -10.46,-1.75 l -29.25,-67.661 c -3.28,-6.5 -8.85,-18.89 -16.76,-37.187 0,-0.692 0.37,-1.481 1.09,-2.402 l 2.33,-0.348 c 3.23,0 7.26,1.969 12.03,5.887 10.42,8.66 20.25,18.781 29.49,30.32 1.98,-1.039 3.73,-2.25 5.26,-3.617 -11.86,-13.992 -20.12,-23.211 -24.92,-27.641 -4.79,-4.461 -10.88,-9.0897 -18.25,-13.871 -7.35,-4.7891 -11.8,-7.4805 -13.32,-8.0586 -2.69,-1.043 -5.44,-1.5508 -8.24,-1.5508 -2.92,0 -5.09,0.5977 -6.52,1.8203 -1.39,1.211 -2.08,2.9688 -2.08,5.2696 0,3.3593 2.86,11.1605 8.6,23.4105 l 7.52,16.109 26.48,61.52 c 3.39,7.968 6.14,14.96 8.25,20.96" /><path
             id="path78"
             style="fill:#253b7d;fill-opacity:1;fill-rule:nonzero;stroke:none"
             d="m 1817.5,213.309 c 13.73,0.222 22.79,0.8 27.2,1.722 9.32,1.848 16.98,4.469 23.01,7.867 6.03,3.411 11.67,8.043 16.9,13.93 3.12,3.473 5.8,8.332 8.07,14.613 2.27,6.278 3.4,11.789 3.4,16.52 0,4.84 -0.72,9.34 -2.14,13.5 -0.97,2.758 -3.06,6.508 -6.29,11.238 -4.45,4.723 -7.62,7.602 -9.52,8.641 -3.83,1.969 -10.61,3.98 -20.3,6.051 l -3.23,-0.172 -14.18,0.351 c -3.95,0 -7.13,-0.988 -9.52,-2.941 -1.56,-1.488 -2.64,-4.449 -3.23,-8.828 -1.28,-12.442 -3.09,-23.563 -5.43,-33.36 l -5.43,-29.41 -0.72,-9.011 c -0.24,-2.649 -0.55,-5.02 -0.91,-7.09 l -0.2,-1.371 c 0,-0.579 0.85,-1.34 2.52,-2.25 m -5.77,-9.719 c -0.6,-6.121 -2.74,-16.82 -6.36,-32.11 -1.1,-4.281 -2.54,-12.949 -4.35,-26.019 -4.86,-20.371 -7.28,-33.441 -7.28,-39.231 0,-5.539 1.39,-9.3511 4.22,-11.3589 2.82,-2.0313 11.24,-3.043 25.26,-3.043 11.4,0 21.36,1.4532 29.87,4.3321 1.56,0.8086 3.06,1.5195 4.5,2.1015 5.52,2.2973 9.95,4.9763 13.3,7.9683 6.72,6.141 11.52,11.981 14.4,17.551 4.8,9.707 7.43,15.547 7.91,17.52 2.04,9.258 3.06,17.23 3.06,23.937 0,2.903 -0.42,6.102 -1.26,9.641 -0.84,3.531 -2.15,7.371 -3.93,11.531 -3.11,3.602 -5.52,6.051 -7.19,7.391 -1.68,1.328 -5.39,3.828 -11.13,7.539 -2.63,0.808 -5.09,1.672 -7.36,2.601 -1.54,0.348 -2.69,0.59 -3.4,0.688 -3.59,0.812 -5.98,1.269 -7.18,1.391 l -11.14,0.351 -8.44,-0.351 h -7.16 l -15.79,-1.211 z M 1728.95,90.4492 c 2.03,0.5703 4,0.9414 5.91,1.1328 1.93,0.168 3.66,0.418 5.21,0.7696 1.43,0.1172 2.58,0.2187 3.4,0.3476 8.51,0.5821 13.85,1.4414 16.07,2.6016 2.22,1.1797 3.92,3.0312 5.1,5.5972 3.11,7.793 5.09,13.883 5.93,18.321 0.36,2.531 0.65,4.269 0.89,5.191 0.25,1.391 0.49,3.168 0.73,5.371 0.94,4.981 1.49,8.02 1.61,9.18 0.36,3.141 1.21,7.48 2.51,13.098 1.31,5.589 2.46,11.972 3.42,19.14 0.48,4.051 0.81,6.582 1.08,7.621 2.62,12.371 4.49,21.891 5.52,28.59 4.71,28.07 8.09,46.442 10.29,55.11 0.71,6.582 2.08,15.371 4.11,26.332 l 0.36,8.597 c 0,1.942 -0.72,3.539 -2.16,4.801 -2.75,2.398 -7.15,4.02 -13.15,4.82 -6,0.789 -10.76,1.192 -14.23,1.192 l -2.17,-0.16 -3.05,1.218 c -0.12,1.371 -0.19,2.399 -0.19,3.11 l 0.19,1.898 c 7.32,0.231 11.41,0.352 12.25,0.352 16.32,0 27.32,-0.121 32.96,-0.352 3.95,-0.129 7.11,-0.18 9.52,-0.18 2.63,0 6.89,0.114 12.75,0.293 3.83,0.149 6.7,0.239 8.63,0.239 17.94,0 30.39,-0.809 37.34,-2.43 9.45,-2.078 16.8,-5.371 22.08,-9.852 7.77,-6.679 13.08,-12.878 15.88,-18.597 2.82,-5.711 4.22,-12.653 4.22,-20.852 0,-4.39 -0.92,-8.769 -2.78,-13.148 -1.86,-4.379 -4.83,-8.699 -8.9,-12.973 -1.32,-1.387 -6.05,-5.008 -14.2,-10.887 -1.8,-1.031 -4.09,-2.3 -6.82,-3.82 l -16,-7.422 c 8.63,-1.738 15.93,-4.398 21.93,-7.988 1.79,-1.039 3.59,-1.902 5.38,-2.602 1.67,-1.398 3.3,-2.621 4.86,-3.738 1.55,-1.082 2.99,-2.16 4.32,-3.199 3.23,-3.711 5.49,-6.953 6.82,-9.723 l 2.89,-5.367 c 0.82,-1.633 1.82,-5.344 2.95,-11.113 1.14,-5.789 1.72,-10.93 1.72,-15.449 0,-3.7 -0.12,-6.25 -0.36,-7.641 l -3.78,-11.258 c -5.28,-9.383 -9.45,-16.242 -12.56,-20.57 -3.11,-4.332 -8.68,-9.641 -16.71,-15.871 -4.31,-3.3597 -10.48,-6.5511 -18.49,-9.5589 -3.47,-1.2617 -10.84,-2.832 -22.11,-4.6797 l -2.5,-0.1719 c -0.7,0 -4.24,-0.2382 -10.58,-0.6914 -3.59,-0.3476 -6.53,-0.5195 -8.8,-0.5195 -4.79,0 -14.85,0.4531 -30.17,1.3828 -5.62,0.2305 -10.06,0.75 -13.29,1.5469 l -15.27,0.5312 -2.13,-0.1679 -7.55,-1.043 -5.76,0.3516 -10.58,-1.2188 c -4.68,-0.9297 -8.63,-1.3828 -11.84,-1.3828 -0.98,0 -2.05,0.0508 -3.25,0.1719 l 0.55,5.7187" /><path
             id="path80"
             style="fill:#253b7d;fill-opacity:1;fill-rule:nonzero;stroke:none"
             d="m 1990.08,214.691 c -3.95,-2.761 -7.66,-6 -11.13,-9.691 -0.97,-1.039 -6.41,-7.969 -16.36,-20.801 l -7.37,-0.347 c 2.97,6.238 8.55,13.91 16.66,23.046 8.13,9.133 15.19,15.364 21.18,18.723 3.81,2.18 8.12,3.449 12.9,3.801 2.99,-0.793 5.05,-1.883 6.19,-3.262 1.13,-1.359 1.7,-3.019 1.7,-4.969 0,-1.953 -0.24,-3.91 -0.71,-5.851 -1.32,-6.289 -3.95,-15.32 -7.87,-27.11 -3.91,-11.789 -7.42,-21.089 -10.51,-27.89 l -9.35,-21.328 -0.71,-3.121 c 1.67,2.789 5.07,8.961 10.23,18.55 19.54,35.688 33.61,57.7 42.25,66.059 6.34,5.941 13.77,8.922 22.26,8.922 4.81,0 9.31,-1.852 13.5,-5.543 3.11,-2.891 4.68,-6.707 4.68,-11.438 0,-5.32 -1.74,-9.871 -5.23,-13.691 -2.38,-2.66 -5.8,-3.98 -10.24,-3.98 -3.71,0 -6.32,0.832 -7.83,2.5 -1.48,1.671 -2.41,5.878 -2.77,12.582 -1.55,2.988 -3.3,4.488 -5.21,4.488 -1.92,0 -3.95,-0.961 -6.12,-2.942 -5.77,-4.968 -16.61,-20.847 -32.58,-47.648 -15.96,-26.82 -25.94,-45.449 -29.96,-55.879 -4.03,-10.4413 -7.31,-17.621 -9.82,-21.5507 -1.3,-1.9805 -3.76,-2.9687 -7.32,-2.9687 -3.21,0 -5.5,0.539 -6.87,1.6367 -1.36,1.1015 -2.05,2.5117 -2.05,4.2617 0,2.2813 0.61,4.9492 1.81,7.9492 5.14,12.1408 13.4,34.4918 24.79,67.0628 l 12.58,37.097 c 0.85,3.301 1.45,5.422 1.81,6.332 l 1.06,2.547 c 0,1.141 -1.18,2.641 -3.59,4.453" /><path
             id="path82"
             style="fill:#253b7d;fill-opacity:1;fill-rule:nonzero;stroke:none"
             d="m 2093.58,99.2813 c 2.96,0.707 5.55,1.6797 7.79,2.9567 1.35,0.692 6.17,3.871 14.45,9.532 15.07,14.21 23.58,22.339 25.59,24.429 4.31,4.512 9.19,10.68 14.64,18.531 1.48,1.969 4.64,7.391 9.45,16.301 l 4.67,11.957 c 1.69,7.032 2.51,11.094 2.51,12.121 0,3.243 -1.39,6.313 -4.17,9.18 -1.86,1.731 -4.92,2.609 -9.08,2.609 -4.81,0 -8.95,-0.757 -12.39,-2.25 -7.78,-3.468 -14.88,-7.859 -21.29,-13.179 -8.62,-7.258 -16.96,-16.61 -24.98,-27.981 -8.01,-11.379 -13.7,-20.886 -17.03,-28.508 -4.56,-10.511 -6.84,-18.371 -6.84,-23.57 0,-4.269 0.91,-7.441 2.78,-9.519 1.86,-2.0824 4.19,-3.1097 7.05,-3.1097 0.98,0 3.26,0.1484 6.85,0.5 m 87.74,113.6797 c 1.19,1.961 1.98,3.539 2.32,4.68 1.45,3.461 2.89,5.711 4.33,6.75 3.36,0.359 5.83,0.531 7.38,0.531 2.04,0 4.02,-0.41 5.94,-1.223 l 0.55,-2.078 c 0,-0.691 -0.31,-1.73 -0.91,-3.121 -0.36,-0.711 -1.13,-2.891 -2.34,-6.602 l -1.42,-3.449 -11.88,-31.019 c -5.03,-13.969 -9.45,-25.121 -13.21,-33.43 -3.78,-8.328 -7.05,-16.789 -9.81,-25.391 -2.75,-8.609 -5.28,-14.769 -7.55,-18.468 L 2154,98.4883 c 0,-0.668 0.64,-1.5664 1.89,-2.668 5.05,2.8789 9.32,6.0077 12.8,9.3597 8.97,8.672 14.3,14.039 15.99,16.109 1.23,1.5 2.4,2.891 3.54,4.16 1.34,-1.16 2.57,-2.359 3.71,-3.648 -3.23,-4.5 -8.63,-10.629 -16.21,-18.371 -7.58,-7.7191 -14.4,-13.2112 -20.48,-16.4495 -4.71,-2.4219 -9.16,-3.6407 -13.27,-3.6407 -2.64,0 -4.62,0.5586 -5.94,1.711 -1.33,1.1211 -1.98,2.5781 -1.98,4.4101 0,1.5782 0.6,4.5586 1.79,8.961 3,7.6171 5.08,12.6481 6.29,15.0781 1.2,2.43 2.82,6.18 4.86,11.262 1.19,3.117 3.64,8.558 7.37,16.297 -2.35,-2.2 -5.24,-5.438 -8.69,-9.719 -9.99,-11.789 -21.43,-22.942 -34.37,-33.4494 -2.96,-2.4101 -10.1,-6.2812 -21.45,-11.5898 -4.17,-1.5195 -9.1,-2.4805 -14.78,-2.961 -4.81,0.1211 -8,0.5821 -9.6,1.3907 -2.97,1.4883 -5.36,3.8711 -7.22,7.1093 -1.36,2.4219 -2.03,6.1797 -2.03,11.2622 0,7.398 1.72,15.589 5.14,24.597 5.88,15.36 11.82,26.742 17.82,34.141 10.3,12.832 20.49,22.98 30.59,30.512 10.1,7.488 19.37,12.98 27.82,16.457 11.15,4.601 20.83,6.929 29.01,6.929 2.71,0 5.29,-0.25 7.73,-0.687 2.46,-0.481 4.78,-1.16 6.99,-2.09" /><path
             id="path84"
             style="fill:#253b7d;fill-opacity:1;fill-rule:nonzero;stroke:none"
             d="m 2256.97,207.59 c -0.24,0.93 -0.57,1.558 -0.98,1.898 -0.43,0.352 -0.93,0.532 -1.55,0.532 -6.22,0 -15.91,-9.469 -29.09,-28.43 -1.32,-0.102 -2.28,-0.168 -2.89,-0.168 -0.72,0 -1.9,0.066 -3.59,0.168 2.51,4.859 6.62,10.969 12.31,18.371 5.67,7.398 11.73,13.539 18.11,18.469 6.42,4.89 12.51,8.57 18.25,11 1.9,0.808 3.64,1.211 5.19,1.211 0.62,0 1.51,-0.051 2.71,-0.18 2.15,-2.07 3.23,-4.199 3.23,-6.391 0,-1.39 -0.15,-2.769 -0.44,-4.16 -0.31,-1.398 -0.93,-3.531 -1.89,-6.41 -3.61,-9.941 -6.22,-16.93 -7.91,-20.98 l -10.22,-25.649 c -2.39,-5.883 -4.73,-12.141 -7.01,-18.723 0.96,1.153 1.8,2.25 2.52,3.293 11.14,15.707 23.17,30.77 36.05,45.149 12.89,14.371 23.53,24 31.93,28.859 6,3.563 11.69,5.36 17.08,5.36 4.08,0 7.25,-1.071 9.52,-3.2 2.29,-2.14 3.44,-4.89 3.44,-8.25 0,-2.078 -0.24,-4.097 -0.72,-6.07 -0.84,-4.379 -2.72,-10.508 -5.59,-18.348 -2.87,-7.871 -10.43,-24.902 -22.66,-51.132 l -17.99,-40.008 -0.71,-2.25 c 0,-0.699 0.41,-1.7424 1.26,-3.1291 6.7,1.3867 16.77,11.6561 30.19,30.8401 l 7.37,-0.172 c -3.71,-6.481 -9.83,-14.781 -18.34,-24.949 -6.59,-7.7426 -13.67,-13.7504 -21.2,-18.0199 -4.19,-2.4297 -8.7,-3.6406 -13.49,-3.6406 -2.87,0 -5.02,0.5703 -6.46,1.7383 -1.45,1.1406 -2.17,2.4101 -2.17,3.8203 0,6.1015 3.06,15.5819 9.16,28.3909 l 26.07,54.941 10.07,23.051 c 2.27,5.066 3.66,8.609 4.14,10.558 0.47,1.969 0.71,3.95 0.71,5.899 0,1.492 -0.42,2.691 -1.26,3.551 -0.86,0.859 -1.9,1.3 -3.23,1.3 -1.92,0 -4.14,-0.75 -6.65,-2.25 -8.88,-5.089 -18.64,-13.82 -29.32,-26.16 -15.34,-17.8 -25.53,-30.57 -30.57,-38.3 -12.56,-19.18 -23.56,-38.758 -32.85,-58.7505 -1.44,-3.2382 -3.18,-5.5898 -5.21,-7.0898 -2.52,-0.3477 -4.43,-0.5313 -5.75,-0.5313 -1.57,0 -3.96,0.3008 -7.19,0.8711 -0.48,0.9219 -0.72,1.6602 -0.72,2.25 0,0.9219 0.6,3 1.77,6.2422 2.66,7.5 9.13,23.3283 19.43,47.4683 l 4.15,9.372 22.99,58.738" /><path
             id="path86"
             style="fill:#253b7d;fill-opacity:1;fill-rule:nonzero;stroke:none"
             d="m 2400.3,98.2383 c 4.62,0 10.02,2.1527 16.16,6.4337 11.22,7.84 21.79,18.258 31.68,31.269 9.9,13 16.86,25.969 20.85,38.899 4,12.93 6,20.621 6,23.051 0,3.699 -1.45,7.218 -4.35,10.558 -2.89,3.36 -5.55,5.031 -7.99,5.031 -4.28,0 -9.47,-1.511 -15.54,-4.5 -6.08,-3.011 -12.47,-8.148 -19.19,-15.421 -3.83,-4.039 -9.68,-12.469 -17.55,-25.297 -7.87,-12.832 -13.73,-23.864 -17.54,-33.102 -3.83,-9.262 -5.73,-16.351 -5.73,-21.308 0,-4.864 1.24,-8.672 3.73,-11.461 2.49,-2.7621 5.64,-4.1527 9.47,-4.1527 m 79.53,112.2817 19.42,59.8 c 0.84,2.532 2.03,6.711 3.59,12.469 0.24,1.16 0.46,2.082 0.72,2.789 2.51,7.57 3.78,12.391 3.78,14.442 0,1.492 -0.79,2.871 -2.33,4.14 -3.25,2.41 -8.7,4.469 -16.35,6.192 l -3.79,1.039 1.44,5.007 c 20.36,0 33.9,1.34 40.62,4 l 2.15,0.172 c 1.44,0 2.99,-0.218 4.67,-0.699 -0.84,-3.473 -1.42,-5.82 -1.78,-7.109 l -0.19,-1.043 -14.9,-42.969 -17.98,-55.441 c -3.21,-9.489 -5.37,-16.457 -6.44,-20.957 -1.56,-6.711 -3.37,-12.961 -5.39,-18.723 l -25.52,-73.6407 0.56,-1.0586 c 4.3,0.6992 15.31,10.4683 33.01,29.3003 1.91,-0.808 3.36,-1.851 4.3,-3.14 -9.93,-14.418 -21.08,-26.09 -33.44,-34.9689 -8.87,-6.3828 -15.5,-9.543 -19.93,-9.543 -0.96,0 -2.27,0.2227 -3.96,0.6836 -0.72,1.0391 -1.1,1.9688 -1.1,2.7774 0,3.4726 2.07,11.4922 6.14,24.0899 4.07,12.582 6.89,21.711 8.44,27.391 -3.13,-2.911 -7.7,-7.7 -13.73,-14.399 -11.47,-12.832 -23.56,-23.3905 -36.33,-31.7108 -9.16,-6 -17.44,-9.0118 -24.85,-9.0118 -4.05,0 -7.25,1.6211 -9.57,4.8516 -3.71,4.9688 -5.57,11.9492 -5.57,20.969 0,11.203 2.58,22.769 7.72,34.66 3.02,7.269 8.07,16.633 15.14,28.07 7.06,11.43 14.93,21.391 23.63,29.891 8.69,8.492 16.97,14.609 24.86,18.371 7.87,3.75 15.02,5.629 21.43,5.629 5.02,0 9.45,-1.16 13.32,-3.469 2.56,-1.512 5.29,-4.449 8.21,-8.851" /><path
             id="path88"
             style="fill:#253b7d;fill-opacity:1;fill-rule:nonzero;stroke:none"
             d="m 2519.39,117.141 c 5.98,0 10.89,-4.45 14.73,-13.352 1.92,-4.3984 3.78,-7.2695 5.56,-8.6679 1.69,-1.4922 3.9,-2.25 6.65,-2.25 5.16,0 10.07,2.3203 14.75,6.9492 3.59,3.4687 5.39,8.7887 5.39,15.9607 0,5.539 -2.04,13.867 -6.11,24.969 -5.76,16.078 -8.63,28.699 -8.63,37.832 0,13.309 3.71,25.098 11.15,35.387 7.43,10.293 19.16,15.453 35.23,15.453 6.82,0 12.27,-1.801 16.34,-5.363 4.07,-3.59 6.12,-7.93 6.12,-13.008 0,-3.461 -1,-6.262 -2.97,-8.403 -1.98,-2.136 -4.21,-3.187 -6.74,-3.187 -5.28,0 -10,2.437 -14.19,7.348 -4.2,4.91 -7.01,7.781 -8.46,8.57 -1.42,0.703 -3.64,1.062 -6.65,1.062 -3.35,0 -6.32,-1.41 -8.88,-4.179 -2.58,-2.774 -3.87,-6.141 -3.87,-10.082 0,-9.36 2.89,-22.399 8.66,-39.121 5.79,-16.688 8.64,-29.68 8.59,-38.938 0,-5.891 -1.89,-11.871 -5.67,-17.961 -3.76,-6.082 -9.64,-11.2186 -17.61,-15.4412 -7.96,-4.2188 -16.14,-6.3282 -24.52,-6.3282 -10.07,0 -17.6,2.0703 -22.57,6.2305 -4.96,4.1484 -7.45,9.1289 -7.45,14.8989 0,3.468 1.01,6.261 3.05,8.41 2.03,2.129 4.73,3.211 8.1,3.211" /><path
             id="path90"
             style="fill:#253b7d;fill-opacity:1;fill-rule:nonzero;stroke:none"
             d="m 2791.45,213.309 c 13.73,0.222 22.79,0.8 27.2,1.722 9.31,1.848 16.98,4.469 23.01,7.867 6.03,3.411 11.67,8.043 16.91,13.93 3.11,3.473 5.79,8.332 8.04,14.613 2.27,6.278 3.42,11.789 3.42,16.52 0,4.84 -0.72,9.34 -2.15,13.5 -0.96,2.758 -3.05,6.508 -6.29,11.238 -4.43,4.723 -7.61,7.602 -9.51,8.641 -3.84,1.969 -10.61,3.98 -20.3,6.051 l -3.25,-0.172 -14.16,0.351 c -3.95,0 -7.15,-0.988 -9.52,-2.941 -1.56,-1.488 -2.64,-4.449 -3.23,-8.828 -1.29,-12.442 -3.09,-23.563 -5.43,-33.36 l -5.43,-29.41 -0.72,-9.011 c -0.24,-2.649 -0.55,-5.02 -0.91,-7.09 l -0.19,-1.371 c 0,-0.579 0.84,-1.34 2.51,-2.25 m -5.78,-9.719 c -0.6,-6.121 -2.73,-16.82 -6.35,-32.11 -1.1,-4.281 -2.55,-12.949 -4.37,-26.019 -4.84,-20.371 -7.28,-33.441 -7.28,-39.231 0,-5.539 1.41,-9.3511 4.24,-11.3589 2.82,-2.0313 11.24,-3.043 25.26,-3.043 11.39,0 21.36,1.4532 29.85,4.3321 1.58,0.8086 3.08,1.5195 4.52,2.1015 5.51,2.2973 9.95,4.9763 13.3,7.9683 6.72,6.141 11.5,11.981 14.4,17.551 4.79,9.707 7.41,15.547 7.9,17.52 2.05,9.258 3.06,17.23 3.06,23.937 0,2.903 -0.41,6.102 -1.25,9.641 -0.86,3.531 -2.15,7.371 -3.94,11.531 -3.11,3.602 -5.51,6.051 -7.2,7.391 -1.66,1.328 -5.37,3.828 -11.11,7.539 -2.63,0.808 -5.09,1.672 -7.36,2.601 -1.55,0.348 -2.7,0.59 -3.4,0.688 -3.59,0.812 -6,1.269 -7.18,1.391 l -11.14,0.351 -8.44,-0.351 h -7.16 l -15.79,-1.211 z M 2702.9,90.4492 c 2.03,0.5703 4,0.9414 5.91,1.1328 1.92,0.168 3.66,0.418 5.21,0.7696 1.42,0.1172 2.57,0.2187 3.4,0.3476 8.49,0.5821 13.85,1.4414 16.07,2.6016 2.21,1.1797 3.92,3.0312 5.1,5.5972 3.11,7.793 5.09,13.883 5.93,18.321 0.36,2.531 0.65,4.269 0.89,5.191 0.23,1.391 0.48,3.168 0.72,5.371 0.95,4.981 1.5,8.02 1.62,9.18 0.36,3.141 1.2,7.48 2.51,13.098 1.32,5.589 2.46,11.972 3.42,19.14 0.48,4.051 0.82,6.582 1.08,7.621 2.63,12.371 4.49,21.891 5.55,28.59 4.67,28.07 8.08,46.442 10.24,55.11 0.73,6.582 2.1,15.371 4.13,26.332 l 0.34,8.597 c 0,1.942 -0.72,3.539 -2.15,4.801 -2.75,2.398 -7.15,4.02 -13.14,4.82 -6.02,0.789 -10.76,1.192 -14.23,1.192 l -2.17,-0.16 -3.06,1.218 c -0.12,1.371 -0.18,2.399 -0.18,3.11 l 0.18,1.898 c 7.33,0.231 11.41,0.352 12.26,0.352 16.32,0 27.32,-0.121 32.96,-0.352 3.95,-0.129 7.13,-0.18 9.52,-0.18 2.62,0 6.89,0.114 12.75,0.293 3.83,0.149 6.7,0.239 8.62,0.239 17.94,0 30.4,-0.809 37.34,-2.43 9.46,-2.078 16.81,-5.371 22.09,-9.852 7.76,-6.679 13.07,-12.878 15.87,-18.597 2.8,-5.711 4.23,-12.653 4.23,-20.852 0,-4.39 -0.93,-8.769 -2.78,-13.148 -1.86,-4.379 -4.83,-8.699 -8.92,-12.973 -1.31,-1.387 -6.03,-5.008 -14.18,-10.887 -1.8,-1.031 -4.07,-2.3 -6.82,-3.82 l -16,-7.422 c 8.63,-1.738 15.93,-4.398 21.93,-7.988 1.78,-1.039 3.59,-1.902 5.38,-2.602 1.68,-1.398 3.3,-2.621 4.86,-3.738 1.55,-1.082 2.99,-2.16 4.31,-3.199 3.23,-3.711 5.5,-6.953 6.82,-9.723 l 2.89,-5.367 c 0.83,-1.633 1.81,-5.344 2.96,-11.113 1.11,-5.789 1.72,-10.93 1.72,-15.449 0,-3.7 -0.12,-6.25 -0.36,-7.641 l -3.78,-11.258 c -5.26,-9.383 -9.46,-16.242 -12.57,-20.57 -3.11,-4.332 -8.68,-9.641 -16.7,-15.871 -4.31,-3.3597 -10.46,-6.5511 -18.49,-9.5589 -3.47,-1.2617 -10.84,-2.832 -22.08,-4.6797 l -2.53,-0.1719 c -0.7,0 -4.24,-0.2382 -10.58,-0.6914 -3.59,-0.3476 -6.53,-0.5195 -8.8,-0.5195 -4.8,0 -14.85,0.4531 -30.16,1.3828 -5.64,0.2305 -10.07,0.75 -13.3,1.5469 l -15.26,0.5312 -2.17,-0.1679 -7.52,-1.043 -5.74,0.3516 -10.6,-1.2188 c -4.68,-0.9297 -8.63,-1.3828 -11.84,-1.3828 -0.96,0 -2.05,0.0508 -3.25,0.1719 l 0.55,5.7187" /><path
             id="path92"
             style="fill:#253b7d;fill-opacity:1;fill-rule:nonzero;stroke:none"
             d="m 2951.62,158.719 c 3.84,-0.098 9.83,1.32 17.96,4.332 4.43,1.621 10.31,4.808 17.63,9.539 2.87,1.851 6.17,4.988 9.88,9.441 3.71,4.438 6.53,9.071 8.44,13.848 1.92,4.812 2.89,9.742 2.89,14.82 0,3.352 -1.02,6.121 -3.06,8.321 -2.03,2.199 -4.32,3.289 -6.82,3.289 -3.25,0 -7.08,-1.778 -11.5,-5.36 -7.44,-6.25 -15.23,-16.699 -23.37,-31.379 -6.12,-11.179 -10.14,-20.14 -12.05,-26.851 m -3.06,-8.828 c -3.95,-10.493 -5.93,-21.09 -5.93,-31.801 0,-7.809 1.93,-14.09 5.74,-18.8087 2.53,-3.2422 5.95,-4.8321 10.25,-4.8321 2.64,0 4.98,0.5 7.03,1.5391 4.43,2.1836 8.23,4.7737 11.41,7.7617 3.17,2.988 6.47,6.898 9.98,11.719 3.47,4.84 6.29,10.242 8.44,16.222 h 2.52 c 1.43,0 3.04,-0.121 4.85,-0.351 -3.59,-12.899 -12.46,-25.551 -26.6,-37.9884 -8.87,-7.7032 -18.05,-11.5821 -27.5,-11.5821 -6.35,0 -11.75,2.7891 -16.18,8.3516 -5.86,7.2578 -8.8,17.3089 -8.8,30.1409 0,5.539 0.86,12.168 2.61,19.91 1.73,7.75 3.73,14.219 6.01,19.41 3.59,8.098 7.62,15.719 12.05,22.879 l 13.83,19.41 c 8.99,9.238 14.02,14.32 15.11,15.25 4.19,3.469 8.4,6.09 12.66,7.891 4.25,1.797 8.66,2.668 13.22,2.668 5.86,0 11.01,-2.348 15.44,-7.102 4.44,-4.746 6.66,-10.726 6.66,-17.898 0,-6.371 -1.71,-12.66 -5.12,-18.852 -3.43,-6.199 -7.1,-10.726 -11.06,-13.637 l -14.91,-9.351 c -1.68,-0.84 -6.17,-2.301 -13.49,-4.442 -7.3,-2.148 -16.74,-4.308 -28.22,-6.507" /><path
             id="path94"
             style="fill:#253b7d;fill-opacity:1;fill-rule:nonzero;stroke:none"
             d="m 3067.72,125.801 c 6.22,0.91 11.51,3.109 15.83,6.558 2.02,1.512 5.44,6.161 10.24,13.942 4.79,7.769 8.33,14.781 10.6,21.008 5.27,14.41 7.9,26.242 7.9,35.472 0,6.231 -1.58,11.039 -4.76,14.43 -3.17,3.398 -7.21,5.098 -12.13,5.098 -5.29,0 -10.38,-2.161 -15.27,-6.477 -4.92,-4.32 -10.81,-14.91 -17.7,-31.73 -6.89,-16.84 -10.33,-29.942 -10.33,-39.262 0,-4.86 1.49,-9.07 4.48,-12.641 2.99,-3.57 6.71,-5.711 11.14,-6.398 M 2998.9,23.5586 c 6.7,-5.8867 15.63,-10.168 26.77,-12.8281 1.92,-0.4492 3.71,-0.99222 5.39,-1.53909 2.15,-0.58985 5.81,-1.22266 10.97,-1.92188 7.54,-0.33984 13.95,-0.51953 19.23,-0.51953 10.79,0 21.05,1.67969 30.83,5.0391 9.74,3.3398 16.13,6.8007 19.14,10.3828 2.03,2.3281 3.04,5.3164 3.04,9.0078 0,6.3516 -3.83,12.7305 -11.5,19.082 -5.75,4.6094 -17.44,10.1485 -35.05,16.6172 -7.91,3.0117 -14.37,5.543 -19.4,7.6211 -8.04,-2.5312 -18.46,-7.1484 -31.28,-13.8594 -6.84,-3.5703 -12.03,-6.9414 -15.55,-10.0508 -3.52,-3.121 -5.48,-5.0312 -5.84,-5.7187 -1.43,-2.7617 -2.15,-5.5898 -2.15,-8.5 0,-4.9609 1.8,-9.2227 5.4,-12.8125 M 3041.13,79 c -9.1,7.1719 -14.98,12.3086 -17.61,15.4414 -0.96,1.1367 -1.44,2.4102 -1.44,3.7969 0,1.7422 0.63,3.3127 1.89,4.6837 1.25,1.387 4.31,3.058 9.16,5.027 4.86,1.961 12.78,6.41 23.81,13.34 -1.3,1.621 -4.19,4.66 -8.62,9.172 l -5.76,6.051 c -1.43,2.539 -2.75,5.949 -3.95,10.226 -1.2,4.262 -1.79,8.512 -1.79,12.793 0,6.918 1.14,13.598 3.42,20.059 3.23,9.59 7.2,17.672 11.94,24.32 4.73,6.61 9.56,11.789 14.46,15.481 3.36,2.539 7.44,4.621 12.23,6.23 7.42,2.539 13.71,3.809 18.87,3.809 6.12,0 12.2,-1.45 18.34,-4.328 3.95,-1.852 8.5,-2.793 13.66,-2.793 2.02,0 4.45,0.179 7.28,0.531 2.8,0.359 4.76,0.512 5.83,0.512 0.96,0 2.4,-0.102 4.31,-0.352 0.36,-3.449 0.55,-5.949 0.55,-7.441 0,-1.137 -0.44,-2.379 -1.25,-3.637 -1.93,-0.242 -3.3,-0.34 -4.14,-0.34 -2.77,0 -6.96,0.738 -12.58,2.246 -2.29,0.594 -4.32,1.094 -6.12,1.551 3.35,-7.039 5.03,-14.809 5.03,-23.348 0,-16.722 -5.96,-32.461 -17.89,-47.211 -11.9,-14.769 -25.74,-23.699 -41.41,-26.82 -8.52,-1.621 -15.21,-4.27 -19.95,-7.969 -1.92,-1.39 -2.89,-3.242 -2.89,-5.543 0,-3.816 3.13,-8.0896 9.35,-12.8278 7.68,-3.6914 14.75,-6.9688 21.22,-9.8516 18.34,-6.25 32.17,-13.2266 41.52,-20.957 7.18,-5.8907 10.77,-13.8711 10.77,-23.9414 0,-5.3086 -1.44,-10.1289 -4.31,-14.4688 -2.87,-4.3398 -7.54,-8.4023 -14.02,-12.2226 -4.31,-2.52739 -11.38,-4.86724 -21.12,-7.01958 C 3080.16,1.07031 3070.78,0 3061.79,0 c -16.29,0 -28.11,0.761719 -35.4,2.25 -13.3,2.66016 -23.73,5.87891 -31.27,9.6914 -7.55,3.8281 -13.56,8.6094 -17.98,14.4102 -2.51,3.3398 -3.76,6.75 -3.76,10.2187 0,5.0586 2.46,9.5195 7.35,13.3281 7.08,5.4414 27.21,15.1329 60.4,29.1016" /><path
             id="path96"
             style="fill:#253b7d;fill-opacity:1;fill-rule:nonzero;stroke:none"
             d="m 3202.7,292.5 c 0,4.031 1.61,7.66 4.85,10.82 3.24,3.192 7.02,4.77 11.34,4.77 4.05,0 7.54,-1.371 10.41,-4.149 2.89,-2.793 4.32,-5.953 4.32,-9.543 0,-4.609 -1.79,-8.828 -5.4,-12.648 -2.15,-2.18 -6.1,-3.301 -11.88,-3.301 -3.81,0 -7.04,1.289 -9.69,3.832 -2.63,2.528 -3.95,5.938 -3.95,10.219 m -10.24,-77.82 c -2.51,0 -4.37,-0.168 -5.57,-0.5 -5.64,-2.891 -9.76,-5.371 -12.41,-7.461 -5.39,-4.028 -10.48,-8.77 -15.27,-14.199 l -10.42,-2.258 c 9.23,12.019 19.47,21.429 30.75,28.25 11.27,6.808 20.14,10.218 26.61,10.218 2.75,0 4.83,-0.671 6.21,-1.992 1.37,-1.328 2.06,-3.039 2.06,-5.109 0,-5.68 -3.35,-15.09 -10.05,-28.27 -0.85,-1.621 -2.84,-5.769 -5.95,-12.48 -7.2,-15.129 -14.86,-29.449 -23.03,-42.969 -2.62,-4.379 -5.51,-9.57 -8.62,-15.578 -1.69,-3.23 -3.18,-5.961 -4.5,-8.141 -3.72,-6.019 -5.57,-10.453 -5.57,-13.351 0,-0.809 0.32,-1.5314 0.98,-2.1681 0.65,-0.6328 1.47,-0.9414 2.44,-0.9414 1.3,0 3.31,0.6914 6.01,2.0703 4.51,2.3282 9.87,6.1602 16.1,11.5272 6.24,5.363 11.76,11.524 16.52,18.453 h 7.9 c -3.62,-6.242 -8.98,-13.41 -16.06,-21.48 -7.08,-8.102 -15.13,-14.551 -24.15,-19.4104 -6.77,-3.6992 -12.78,-5.5508 -18.04,-5.5508 -4,0 -6.96,0.7813 -8.83,2.3516 -1.9,1.5586 -2.82,3.5977 -2.82,6.1289 0,8.9097 6.77,25.6597 20.31,50.2617 L 3186,194.77 c 2.99,5.421 5.08,9.699 6.29,12.808 0.72,1.973 1.06,3.313 1.06,3.992 0,0.59 -0.29,1.621 -0.89,3.11" /><path
             id="path98"
             style="fill:#253b7d;fill-opacity:1;fill-rule:nonzero;stroke:none"
             d="m 3275.68,207.59 c -0.24,0.93 -0.57,1.558 -0.99,1.898 -0.42,0.352 -0.93,0.532 -1.54,0.532 -6.22,0 -15.92,-9.469 -29.1,-28.43 -1.33,-0.102 -2.27,-0.168 -2.87,-0.168 -0.73,0 -1.93,0.066 -3.6,0.168 2.51,4.859 6.6,10.969 12.29,18.371 5.69,7.398 11.74,13.539 18.13,18.469 6.43,4.89 12.48,8.57 18.25,11 1.91,0.808 3.64,1.211 5.19,1.211 0.6,0 1.51,-0.051 2.7,-0.18 2.16,-2.07 3.21,-4.199 3.21,-6.391 0,-1.39 -0.12,-2.769 -0.43,-4.16 -0.29,-1.398 -0.93,-3.531 -1.87,-6.41 -3.61,-9.941 -6.24,-16.93 -7.91,-20.98 l -10.24,-25.649 c -2.39,-5.883 -4.72,-12.141 -6.99,-18.723 0.94,1.153 1.77,2.25 2.49,3.293 11.17,15.707 23.2,30.77 36.09,45.149 12.88,14.371 23.52,24 31.91,28.859 5.99,3.563 11.7,5.36 17.1,5.36 4.07,0 7.25,-1.071 9.51,-3.2 2.29,-2.14 3.43,-4.89 3.43,-8.25 0,-2.078 -0.25,-4.097 -0.73,-6.07 -0.84,-4.379 -2.7,-10.508 -5.57,-18.348 -2.88,-7.871 -10.42,-24.902 -22.66,-51.132 l -17.99,-40.008 -0.72,-2.25 c 0,-0.699 0.41,-1.7424 1.25,-3.1291 6.72,1.3867 16.77,11.6561 30.19,30.8401 l 7.37,-0.172 c -3.71,-6.481 -9.82,-14.781 -18.33,-24.949 -6.58,-7.7426 -13.66,-13.7504 -21.21,-18.0199 -4.21,-2.4297 -8.67,-3.6406 -13.47,-3.6406 -2.87,0 -5.03,0.5703 -6.48,1.7383 -1.42,1.1406 -2.14,2.4101 -2.14,3.8203 0,6.1015 3.05,15.5819 9.15,28.3909 l 26.07,54.941 10.06,23.051 c 2.28,5.066 3.66,8.609 4.12,10.558 0.5,1.969 0.74,3.95 0.74,5.899 0,1.492 -0.43,2.691 -1.26,3.551 -0.85,0.859 -1.92,1.3 -3.24,1.3 -1.91,0 -4.13,-0.75 -6.65,-2.25 -8.87,-5.089 -18.65,-13.82 -29.32,-26.16 -15.33,-17.8 -25.54,-30.57 -30.55,-38.3 -12.58,-19.18 -23.56,-38.758 -32.86,-58.7505 -1.44,-3.2382 -3.18,-5.5898 -5.22,-7.0898 -2.51,-0.3477 -4.44,-0.5313 -5.74,-0.5313 -1.57,0 -3.96,0.3008 -7.2,0.8711 -0.48,0.9219 -0.72,1.6602 -0.72,2.25 0,0.9219 0.6,3 1.78,6.2422 2.65,7.5 9.13,23.3283 19.44,47.4683 l 4.12,9.372 23.01,58.738" /><path
             id="path100"
             style="fill:#253b7d;fill-opacity:1;fill-rule:nonzero;stroke:none"
             d="m 3449.26,142.262 c 2.61,15.5 5.08,26.828 7.37,34 6.1,19.648 12.15,43.347 18.15,71.117 6,27.762 10.96,45.461 14.91,53.101 1.69,3.102 3.54,5.27 5.59,6.481 2.03,1.219 4.48,1.828 7.35,1.828 3.71,0 6.72,-0.93 8.99,-2.769 2.29,-1.848 3.42,-3.95 3.42,-6.25 0,-7.29 -3.59,-18.399 -10.79,-33.29 -1.1,-2.449 -4.8,-12.269 -11.14,-29.519 -1.68,-4.731 -4.86,-12.77 -9.53,-24.102 l -12.77,-28.789 -17.24,-41.98 c -1.8,0 -3.23,0.07 -4.31,0.172 m -26.24,-39.684 c 0,4.613 2.01,8.781 6.01,12.481 4.02,3.691 8.42,5.543 13.22,5.543 3.95,0 7.66,-1.762 11.15,-5.282 3.47,-3.539 5.21,-7.73 5.21,-12.57 0,-5.1992 -1.93,-9.7187 -5.76,-13.6016 -3.83,-3.8593 -8.2,-5.8086 -13.11,-5.8086 -4.43,0 -8.22,1.5 -11.34,4.5196 -1.31,1.2617 -2.92,4.6015 -4.85,10.039 -0.34,1.2735 -0.53,2.8316 -0.53,4.6796" /><path
             id="path102"
             style="fill:#253b7d;fill-opacity:1;fill-rule:nonzero;stroke:none"
             d="m 3583.71,221.621 h 2.08 c 6.13,0 10.62,1.141 13.43,3.457 2.82,2.332 4.23,5.231 4.23,8.692 0,3.609 -1.3,6.64 -3.93,9.089 -2.6,2.461 -5.93,3.672 -10,3.672 -1.76,0 -3.7,-0.351 -5.81,-1.07 z m -16.43,27.848 h 26.76 c 6.68,0 11.8,-1.457 15.31,-4.36 3.5,-2.918 5.27,-6.461 5.27,-10.597 0,-3.371 -1.24,-6.352 -3.57,-8.91 -2.39,-2.571 -6.33,-4.551 -11.83,-5.922 l 14.49,-19.918 c 1.75,-2.364 3.33,-4 4.71,-4.891 0.86,-0.531 2.11,-0.859 3.68,-0.992 v -2.207 h -12.75 l -20.38,27.058 h -5.26 v -20.64 c 0.27,-1.461 0.93,-2.531 1.96,-3.219 1.05,-0.652 3.11,-0.992 6.22,-0.992 v -2.207 h -25.45 v 2.207 c 2.32,0 3.93,0.293 4.9,0.871 0.94,0.582 1.61,1.441 2.04,2.602 0.17,0.578 0.28,2.5 0.28,5.726 V 238 c 0,3.289 -0.07,5.219 -0.21,5.809 -0.33,1.011 -0.93,1.8 -1.77,2.351 -0.86,0.559 -2.32,0.852 -4.4,0.852 z m 27.17,14.191 c -7.55,0 -14.88,-1.89 -22.05,-5.621 -7.17,-3.75 -12.75,-9.078 -16.77,-16.008 -4.02,-6.91 -6.03,-14.172 -6.03,-21.679 0,-7.481 1.97,-14.661 5.93,-21.524 3.95,-6.859 9.48,-12.207 16.6,-16.047 7.11,-3.84 14.55,-5.742 22.32,-5.742 7.76,0 15.21,1.902 22.35,5.742 7.14,3.84 12.69,9.188 16.64,16.047 3.95,6.863 5.93,14.043 5.93,21.524 0,7.507 -2.01,14.769 -6.03,21.679 -4.03,6.93 -9.63,12.258 -16.78,16.008 -7.16,3.731 -14.53,5.621 -22.11,5.621 m 0,4.078 c 8.26,0 16.32,-2.058 24.19,-6.129 7.86,-4.078 13.99,-9.918 18.39,-17.507 4.42,-7.59 6.63,-15.52 6.63,-23.75 0,-8.204 -2.18,-16.063 -6.51,-23.602 -4.35,-7.531 -10.43,-13.371 -18.23,-17.539 -7.82,-4.172 -15.97,-6.25 -24.47,-6.25 -8.51,0 -16.65,2.078 -24.44,6.25 -7.78,4.168 -13.85,10.008 -18.2,17.539 -4.36,7.539 -6.53,15.398 -6.53,23.602 0,8.23 2.2,16.16 6.64,23.75 4.41,7.589 10.55,13.429 18.4,17.507 7.85,4.071 15.9,6.129 24.13,6.129" /></g></g></g></g></svg>