<?xml version="1.0" encoding="utf-8"?>
<!-- Generator: Adobe Illustrator 21.1.0, SVG Export Plug-In . SVG Version: 6.00 Build 0)  -->
<svg version="1.1" id="Layer_1" xmlns="http://www.w3.org/2000/svg" xmlns:xlink="http://www.w3.org/1999/xlink" x="0px" y="0px"
	 viewBox="0 0 288 170.5" style="enable-background:new 0 0 288 170.5;" xml:space="preserve">
<style type="text/css">
	.st0{fill:#004785;}
	.st1{fill:none;stroke:#2E3192;stroke-width:4;stroke-miterlimit:10;stroke-dasharray:9,4;}
	.st2{fill:#FFFFFF;}
	.st3{display:none;fill:#004785;}
	.st4{fill:#00AFEF;}
</style>
<g>
	<path class="st0" d="M250.2,124.3v-4h10.1l0.1,3.4l0,0.6L250.2,124.3z M240.1,124.3h-10.1v-4h10.1V124.3z M58.9,124.3H48.9v-4h10.1
		V124.3z M38.8,124.3H28.7v-4h10.1V124.3z M18.1,121.5c-3.2-2-5.7-5.1-7.1-8.6l3.7-1.5c1.1,2.7,3,5.1,5.5,6.7L18.1,121.5z
		 M270.9,120.8l-2.4-3.2c2.4-1.7,4.2-4.2,5.1-7l3.8,1.2C276.3,115.4,274,118.6,270.9,120.8z M13.8,102.3h-4V92.2h4V102.3z
		 M278.2,101.2h-4V91.1h4V101.2z M13.8,82.1h-4V72.1h4V82.1z M278.2,81.1h-4V71h4V81.1z M13.8,62h-4V51.9h4V62z M278.2,60.9h-4V50.9
		h4V60.9z M13.8,41.9h-4V31.8h4V41.9z M278.2,40.8h-4V30.7h4V40.8z M14.4,22.4l-3.8-1.2c1.1-3.6,3.5-6.8,6.5-9l2.4,3.2
		C17.1,17.2,15.3,19.7,14.4,22.4z M273.3,21.6c-1.1-2.7-3-5.1-5.5-6.7l2.1-3.4c3.2,2,5.7,5.1,7.1,8.6L273.3,21.6z M259.2,12.7h-10.1
		v-4h10.1V12.7z M239.1,12.7H229v-4h10.1V12.7z M219,12.7h-10.1v-4H219V12.7z M198.8,12.7h-10.1v-4h10.1V12.7z M178.7,12.7h-10.1v-4
		h10.1V12.7z M158.6,12.7h-10.1v-4h10.1V12.7z M138.4,12.7h-10.1v-4h10.1V12.7z M118.3,12.7h-10.1v-4h10.1V12.7z M98.2,12.7H88.1v-4
		h10.1V12.7z M78,12.7H68v-4H78V12.7z M57.9,12.7H47.8v-4h10.1V12.7z M37.8,12.7h-10l0-4h10.1V12.7z"/>
</g>
<g>
	<path class="st0" d="M13.6,145.2h5.1c3.1,0,5.1,1.7,5.1,4.5v0c0,3-2.5,4.6-5.4,4.6h-3.3v5h-1.5V145.2z M18.5,152.9
		c2.3,0,3.8-1.2,3.8-3.1v0c0-2-1.5-3.1-3.7-3.1h-3.5v6.2H18.5z"/>
	<path class="st0" d="M25.6,154.1L25.6,154.1c0-3,2.2-5.5,5.3-5.5c3,0,5.3,2.5,5.3,5.4v0c0,2.9-2.2,5.4-5.3,5.4
		C27.8,159.5,25.6,157.1,25.6,154.1z M34.6,154.1L34.6,154.1c0-2.3-1.6-4.1-3.8-4.1c-2.2,0-3.7,1.8-3.7,4v0c0,2.2,1.6,4,3.7,4
		C33.1,158.1,34.6,156.3,34.6,154.1z"/>
	<path class="st0" d="M37.5,148.9h1.6l2.7,8.3l2.7-8.4h1.3l2.7,8.4l2.7-8.3h1.6l-3.6,10.5h-1.3l-2.7-8.2l-2.7,8.2h-1.3L37.5,148.9z"
		/>
	<path class="st0" d="M59.2,158.2c1.4,0,2.4-0.6,3.2-1.5l0.9,0.9c-1,1.2-2.2,2-4.2,2c-2.8,0-5-2.2-5-5.4c0-3,2.1-5.4,4.8-5.4
		c3,0,4.7,2.5,4.7,5.5c0,0.1,0,0.3,0,0.5h-8C55.8,156.9,57.4,158.2,59.2,158.2z M62.1,153.5c-0.2-1.9-1.2-3.5-3.2-3.5
		c-1.7,0-3.1,1.5-3.3,3.5H62.1z"/>
	<path class="st0" d="M66.3,148.9h1.5v2.7c0.7-1.7,2.2-3,4.1-2.9v1.7h-0.1c-2.2,0-4,1.6-4,4.8v4.1h-1.5V148.9z"/>
	<path class="st0" d="M78.2,158.2c1.4,0,2.4-0.6,3.2-1.5l0.9,0.9c-1,1.2-2.2,2-4.2,2c-2.8,0-5-2.2-5-5.4c0-3,2.1-5.4,4.8-5.4
		c3,0,4.7,2.5,4.7,5.5c0,0.1,0,0.3,0,0.5h-8C74.9,156.9,76.4,158.2,78.2,158.2z M81.2,153.5c-0.2-1.9-1.2-3.5-3.2-3.5
		c-1.7,0-3.1,1.5-3.3,3.5H81.2z"/>
	<path class="st0" d="M84.7,154.1L84.7,154.1c0-3.4,2.4-5.4,4.8-5.4c1.9,0,3.1,1,3.9,2.2v-6.3h1.5v14.7h-1.5v-2.1
		c-0.8,1.2-2,2.3-3.9,2.3C87.1,159.5,84.7,157.5,84.7,154.1z M93.5,154.1L93.5,154.1c0-2.4-1.8-4-3.7-4c-2,0-3.6,1.5-3.6,4v0
		c0,2.5,1.6,4,3.6,4C91.7,158.1,93.5,156.5,93.5,154.1z"/>
	<path class="st0" d="M105.7,157.3v2h-1.5v-14.7h1.5v6.4c0.8-1.2,2-2.3,3.9-2.3c2.4,0,4.8,2,4.8,5.4v0c0,3.4-2.4,5.4-4.8,5.4
		C107.6,159.5,106.4,158.5,105.7,157.3z M112.8,154.1L112.8,154.1c0-2.5-1.6-4.1-3.6-4.1c-1.9,0-3.7,1.6-3.7,4v0c0,2.4,1.8,4,3.7,4
		C111.2,158.1,112.8,156.6,112.8,154.1z"/>
	<path class="st0" d="M116,162l0.5-1.2c0.5,0.3,0.9,0.4,1.6,0.4c0.9,0,1.5-0.5,2.1-2l-4.6-10.4h1.7l3.7,8.7l3.2-8.7h1.6l-4.2,10.7
		c-0.9,2.2-1.8,2.9-3.4,2.9C117.4,162.6,116.7,162.4,116,162z"/>
	<path class="st0" d="M134.3,145.2h5.8c1.6,0,2.8,0.5,3.6,1.2c0.6,0.6,0.9,1.3,0.9,2.3v0c0,1.8-1.1,2.8-2.2,3.3
		c1.6,0.5,2.9,1.5,2.9,3.4v0c0,2.4-2,3.8-5,3.8h-6.1V145.2z M139.9,151.5c1.9,0,3.1-0.9,3.1-2.5v0c0-1.4-1.1-2.3-3-2.3h-4.2v4.8
		H139.9z M140.4,157.9c2.1,0,3.4-0.9,3.4-2.5v0c0-1.5-1.3-2.4-3.6-2.4h-4.3v5H140.4z"/>
	<path class="st0" d="M148.1,148.9h1.5v2.7c0.7-1.7,2.2-3,4.1-2.9v1.7h-0.1c-2.2,0-4,1.6-4,4.8v4.1h-1.5V148.9z"/>
	<path class="st0" d="M154.8,156.3L154.8,156.3c0-2.3,1.8-3.4,4.3-3.4c1.3,0,2.2,0.2,3.1,0.4V153c0-1.9-1.1-2.8-3-2.8
		c-1.2,0-2.1,0.3-3.1,0.7l-0.4-1.3c1.1-0.5,2.2-0.9,3.7-0.9c1.4,0,2.5,0.4,3.3,1.1c0.7,0.7,1.1,1.7,1.1,3.1v6.4h-1.5v-1.5
		c-0.7,0.9-1.9,1.8-3.6,1.8C156.7,159.5,154.8,158.4,154.8,156.3z M162.2,155.5v-1c-0.7-0.2-1.7-0.4-2.9-0.4c-1.9,0-2.9,0.8-2.9,2.1
		v0c0,1.3,1.2,2.1,2.5,2.1C160.7,158.3,162.2,157.1,162.2,155.5z"/>
	<path class="st0" d="M166.9,148.9h1.5v1.8c0.7-1.1,1.7-2,3.5-2c2.4,0,3.9,1.7,3.9,4.2v6.5h-1.5v-6.1c0-1.9-1-3.1-2.8-3.1
		c-1.7,0-3,1.3-3,3.3v6h-1.5V148.9z"/>
	<path class="st0" d="M178.3,154.1L178.3,154.1c0-3.4,2.4-5.4,4.8-5.4c1.9,0,3.1,1,3.9,2.2v-6.3h1.5v14.7H187v-2.1
		c-0.8,1.2-2,2.3-3.9,2.3C180.7,159.5,178.3,157.5,178.3,154.1z M187.1,154.1L187.1,154.1c0-2.4-1.8-4-3.7-4c-2,0-3.6,1.5-3.6,4v0
		c0,2.5,1.6,4,3.6,4C185.3,158.1,187.1,156.5,187.1,154.1z"/>
	<path class="st0" d="M198.1,145.2h1.5v14.1h-1.5V145.2z"/>
	<path class="st0" d="M203.4,148.9h1.5v1.8c0.7-1.1,1.7-2,3.5-2c2.4,0,3.9,1.7,3.9,4.2v6.5h-1.5v-6.1c0-1.9-1-3.1-2.8-3.1
		c-1.7,0-3,1.3-3,3.3v6h-1.5V148.9z"/>
	<path class="st0" d="M214.6,158l0.8-1.1c1.1,0.8,2.3,1.3,3.5,1.3c1.2,0,2.1-0.6,2.1-1.6v0c0-1-1.2-1.4-2.5-1.8
		c-1.6-0.5-3.3-1-3.3-2.9v0c0-1.8,1.4-3,3.4-3c1.2,0,2.6,0.4,3.6,1.1l-0.7,1.2c-0.9-0.6-2-1-3-1c-1.2,0-2,0.6-2,1.5v0
		c0,1,1.3,1.4,2.6,1.8c1.6,0.5,3.2,1.1,3.2,3v0c0,2-1.6,3.1-3.6,3.1C217.3,159.5,215.7,158.9,214.6,158z"/>
	<path class="st0" d="M225.5,156.5v-6.3h-1.4v-1.4h1.4v-3.1h1.5v3.1h3.2v1.4H227v6.1c0,1.3,0.7,1.7,1.7,1.7c0.5,0,0.9-0.1,1.5-0.4
		v1.3c-0.5,0.3-1.1,0.4-1.8,0.4C226.7,159.5,225.5,158.6,225.5,156.5z"/>
	<path class="st0" d="M232.9,144.9h1.7v1.7h-1.7V144.9z M233,148.9h1.5v10.4H233V148.9z"/>
	<path class="st0" d="M238.5,156.5v-6.3h-1.4v-1.4h1.4v-3.1h1.5v3.1h3.2v1.4H240v6.1c0,1.3,0.7,1.7,1.7,1.7c0.5,0,0.9-0.1,1.5-0.4
		v1.3c-0.5,0.3-1.1,0.4-1.8,0.4C239.7,159.5,238.5,158.6,238.5,156.5z"/>
	<path class="st0" d="M245.7,155.3v-6.5h1.5v6.1c0,1.9,1,3.1,2.8,3.1c1.7,0,3-1.3,3-3.3v-6h1.5v10.4h-1.5v-1.8c-0.7,1.1-1.7,2-3.5,2
		C247.2,159.5,245.7,157.8,245.7,155.3z"/>
	<path class="st0" d="M258.4,156.5v-6.3H257v-1.4h1.4v-3.1h1.5v3.1h3.2v1.4h-3.2v6.1c0,1.3,0.7,1.7,1.7,1.7c0.5,0,0.9-0.1,1.5-0.4
		v1.3c-0.5,0.3-1.1,0.4-1.8,0.4C259.7,159.5,258.4,158.6,258.4,156.5z"/>
	<path class="st0" d="M270,158.2c1.4,0,2.4-0.6,3.2-1.5l0.9,0.9c-1,1.2-2.2,2-4.2,2c-2.8,0-5-2.2-5-5.4c0-3,2.1-5.4,4.8-5.4
		c3,0,4.7,2.5,4.7,5.5c0,0.1,0,0.3,0,0.5h-8C266.6,156.9,268.2,158.2,270,158.2z M272.9,153.5c-0.2-1.9-1.2-3.5-3.2-3.5
		c-1.7,0-3.1,1.5-3.3,3.5H272.9z"/>
</g>
<path class="st3" d="M253.4,118c0,0.9,0,1.8,0,2.8c0,0.8,0.2,1.1,1.1,1.1c2.4,0,4.7,0,7.1,0c2.6-0.1,5.2-0.6,7.6-2
	c-0.6-1.2-1.2-2.3-1.9-3.4C262.9,118.8,258.2,117.5,253.4,118z M34.5,118c-4.8-0.5-9.5,0.8-13.9-1.6c-0.6,1.2-1.2,2.3-1.9,3.5
	c0.8,0.3,1.4,0.7,2.1,0.9c4.3,1.6,8.7,0.9,13.1,1c0.2,0,0.5-0.4,0.5-0.6C34.6,120.1,34.5,119.1,34.5,118z M149.1,6.3
	c-3.7,0-7.4,0-11,0c0,1.3,0,2.4,0,3.6c3.7,0,7.4,0,11,0C149.1,8.7,149.1,7.6,149.1,6.3z M156.4,10c3.3,0,6.4,0,9.5,0
	c0-1.3,0-2.5,0-3.7c-3.2,0-6.3,0-9.5,0C156.4,7.6,156.4,8.7,156.4,10z M274.1,64.8c1.1,0,2.2,0,3.3,0c0.2,0,0.6-0.4,0.6-0.7
	c0-2.2,0.1-4.3,0-6.5c0-0.3-0.4-0.7-0.6-0.7c-1.1-0.1-2.1,0-3.2,0C274.1,59.6,274.1,62.1,274.1,64.8z M13.9,64.8c0-2.7,0-5.2,0-8
	c-1.1,0-2.2,0-3.2,0c-0.2,0-0.6,0.5-0.6,0.8C10,59.8,10,61.9,10,64c0,0.3,0.4,0.8,0.6,0.8C11.7,64.9,12.8,64.8,13.9,64.8z
	 M237.5,117.9c0,1.3,0,2.5,0,3.8c2.6,0,5.2,0,7.7,0c0-1.3,0-2.6,0-3.8C242.7,117.9,240.1,117.9,237.5,117.9z M42.7,117.9
	c0,1.3,0,2.5,0,3.8c2.6,0,5.1,0,7.7,0c0-1.3,0-2.6,0-3.8C47.8,117.9,45.3,117.9,42.7,117.9z M274.1,32.7c1.1,0,2,0,3,0
	c0.8,0,1-0.3,0.9-1c0-1.6,0-3.1,0-4.7c0-0.7,0-1.5,0-2.2c-1.5,0-2.7,0-3.9,0C274.1,27.5,274.1,30,274.1,32.7z M10,24.8
	c0,2.5,0,4.9,0,7.2c0,0.2,0.3,0.6,0.5,0.6c1.1,0.1,2.2,0,3.3,0c0-2.7,0-5.3,0-7.9C12.6,24.8,11.4,24.8,10,24.8z M10.1,48.7
	c1.3,0,2.6,0,3.8,0c0-2.6,0-5.2,0-7.8c-1.3,0-2.5,0-3.8,0C10.1,43.5,10.1,46.1,10.1,48.7z M277.9,48.7c0-2.6,0-5.2,0-7.8
	c-1.3,0-2.5,0-3.8,0c0,2.7,0,5.2,0,7.8C275.5,48.7,276.6,48.7,277.9,48.7z M13.9,80.8c0-2.7,0-5.2,0-7.8c-1.3,0-2.5,0-3.8,0
	c0,2.6,0,5.2,0,7.8C11.4,80.8,12.6,80.8,13.9,80.8z M277.9,80.8c0-2.7,0-5.2,0-7.8c-1.3,0-2.5,0-3.8,0c0,2.6,0,5.2,0,7.8
	C275.4,80.8,276.6,80.8,277.9,80.8z M10.1,96.8c1.3,0,2.5,0,3.8,0c0-2.6,0-5.2,0-7.8c-1.3,0-2.5,0-3.8,0
	C10.1,91.7,10.1,94.2,10.1,96.8z M274.2,89c0,2.6,0,5.2,0,7.8c1.3,0,2.5,0,3.8,0c0-2.6,0-5.2,0-7.8C276.6,89,275.4,89,274.2,89z
	 M19.2,12.2c-0.6-0.9-1.3-1.9-2.1-3c-2.6,1.8-4.4,4-5.6,6.9c1.2,0.5,2.4,1,3.3,1.4C16.2,15.7,17.6,14,19.2,12.2z M276.6,16.1
	c-1.4-2.9-3.1-5.1-5.7-6.9c-0.8,1.1-1.5,2.1-2.1,2.9c1.5,1.8,2.9,3.6,4.4,5.4C274.2,17.1,275.3,16.6,276.6,16.1z M275.7,113.5
	c1.3-1.7,2.6-6.2,2.3-7.9c0-0.2-0.4-0.5-0.6-0.5c-1.1-0.1-2.1,0-3,0c-0.6,2.3-1.2,4.5-1.8,6.8c0.7,0.4,1.6,0.9,2.4,1.4
	C275.3,113.3,275.5,113.4,275.7,113.5z M13.6,105c-0.3,0-0.8,0-1.3,0c-2.3,0-2.3,0-2.1,2.3c0.2,2.2,0.9,4.3,2.1,6.3
	c1.2-0.7,2.2-1.3,3.1-1.8C14.8,109.4,14.2,107.3,13.6,105z M198.1,6.4c-2.7,0-5.3,0-7.8,0c0,1.3,0,2.5,0,3.6c2.7,0,5.2,0,7.8,0
	C198.1,8.7,198.1,7.5,198.1,6.4z M246.2,6.4c-2.8,0-5.4,0-7.9,0c0,1.3,0,2.5,0,3.7c2.5,0,4.9,0,7.3,0c0.2,0,0.6-0.4,0.6-0.6
	C246.3,8.4,246.2,7.4,246.2,6.4z M41.8,6.3c0,1.3,0,2.5,0,3.7c2.7,0,5.2,0,7.9,0c0-1.3,0-2.4,0-3.7C47.1,6.3,44.5,6.3,41.8,6.3z
	 M97.8,10c0-1.3,0-2.5,0-3.7c-2.7,0-5.2,0-7.9,0c0,1.3,0,2.4,0,3.7C92.6,10,95.2,10,97.8,10z M33.6,6.3c-2.7,0-5.3,0-7.9,0
	c0.1,1.3,0.1,2.5,0.2,3.7c2.7,0,5.2,0,7.8,0C33.6,8.7,33.6,7.6,33.6,6.3z M254.4,10.1c2.7,0,5.2,0,7.8,0c0-1.3,0-2.5,0-3.7
	c-2.6,0-5.2,0-7.8,0C254.4,7.6,254.4,8.7,254.4,10.1z M122.1,10c2.7,0,5.2,0,7.7,0c0-1.3,0-2.5,0-3.6c-2.6,0-5.2,0-7.7,0
	C122.1,7.6,122.1,8.8,122.1,10z M106,10.1c2.5,0,4.8,0,7.2,0c0.2,0,0.6-0.4,0.6-0.6c0.1-1,0-2,0-3.1c-2.7,0-5.3,0-7.8,0
	C106,7.6,106,8.8,106,10.1z M174.2,6.3c0,1.1,0,2.1,0,3c0,0.3,0.3,0.7,0.5,0.7c2.4,0,4.8,0,7.3,0c0-1.4,0-2.5,0-3.8
	C179.4,6.3,176.9,6.3,174.2,6.3z M214,6.3c-2.7,0-5.2,0-7.7,0c0,1.2,0,2.4,0,3.7c2.6,0,5.1,0,7.7,0C214,8.8,214,7.6,214,6.3z
	 M74,6.3c0,1.3,0,2.5,0,3.7c2.6,0,5.2,0,7.7,0c0-1.3,0-2.4,0-3.7C79.1,6.3,76.6,6.3,74,6.3z M57.9,10.1c2.4,0,4.8,0,7.2,0
	c0.2,0,0.6-0.3,0.6-0.5c0.1-1.1,0-2.1,0-3.2c-2.7,0-5.2,0-7.8,0C57.9,7.6,57.9,8.8,57.9,10.1z M222.4,10c2.6,0,5.2,0,7.7,0
	c0-1.3,0-2.5,0-3.6c-2.6,0-5.2,0-7.7,0C222.4,7.6,222.4,8.8,222.4,10z M224.5,117.9c0,1.3,0,2.5,0,3.9c1.4,0,2.8,0,4.1,0
	c0.2,0,0.6-0.3,0.6-0.5c0.1-1.1,0-2.2,0-3.3C227.6,117.9,226.1,117.9,224.5,117.9z M63.5,118c-1.6,0-3.1,0-4.7,0c0,1.3,0,2.5,0,3.8
	c1.6,0,3.1,0,4.7,0C63.5,120.5,63.5,119.2,63.5,118z"/>
<g>
	<g>
		<path class="st2" d="M280.5,136.5c1.9,0,1.9-3,0-3C278.6,133.5,278.6,136.5,280.5,136.5L280.5,136.5z"/>
	</g>
</g>
<g>
	<path class="st0" d="M40.2,33h10.4l24,31.5V33h11.1v51.2h-9.6L51.3,51.7v32.5H40.2V33z"/>
	<path class="st0" d="M113.1,34h10.1l21.4,50.2h-11.5L128.6,73h-21.1L103,84.2H91.8L113.1,34z M124.7,63.3l-6.6-16.2l-6.6,16.2
		H124.7z"/>
	<path class="st0" d="M150.9,34.4h11.8l13.1,21.1l13.1-21.1h11.8v49.8h-10.9V51.7l-14,21.3h-0.3l-13.9-21.1v32.3h-10.8V34.4z"/>
	<path class="st0" d="M209.9,34.4h37.6v9.8h-26.7v10.1h23.5V64h-23.5v10.5h27.1v9.8h-38V34.4z"/>
	<path class="st4" d="M72,99.9h12.7c7.7,0,13,3.9,13,10.7v0.1c0,7.3-6.3,11.1-13.6,11.1h-9.4v13H72V99.9z M84.2,119.5
		c6.5,0,10.9-3.4,10.9-8.6v-0.1c0-5.5-4.3-8.4-10.6-8.4h-9.9v17.1H84.2z"/>
	<path class="st4" d="M118.1,99.7h2.5l16.3,35.2H134l-4.4-9.8h-20.6l-4.4,9.8h-2.7L118.1,99.7z M128.5,122.8l-9.2-20.2l-9.2,20.2
		H128.5z"/>
	<path class="st4" d="M144.6,117.5L144.6,117.5c0-9.5,6.8-18.2,17.3-18.2c5.7,0,9.3,1.7,12.8,4.6l-1.7,1.9
		c-2.7-2.4-5.9-4.2-11.2-4.2c-8.5,0-14.4,7.2-14.4,15.6v0.1c0,9,5.6,15.8,15,15.8c4.4,0,8.6-1.8,11.1-4v-10h-11.7v-2.4h14.2v13.5
		c-3.1,2.8-8,5.2-13.7,5.2C151.1,135.5,144.6,127.4,144.6,117.5z"/>
	<path class="st4" d="M189.5,98.6h25.8v2.5h-23.1v14.3H213v2.5h-20.8v14.6h23.4v2.5h-26.1V98.6z"/>
</g>
</svg>
