<svg id="Layer_1" data-name="Layer 1" xmlns="http://www.w3.org/2000/svg" viewBox="0 0 458.4 92.87"><defs><style>.cls-1{fill:#283e90;}.cls-2{fill:#f08025;}.cls-3{fill:#0033a1;}</style></defs><path class="cls-1" d="M273,294.88h19.84c5.5,0,8.17,1.49,8.17,5.9,0,3.85-1.4,4.59-3.32,5.15v.1c3,.37,4.13,2,4.13,5.37,0,4.93-2.92,6-6.87,6H273Zm6.9,8.91h12.2c1.27,0,2-.47,2-1.74s-.75-1.77-2-1.77h-12.2Zm0,8.17H292.2c1.49,0,2.49-.34,2.49-1.65,0-1.52-1-1.86-2.49-1.86H279.85Z" transform="translate(-162.6 -259.37)"/><path class="cls-1" d="M305.92,294.88h20.81c5.31,0,6.73,2.64,6.73,6.67V303c0,3-.68,4.78-3.85,5.53v.06c2.05.37,3.76,1.27,3.76,5v3.82h-6.89v-2.7c0-2.36-.69-3.14-2.83-3.14H312.82v5.84h-6.9Zm6.9,11.05h11.39c1.86,0,2.55-.74,2.55-2.36v-.74c0-2-1-2.36-3.17-2.36H312.82Z" transform="translate(-162.6 -259.37)"/><path class="cls-1" d="M348.08,294.88h9l12.35,22.48h-7.67l-2.14-4h-14l-2,4h-7.7Zm.13,13.66H357l-4.47-8.45Z" transform="translate(-162.6 -259.37)"/><path class="cls-1" d="M371.86,294.88h10.68l12.95,16.33h.06V294.88h6.9v22.48H391.76L378.81,301h-.06v16.33h-6.89Z" transform="translate(-162.6 -259.37)"/><path class="cls-1" d="M407.34,294.88h20.81c6.89,0,9.31,2.26,9.31,7.82v6.83c0,5.56-2.42,7.83-9.31,7.83H407.34Zm6.9,16.7h12.23c2.95,0,4.1-.83,4.1-4V304.5c0-3.19-1.15-4-4.1-4H414.24Z" transform="translate(-162.6 -259.37)"/><path class="cls-1" d="M444.79,294.88h10.59l7.79,14.47L471,294.88h10.59v22.48h-6.7V301.21h-.07l-9,16.15h-5.16l-9-16.15h-.07v16.15h-6.7Z" transform="translate(-162.6 -259.37)"/><path class="cls-1" d="M496.17,294.88h9l12.36,22.48h-7.67l-2.14-4h-14l-2,4H484Zm.12,13.66h8.82l-4.47-8.45Z" transform="translate(-162.6 -259.37)"/><path class="cls-1" d="M516,294.88h26.27v5.59h-9.69v16.89h-6.89V300.47H516Z" transform="translate(-162.6 -259.37)"/><path class="cls-1" d="M545.28,294.88h20.8c5.31,0,6.74,2.64,6.74,6.67V303c0,3-.68,4.78-3.85,5.53v.06c2,.37,3.76,1.27,3.76,5v3.82h-6.9v-2.7c0-2.36-.68-3.14-2.82-3.14H552.17v5.84h-6.89Zm6.89,11.05h11.4c1.86,0,2.54-.74,2.54-2.36v-.74c0-2-1-2.36-3.16-2.36H552.17Z" transform="translate(-162.6 -259.37)"/><path class="cls-1" d="M577.84,294.88h6.9v22.48h-6.9Z" transform="translate(-162.6 -259.37)"/><path class="cls-1" d="M598.68,306.09l-10.25-11.21h8.91l7,7.85,7-7.85h8.92L610,306.09l11,11.27h-9.25l-7.42-8.17-7.42,8.17h-9.26Z" transform="translate(-162.6 -259.37)"/><path class="cls-1" d="M249,288.58l-24.54,10,23.78-11.7a.93.93,0,0,1,1.25.42.92.92,0,0,1-.43,1.25Z" transform="translate(-162.6 -259.37)"/><path class="cls-2" d="M226.37,306.26a18.92,18.92,0,1,0-9.28,25.11A18.95,18.95,0,0,0,226.37,306.26Z" transform="translate(-162.6 -259.37)"/><path class="cls-1" d="M254.92,339.1a.38.38,0,0,1,0-.1,1.55,1.55,0,0,0,.07-.31s0,0,0-.05,0-.07,0-.1a1,1,0,0,0,0-.17l-5-50.79a0,0,0,0,1,0,0,1,1,0,0,0,0-.17s0-.08,0-.11a.66.66,0,0,0-.09-.19l0-.08a1.33,1.33,0,0,0-.14-.19l0-.05a2.09,2.09,0,0,0-.22-.2l-36-26.91a1.33,1.33,0,0,0-.37-.2l-.13,0a1.51,1.51,0,0,0-.28-.05h-.15l-.27,0-.16.06-.17.05-.06.05-.06,0-42.44,26.75-.06.05-.11.09-.1.1a.52.52,0,0,0-.1.11,1,1,0,0,0-.08.11s0,.08-.07.13a.61.61,0,0,0-.05.12.69.69,0,0,0,0,.13l0,.15a.64.64,0,0,1,0,.07l-6.08,50.42a.67.67,0,0,0,0,.2v0h0a1.77,1.77,0,0,0,.08.4l0,.06a1.41,1.41,0,0,0,.19.34l0,.05a1.19,1.19,0,0,0,.28.27l0,0a1.5,1.5,0,0,0,.38.19l42.1,12.77a1.23,1.23,0,0,0,.42.07h0a1.32,1.32,0,0,0,.34,0L254,339.93l0,0a1.33,1.33,0,0,0,.21-.09l.2-.1,0,0a1,1,0,0,0,.21-.2l.06-.05A1.86,1.86,0,0,0,254.92,339.1ZM207.07,349l-.15-13.93L205.41,349l-36.85-11.18L212.39,321l36.87,17.11Zm40.12-60.52,4.69,47.6-38-17.62.12-54.76Zm-75.77.7,22.29,10.46L172.5,287.82l38.61-24.35L211,318.42,165.8,335.76Z" transform="translate(-162.6 -259.37)"/><path class="cls-3" d="M445.2,326.31a13.68,13.68,0,0,1,2.62-.22,4.39,4.39,0,0,1,3,.87,2.87,2.87,0,0,1,.94,2.2,3.06,3.06,0,0,1-.84,2.26,4.36,4.36,0,0,1-3.23,1.16,5.32,5.32,0,0,1-1.1-.09v4.25H445.2Zm1.36,5.06a4.58,4.58,0,0,0,1.14.11c1.64,0,2.65-.8,2.65-2.24s-1-2.07-2.5-2.07a6,6,0,0,0-1.29.11Z" transform="translate(-162.6 -259.37)"/><path class="cls-3" d="M456.2,336.91a3.62,3.62,0,0,1-3.64-3.91,3.71,3.71,0,0,1,3.76-4,3.6,3.6,0,0,1,3.66,3.89,3.72,3.72,0,0,1-3.77,4.05Zm.06-1c1.32,0,2.31-1.24,2.31-3,0-1.29-.65-2.9-2.28-2.9S454,331.51,454,333c0,1.66.94,2.92,2.28,2.92Z" transform="translate(-162.6 -259.37)"/><path class="cls-3" d="M462.16,329.15l1,3.84c.21.84.41,1.65.55,2.43h0c.17-.77.42-1.59.67-2.42l1.24-3.85h1.16l1.18,3.79c.28.89.5,1.71.67,2.48h.05a23.83,23.83,0,0,1,.58-2.46l1.08-3.81h1.37l-2.45,7.59h-1.25l-1.16-3.63a25.73,25.73,0,0,1-.68-2.51h0a22.74,22.74,0,0,1-.69,2.53l-1.23,3.61H463l-2.29-7.59Z" transform="translate(-162.6 -259.37)"/><path class="cls-3" d="M473.79,333.19a2.42,2.42,0,0,0,2.59,2.62,4.91,4.91,0,0,0,2.1-.39l.25,1a6.2,6.2,0,0,1-2.54.48,3.54,3.54,0,0,1-3.73-3.82c0-2.29,1.36-4.1,3.57-4.1,2.48,0,3.12,2.18,3.12,3.58a3.53,3.53,0,0,1,0,.64Zm4-1a2,2,0,0,0-1.9-2.24,2.28,2.28,0,0,0-2.12,2.24Z" transform="translate(-162.6 -259.37)"/><path class="cls-3" d="M480.87,331.51c0-.89,0-1.66-.07-2.36H482l.06,1.49h.05a2.31,2.31,0,0,1,2.12-1.67c.14,0,.25,0,.38,0v1.31a3.32,3.32,0,0,0-.48,0,1.94,1.94,0,0,0-1.85,1.76,4.58,4.58,0,0,0,0,.64v4.07h-1.38Z" transform="translate(-162.6 -259.37)"/><path class="cls-3" d="M486.62,333.19a2.42,2.42,0,0,0,2.59,2.62,4.91,4.91,0,0,0,2.1-.39l.26,1a6.24,6.24,0,0,1-2.54.48,3.54,3.54,0,0,1-3.74-3.82c0-2.29,1.37-4.1,3.58-4.1,2.48,0,3.12,2.18,3.12,3.58a3.36,3.36,0,0,1-.05.64Zm4-1a2,2,0,0,0-1.9-2.24,2.28,2.28,0,0,0-2.12,2.24Z" transform="translate(-162.6 -259.37)"/><path class="cls-3" d="M500.26,325.6v9.18c0,.67,0,1.44.06,2h-1.24l-.06-1.32h0a2.8,2.8,0,0,1-2.58,1.49c-1.83,0-3.26-1.55-3.26-3.86,0-2.54,1.57-4.08,3.41-4.08a2.53,2.53,0,0,1,2.29,1.15h0V325.6Zm-1.38,6.64a2.46,2.46,0,0,0-.07-.6,2,2,0,0,0-2-1.59c-1.43,0-2.27,1.26-2.27,2.92s.77,2.83,2.24,2.83a2.08,2.08,0,0,0,2-1.67,2,2,0,0,0,.07-.58Z" transform="translate(-162.6 -259.37)"/><path class="cls-3" d="M505.88,325.6h1.38v4.75h0a2.83,2.83,0,0,1,2.59-1.38c1.88,0,3.2,1.57,3.2,3.86,0,2.73-1.73,4.08-3.42,4.08a2.71,2.71,0,0,1-2.54-1.43h0l-.08,1.26h-1.2c.05-.52.07-1.29.07-2Zm1.38,8.09a2.78,2.78,0,0,0,0,.51,2.16,2.16,0,0,0,2.08,1.61c1.45,0,2.3-1.17,2.3-2.92,0-1.53-.78-2.84-2.26-2.84a2.18,2.18,0,0,0-2.08,1.7,2,2,0,0,0-.08.58Z" transform="translate(-162.6 -259.37)"/><path class="cls-3" d="M515.2,329.15l1.65,4.48c.18.5.37,1.1.5,1.55h0c.14-.45.3-1,.49-1.58l1.5-4.45h1.46l-2.07,5.41c-1,2.6-1.66,3.92-2.61,4.75a3.86,3.86,0,0,1-1.69.88l-.34-1.15a3.67,3.67,0,0,0,1.2-.67,4.32,4.32,0,0,0,1.16-1.54.84.84,0,0,0,.11-.33.91.91,0,0,0-.11-.36l-2.79-7Z" transform="translate(-162.6 -259.37)"/><path class="cls-3" d="M525.46,326.32a12.16,12.16,0,0,1,2.5-.23,4.24,4.24,0,0,1,2.88.77,2.2,2.2,0,0,1,.89,1.86A2.49,2.49,0,0,1,530,331v0a2.7,2.7,0,0,1,2.18,2.64,2.77,2.77,0,0,1-.91,2.11,5.22,5.22,0,0,1-3.64,1,16.8,16.8,0,0,1-2.12-.12Zm1.36,4.33h1.24c1.43,0,2.28-.77,2.28-1.79,0-1.22-.93-1.72-2.31-1.72a5.82,5.82,0,0,0-1.21.09Zm0,5.05a7.22,7.22,0,0,0,1.15.06c1.41,0,2.71-.51,2.71-2.05s-1.23-2-2.72-2h-1.14Z" transform="translate(-162.6 -259.37)"/><path class="cls-3" d="M533.92,331.51c0-.89,0-1.66-.07-2.36h1.21l.06,1.49h0a2.31,2.31,0,0,1,2.12-1.67c.14,0,.25,0,.38,0v1.31a3.17,3.17,0,0,0-.47,0,1.94,1.94,0,0,0-1.86,1.76,4.58,4.58,0,0,0,0,.64v4.07h-1.38Z" transform="translate(-162.6 -259.37)"/><path class="cls-3" d="M544.32,334.92a12.53,12.53,0,0,0,.11,1.82h-1.24l-.13-1h0a2.8,2.8,0,0,1-2.32,1.13,2.17,2.17,0,0,1-2.33-2.18c0-1.84,1.64-2.84,4.57-2.82v-.16a1.56,1.56,0,0,0-1.73-1.76,3.66,3.66,0,0,0-2,.57l-.31-.93a4.94,4.94,0,0,1,2.51-.66c2.33,0,2.9,1.59,2.9,3.11ZM543,332.86c-1.51,0-3.22.24-3.22,1.71a1.21,1.21,0,0,0,1.29,1.32,1.93,1.93,0,0,0,1.87-1.27,1.67,1.67,0,0,0,.06-.44Z" transform="translate(-162.6 -259.37)"/><path class="cls-3" d="M546.53,331.2c0-.8,0-1.43-.06-2.05h1.22l.08,1.23h0a2.83,2.83,0,0,1,2.51-1.41c1.06,0,2.69.63,2.69,3.23v4.54h-1.38v-4.38c0-1.22-.46-2.26-1.76-2.26a2,2,0,0,0-1.85,1.41,2.21,2.21,0,0,0-.1.65v4.58h-1.38Z" transform="translate(-162.6 -259.37)"/><path class="cls-3" d="M561.8,325.6v9.18c0,.67,0,1.44.06,2h-1.24l-.06-1.32h0a2.79,2.79,0,0,1-2.57,1.49c-1.84,0-3.27-1.55-3.27-3.86,0-2.54,1.57-4.08,3.41-4.08a2.53,2.53,0,0,1,2.29,1.15h0V325.6Zm-1.38,6.64a3.05,3.05,0,0,0-.06-.6,2.05,2.05,0,0,0-2-1.59c-1.42,0-2.27,1.26-2.27,2.92s.77,2.83,2.24,2.83a2.1,2.1,0,0,0,2-1.67,2.52,2.52,0,0,0,.06-.58Z" transform="translate(-162.6 -259.37)"/><path class="cls-3" d="M568.83,326.17v10.57h-1.38V326.17Z" transform="translate(-162.6 -259.37)"/><path class="cls-3" d="M571.32,331.2c0-.8,0-1.43-.06-2.05h1.22l.08,1.23h0a2.81,2.81,0,0,1,2.51-1.41c1,0,2.68.63,2.68,3.23v4.54h-1.38v-4.38c0-1.22-.46-2.26-1.76-2.26a2,2,0,0,0-1.85,1.41,2.22,2.22,0,0,0-.09.65v4.58h-1.39Z" transform="translate(-162.6 -259.37)"/><path class="cls-3" d="M579.84,335.33a4,4,0,0,0,1.84.53c1,0,1.46-.49,1.46-1.13s-.39-1-1.4-1.38c-1.38-.5-2-1.26-2-2.15a2.35,2.35,0,0,1,2.62-2.23,3.59,3.59,0,0,1,1.85.47l-.33,1a3.15,3.15,0,0,0-1.55-.44c-.82,0-1.26.47-1.26,1s.44.91,1.43,1.3c1.3.49,2,1.14,2,2.27,0,1.35-1.05,2.29-2.82,2.29a4.35,4.35,0,0,1-2.13-.53Z" transform="translate(-162.6 -259.37)"/><path class="cls-3" d="M587.91,327.33v1.82h2v1.05h-2v4.07c0,1,.27,1.48,1,1.48a2.66,2.66,0,0,0,.8-.09l.07,1a4,4,0,0,1-1.23.18,2,2,0,0,1-1.49-.58,3,3,0,0,1-.53-2V330.2h-1.18v-1.05h1.18v-1.4Z" transform="translate(-162.6 -259.37)"/><path class="cls-3" d="M592.1,327.86a.82.82,0,0,1-.83-.85.86.86,0,1,1,.84.85Zm-.66,8.88v-7.59h1.38v7.59Z" transform="translate(-162.6 -259.37)"/><path class="cls-3" d="M596.77,327.33v1.82h2v1.05h-2v4.07c0,1,.27,1.48,1,1.48a2.66,2.66,0,0,0,.8-.09l.06,1a3.88,3.88,0,0,1-1.22.18,2,2,0,0,1-1.49-.58,2.92,2.92,0,0,1-.53-2V330.2h-1.18v-1.05h1.18v-1.4Z" transform="translate(-162.6 -259.37)"/><path class="cls-3" d="M606.66,334.65c0,.8,0,1.49.06,2.09H605.5l-.08-1.24h0a2.84,2.84,0,0,1-2.51,1.41c-1.19,0-2.62-.67-2.62-3.33v-4.43h1.38v4.18c0,1.45.45,2.43,1.69,2.43a2,2,0,0,0,1.82-1.27,1.82,1.82,0,0,0,.13-.7v-4.64h1.38Z" transform="translate(-162.6 -259.37)"/><path class="cls-3" d="M610.61,327.33v1.82h2v1.05h-2v4.07c0,1,.27,1.48,1,1.48a2.66,2.66,0,0,0,.8-.09l.06,1a3.88,3.88,0,0,1-1.22.18,2,2,0,0,1-1.49-.58,2.92,2.92,0,0,1-.53-2V330.2h-1.18v-1.05h1.18v-1.4Z" transform="translate(-162.6 -259.37)"/><path class="cls-3" d="M614.84,333.19a2.41,2.41,0,0,0,2.58,2.62,5,5,0,0,0,2.11-.39l.25,1a6.26,6.26,0,0,1-2.55.48,3.54,3.54,0,0,1-3.73-3.82c0-2.29,1.37-4.1,3.58-4.1,2.48,0,3.12,2.18,3.12,3.58a3.36,3.36,0,0,1-.05.64Zm4-1A2,2,0,0,0,617,330a2.28,2.28,0,0,0-2.12,2.24Z" transform="translate(-162.6 -259.37)"/></svg>