<svg id="Layer_1" data-name="Layer 1" xmlns="http://www.w3.org/2000/svg" viewBox="0 0 533.52 96.72"><defs><style>.cls-1{fill:#f08025;}.cls-2{fill:#283e90;}.cls-3{fill:#808285;}</style></defs><path class="cls-1" d="M178,270.25a19.63,19.63,0,1,0-17.84,27.87A19.65,19.65,0,0,0,178,270.25Z" transform="translate(-111.77 -221.59)"/><path class="cls-2" d="M207.69,303.75a1,1,0,0,0,0-.17l-5.18-52.7a.08.08,0,0,1,0,0,1.16,1.16,0,0,0,0-.18.35.35,0,0,0,0-.11,1.08,1.08,0,0,0-.08-.19.36.36,0,0,0,0-.09,1.33,1.33,0,0,0-.14-.19.21.21,0,0,0,0-.06,1.17,1.17,0,0,0-.23-.21l-37.36-27.92a1.47,1.47,0,0,0-.39-.21.61.61,0,0,0-.13,0,1.59,1.59,0,0,0-.3-.06h-.15a1.33,1.33,0,0,0-.28,0l-.16.06-.18.05-.06,0-.07,0-44,27.77a.18.18,0,0,0-.07,0l-.11.08-.12.11-.08.1a.55.55,0,0,0-.09.14.41.41,0,0,0-.07.11l-.07.15s0,.08,0,.13l0,.16a.14.14,0,0,0,0,.07L111.78,303a1.48,1.48,0,0,0,0,.21v0h0a1.86,1.86,0,0,0,.08.41.64.64,0,0,0,0,.07,1.75,1.75,0,0,0,.2.35l0,.05a1.28,1.28,0,0,0,.29.28l0,0a1.41,1.41,0,0,0,.39.19l43.69,13.26a1.39,1.39,0,0,0,.44.07h0a1.34,1.34,0,0,0,.35,0l49.21-12.73h0a.88.88,0,0,0,.22-.1l.2-.1,0,0a.88.88,0,0,0,.22-.21s.05,0,.06-.05a1.43,1.43,0,0,0,.23-.37l0-.1a1.16,1.16,0,0,0,.08-.32.43.43,0,0,0,0-.05A.4.4,0,0,0,207.69,303.75Zm-86.77-51.19,23.13,10.85-22-12.29,40.07-25.27-.13,57-46.89,18Zm37,62.08-.16-14.46-1.56,14.45-23.43-7.11L118,303l45.49-17.46,38.26,17.76ZM165,283l.13-56.83L197.06,250l1.54,1.15-22.68,11.16,23.71-9.66,4.78,48.6Z" transform="translate(-111.77 -221.59)"/><path class="cls-2" d="M226.46,260.92H250.4c6.63,0,9.85,1.8,9.85,7.12,0,4.64-1.69,5.54-4,6.22v.11c3.63.45,5,2.4,5,6.48,0,6-3.52,7.19-8.28,7.19H226.46Zm8.32,10.75H249.5c1.53,0,2.43-.56,2.43-2.09s-.9-2.14-2.43-2.14H234.78Zm0,9.85h14.9c1.8,0,3-.41,3-2,0-1.84-1.2-2.25-3-2.25h-14.9Z" transform="translate(-111.77 -221.59)"/><path class="cls-2" d="M266.23,260.92h25.1c6.4,0,8.13,3.19,8.13,8.06v1.72c0,3.63-.83,5.77-4.65,6.67v.07c2.47.45,4.53,1.54,4.53,6V288H291v-3.26c0-2.84-.83-3.78-3.41-3.78H274.55v7h-8.32Zm8.32,13.34h13.74c2.25,0,3.07-.9,3.07-2.85v-.9c0-2.39-1.19-2.84-3.82-2.84h-13Z" transform="translate(-111.77 -221.59)"/><path class="cls-2" d="M317.09,260.92h10.82L342.82,288h-9.25L331,283.25H314.13L311.69,288h-9.28Zm.15,16.48h10.64l-5.4-10.18Z" transform="translate(-111.77 -221.59)"/><path class="cls-2" d="M345.77,260.92h12.89l15.61,19.71h.08V260.92h8.32V288H369.78l-15.62-19.7h-.07V288h-8.32Z" transform="translate(-111.77 -221.59)"/><path class="cls-2" d="M388.57,260.92h25.1c8.31,0,11.24,2.74,11.24,9.44v8.24c0,6.71-2.93,9.44-11.24,9.44h-25.1Zm8.32,20.16h14.76c3.56,0,4.94-1,4.94-4.87v-3.67c0-3.86-1.38-4.87-4.94-4.87H396.89Z" transform="translate(-111.77 -221.59)"/><path class="cls-2" d="M432.72,260.92h12.77l9.41,17.46,9.4-17.46h12.77V288H469V268.57h-.08L458,288h-6.21l-10.9-19.47h-.08V288h-8.09Z" transform="translate(-111.77 -221.59)"/><path class="cls-2" d="M494.7,260.92h10.83L520.43,288h-9.25l-2.58-4.79H491.74L489.31,288H480Zm.15,16.48h10.64l-5.4-10.18Z" transform="translate(-111.77 -221.59)"/><path class="cls-2" d="M518.63,260.92h31.68v6.75H538.63V288h-8.32V267.67H518.63Z" transform="translate(-111.77 -221.59)"/><path class="cls-2" d="M553.94,260.92H579c6.4,0,8.13,3.19,8.13,8.06v1.72c0,3.63-.83,5.77-4.65,6.67v.07c2.47.45,4.53,1.54,4.53,6V288h-8.31v-3.26c0-2.84-.83-3.78-3.41-3.78H562.26v7h-8.32Zm8.32,13.34H576c2.25,0,3.07-.9,3.07-2.85v-.9c0-2.39-1.19-2.84-3.82-2.84h-13Z" transform="translate(-111.77 -221.59)"/><path class="cls-2" d="M593.22,260.92h8.32V288h-8.32Z" transform="translate(-111.77 -221.59)"/><path class="cls-2" d="M618.35,274.45,606,260.92h10.75l8.43,9.48,8.43-9.48h10.75L632,274.45,645.28,288H634.12l-9-9.85L616.22,288H605.06Z" transform="translate(-111.77 -221.59)"/><path class="cls-3" d="M481.79,299.18a34,34,0,0,1,5.81-.43c3.66,0,6,.68,7.85,2,2,1.48,3.23,3.8,3.23,7.2a9.78,9.78,0,0,1-3.14,7.74c-2,1.68-5.11,2.47-8.85,2.47a37.33,37.33,0,0,1-4.9-.28Zm4.31,15.56a7.6,7.6,0,0,0,1.5.09c3.94,0,6.52-2.13,6.52-6.7,0-4-2.33-6.06-6.07-6.06a8.78,8.78,0,0,0-1.95.17Z" transform="translate(-111.77 -221.59)"/><path class="cls-3" d="M505.49,313.1l-1.34,4.9h-4.48l5.84-19.11h5.65L517.11,318h-4.65L511,313.1Zm4.84-3.24-1.19-4.05c-.31-1.13-.65-2.58-.93-3.69h-.09c-.25,1.14-.56,2.58-.85,3.69l-1.16,4.05Z" transform="translate(-111.77 -221.59)"/><path class="cls-3" d="M519.8,313.55a10.88,10.88,0,0,0,4.79,1.19c2,0,3-.82,3-2.07s-.91-1.87-3.21-2.66c-3.17-1.14-5.27-2.9-5.27-5.67,0-3.26,2.75-5.73,7.23-5.73a11.21,11.21,0,0,1,4.88,1l-1,3.46a8.9,8.9,0,0,0-4-.91c-1.87,0-2.78.88-2.78,1.85,0,1.22,1.05,1.75,3.55,2.69,3.37,1.25,4.93,3,4.93,5.7,0,3.2-2.44,5.92-7.68,5.92a12.44,12.44,0,0,1-5.42-1.19Z" transform="translate(-111.77 -221.59)"/><path class="cls-3" d="M539.31,298.89v7.37h7.11v-7.37h4.31V318h-4.31v-8h-7.11v8H535V298.89Z" transform="translate(-111.77 -221.59)"/><path class="cls-3" d="M554.5,299.18a33.1,33.1,0,0,1,5.58-.43c2.64,0,4.26.26,5.65,1.08A4.15,4.15,0,0,1,568,303.6a4.35,4.35,0,0,1-3.12,4v.06a4.77,4.77,0,0,1,3.8,4.71,5,5,0,0,1-2,4.05c-1.39,1.11-3.71,1.73-7.51,1.73a33.79,33.79,0,0,1-4.68-.28Zm4.28,7.28h1.42c2.3,0,3.49-.93,3.49-2.35s-1.11-2.21-3.07-2.21a7.82,7.82,0,0,0-1.84.14Zm0,8.48a9.73,9.73,0,0,0,1.67.08c2,0,3.69-.76,3.69-2.77s-1.73-2.7-3.89-2.7h-1.47Z" transform="translate(-111.77 -221.59)"/><path class="cls-3" d="M579.73,318.31c-5.64,0-9-4.28-9-9.72,0-5.73,3.69-10,9.3-10,5.87,0,9.07,4.39,9.07,9.67,0,6.29-3.77,10.06-9.35,10.06Zm.23-3.43c2.92,0,4.59-2.75,4.59-6.49,0-3.43-1.62-6.38-4.59-6.38s-4.65,2.89-4.65,6.46,1.73,6.41,4.62,6.41Z" transform="translate(-111.77 -221.59)"/><path class="cls-3" d="M595.92,313.1l-1.34,4.9h-4.47L596,298.89h5.64L607.54,318h-4.65l-1.47-4.9Zm4.85-3.24-1.19-4.05c-.32-1.13-.66-2.58-.94-3.69h-.09c-.25,1.14-.56,2.58-.85,3.69l-1.16,4.05Z" transform="translate(-111.77 -221.59)"/><path class="cls-3" d="M610.09,299.18a33.36,33.36,0,0,1,5.76-.43c2.83,0,4.82.43,6.18,1.53a4.8,4.8,0,0,1,1.78,4,5.07,5.07,0,0,1-3.37,4.68V309c1.33.54,2.07,1.79,2.55,3.55.6,2.18,1.16,4.67,1.53,5.41H620.1a26,26,0,0,1-1.31-4.45c-.53-2.41-1.36-3-3.14-3.06h-1.28V318h-4.28Zm4.28,8.19h1.7c2.16,0,3.43-1.08,3.43-2.75s-1.19-2.64-3.17-2.64a9,9,0,0,0-2,.14Z" transform="translate(-111.77 -221.59)"/><path class="cls-3" d="M626.9,299.18a34.13,34.13,0,0,1,5.81-.43c3.66,0,6,.68,7.86,2,2,1.48,3.23,3.8,3.23,7.2a9.75,9.75,0,0,1-3.15,7.74c-2,1.68-5.1,2.47-8.84,2.47a37.63,37.63,0,0,1-4.91-.28Zm4.31,15.56a7.65,7.65,0,0,0,1.5.09c3.94,0,6.52-2.13,6.52-6.7,0-4-2.32-6.06-6.06-6.06a8.89,8.89,0,0,0-2,.17Z" transform="translate(-111.77 -221.59)"/></svg>