<?xml version="1.0" encoding="utf-8"?>
<!-- Generator: Adobe Illustrator 26.0.1, SVG Export Plug-In . SVG Version: 6.00 Build 0)  -->
<svg version="1.1" id="Layer_1" xmlns="http://www.w3.org/2000/svg" xmlns:xlink="http://www.w3.org/1999/xlink" x="0px" y="0px"
	 viewBox="0 0 703 377" style="enable-background:new 0 0 703 377;" xml:space="preserve">
<style type="text/css">
	.st0{fill:#263D86;}
	.st1{fill:#FFFFFF;}
	.st2{fill:#1CA3DD;}
</style>
<g id="XMLID_2_">
	<path id="XMLID_143_" class="st0" d="M162.18,33.73c-9.05-15.38-23.96-15.44-33.13-0.12l-93.6,156.28
		c-9.17,15.33-2.06,27.85,15.79,27.85h186.85c17.86,0,25.04-12.58,15.99-27.96L162.18,33.73"/>
	<path id="XMLID_142_" class="st1" d="M133.88,76.53l-1.85,1.83h-3.08h-2.86H122l-2.17-2.15l-2.76,2.77c0,0-4.1,14.35,15.58,16
		c19.68,1.64,21.91,0.14,29.7,3.83c7.77,3.69,10.08,7.64,9.67,14.21c-0.43,6.56-3.7,11.47-10.25,13.53
		c-6.58,2.05-11.49,2.46-19.28,3.29c-7.8,0.81-10.01,1.09-12.14,4.07c-1.46,2.03-2.62,4.54,1.07,7.41
		c3.68,2.87,14.34,4.52,19.28,6.15c4.91,1.65,9.78,3.41,11.44,7.51c1.64,4.1,1.03,6.5-1.2,9.72c-2.47,3.59-4.75,4.18-9.01,5.33
		c-4.29,1.16-6.96,1.45-11.89,2.68c-4.91,1.24-9.65,2.97-8.61,7.17c0.4,1.61,2.91,2.41,6.95,4.02c3.02,1.2,7.91,2.51,11.5,4.18
		c4.65,2.17,7.59,4.65,7.38,7.8c-0.11,1.71-0.27,3.33-4.37,6.2c-4.1,2.88-21.88,8.16-21.88,8.16s11.48-6.16,15.18-8.62
		c3.68-2.46,4.65-3.55,4.51-5.73c-0.18-2.47-2.88-2.86-6.57-4.1c-3.69-1.23-6.75-1.88-10.66-3.7c-3.73-1.73-7.38-3.7-8.2-7.79
		c-0.84-4.1,0.4-7.39,4.09-9.85c3.69-2.46,8.19-3.69,12.71-4.5c4.52-0.82,8.72-1.4,10.68-4.52c1.38-2.25,2.85-4.51-2.05-6.97
		c-4.93-2.46-13.73-2.81-20.51-4.51c-6.79-1.7-9.94-3.21-11.48-7.87c-1.64-4.92-1.37-9.39,2.45-13.46c3.95-4.2,10.66-6.82,17.1-7.79
		c5.14-0.79,12.85-0.42,16.53-2.87c3.68-2.46,6.56-5.33,2.46-8.61c-4.09-3.29-11.74-2.05-19-3.7c-7.25-1.64-13.4-2.04-18.73-5.33
		c-5.33-3.28-10.25-8.2-10.67-12.31c-0.41-4.09,0.44-9.42,3.51-12.71c3.05-3.27,3.13-3.93,7.16-6.55c3.26-2.12,8.2-1.24,8.2-1.24
		l2.46,2.88L133.88,76.53"/>
	<path id="XMLID_141_" class="st2" d="M155.83,77.33l1.85,1.85h3.07h2.87h4.11l2.16-2.16l2.77,2.77c0,0,4.09,14.35-15.59,16
		c-19.67,1.63-21.91,0.13-29.7,3.82c-7.79,3.7-10.08,7.65-9.67,14.22c0.41,6.55,3.69,11.47,10.26,13.53
		c6.55,2.05,11.48,2.46,19.27,3.27c7.78,0.83,9.99,1.1,12.14,4.09c1.45,2.03,2.63,4.54-1.08,7.41c-3.69,2.87-14.34,4.51-19.26,6.15
		c-4.92,1.64-9.8,3.4-11.44,7.5c-1.65,4.1-1.03,6.49,1.18,9.72c2.47,3.59,4.77,4.17,9.02,5.34c4.29,1.15,6.97,1.45,11.9,2.68
		c4.9,1.23,9.66,2.96,8.6,7.16c-0.41,1.6-2.92,2.42-6.94,4.02c-3.02,1.2-7.91,2.51-11.51,4.18c-4.66,2.17-7.58,4.63-7.38,7.79
		c0.11,1.71,0.27,3.32,4.36,6.2c4.11,2.87,21.88,8.15,21.88,8.15s-11.47-6.16-15.16-8.62c-3.7-2.46-4.67-3.57-4.51-5.74
		c0.16-2.47,2.87-2.87,6.55-4.11c3.69-1.22,6.75-1.85,10.68-3.68c3.7-1.74,7.36-3.7,8.19-7.79c0.81-4.11-0.42-7.39-4.1-9.84
		c-3.69-2.46-8.2-3.69-12.71-4.52c-4.5-0.82-8.72-1.4-10.66-4.5c-1.4-2.26-2.87-4.52,2.05-6.97c4.92-2.47,13.73-2.82,20.49-4.52
		c6.79-1.7,9.93-3.22,11.5-7.87c1.64-4.93,1.36-9.38-2.47-13.46c-3.93-4.2-10.66-6.82-17.09-7.79c-5.13-0.79-12.83-0.41-16.52-2.87
		c-3.7-2.46-6.56-5.33-2.47-8.62c4.11-3.28,11.74-2.04,18.99-3.68c7.25-1.65,13.41-2.05,18.74-5.33c5.33-3.28,10.26-8.2,10.66-12.31
		c0.41-4.1-0.43-9.44-3.5-12.71c-3.05-3.28-3.14-3.94-7.16-6.55c-3.28-2.12-8.2-1.24-8.2-1.24l-2.48,2.87L155.83,77.33"/>
	<path id="XMLID_138_" class="st2" d="M337.94,176.28c0,21.18,9.18,30.35,26.84,30.35c45.96,0,65.58-46.81,65.58-84.15
		c0-45.53-26.6-94.25-75.03-94.25c-11.4,0-17.39,1.27-17.39,13.29V176.28 M308.65,65.55c0-31.62-1.76-32.25-11.45-32.25
		c-3.72,0-8.19,0.94-9.91,0.94c-3.73,0-4.73-0.65-4.73-3.16c0-4.13,0.76-7.3,3.24-7.92c3.21-0.94,35.98-4.41,74-4.41
		c74.81,0,101.89,53.79,101.89,102.51c0,61.35-42.75,96.77-83.99,96.77c-21.36,0-27.33-1.29-33.02-1.29h-36.3
		c-4.97,0-9.91,1.29-14.9,1.29c-3,0-5.46-0.6-5.46-4.42c0-3.17,1.24-4.75,3.7-5.4c15.67-4.08,16.93-5.37,16.93-35.11V65.55z"/>
	<path id="XMLID_137_" class="st2" d="M574.12,62.71c0,3.48-0.95,5.07-3.19,5.07c-6.23,0-5.48-37.64-35.3-37.64
		c-22.36,0-28.81,18.34-28.81,32.89c0,35.11,78.74,30.05,78.74,98.39c0,22.44-8.42,61.04-55.9,61.04c-21.6,0-46.47-6.69-46.47-20.25
		c0-14.23,0.29-39.89,6-39.89c5.72,0,3.21,15.23,11.93,28.79c5.96,9.5,19.87,19.93,35.05,19.93c20.87,0,30.03-16.14,30.03-32.55
		c0-48.42-77.24-40.18-77.24-106.29c0-32.27,16.6-53.47,51.68-53.47c17.86,0,33.49,4.41,33.49,12.96V62.71"/>
	<path id="XMLID_136_" class="st2" d="M627.76,52.28c0-12.99-1.68-17.09-11.86-17.74c-6.22-0.3-7.45-1.89-7.45-5.69
		c0-3.79,1.22-5.7,6.92-5.7c5.95,0,12.68,1.29,24.87,1.29c20.12,0,23.09-1.29,31.3-1.29c5.96,0,6.95,0.95,6.95,3.8
		c0,2.84-2.02,5.08-7.7,5.7c-12.69,1.29-13.69,3.18-13.69,15.18v139.21c0,16.42,4.48,17.09,13.42,19.6
		c5.21,1.57,8.19,2.51,8.19,7.59c0,2.84-0.48,3.8-5.69,3.8c-6.72,0-19.12-1.29-37.29-1.29c-14.15,0-21.87,1.29-28.79,1.29
		c-3.78,0-4.26-2.24-4.26-6.03c0-4.4,1.02-4.73,10.91-5.35c8.47-0.62,14.15-0.94,14.15-24.99V52.28"/>
	<path id="XMLID_89_" class="st2" d="M46.87,284.16c0,7.06,3.06,10.11,8.95,10.11c15.32,0,21.86-15.6,21.86-28.05
		c0-15.18-8.87-31.42-25.01-31.42c-3.8,0-5.8,0.42-5.8,4.43V284.16 M37.1,247.24c0-10.54-0.59-10.75-3.82-10.75
		c-1.24,0-2.73,0.31-3.31,0.31c-1.24,0-1.57-0.22-1.57-1.05c0-1.38,0.25-2.43,1.08-2.64c1.07-0.31,11.99-1.47,24.67-1.47
		c24.93,0,33.96,17.93,33.96,34.17c0,20.45-14.25,32.26-28,32.26c-7.12,0-9.11-0.43-11-0.43h-12.1c-1.65,0-3.3,0.43-4.96,0.43
		c-1,0-1.82-0.2-1.82-1.47c0-1.06,0.41-1.58,1.23-1.8c5.23-1.36,5.64-1.79,5.64-11.7V247.24z"/>
	<path id="XMLID_88_" class="st0" d="M96.39,270.23c0-7.06-3.39-4.22-3.39-7.27c0-1.06,2.4-2.32,5.13-4.22
		c3.48-2.42,3.97-4.54,4.88-4.54c2.16,0,0.09,7.8,1.74,7.8c1.17,0,3.65-6.11,9.87-6.11c3.39,0,5.55,2.42,5.55,6.64
		c0,1.27-0.49,5.59-4.55,5.59c-3.73,0-4.89-4.43-7.38-4.43c-1.81,0-3.89,2.53-3.89,5.91v19.81c0,5.06,2.89,5.49,5.63,5.49
		c0.25,0,2.91,0.32,2.91,2c0,1.05-0.18,1.16-1.49,1.16c-2.08,0-5.81,0.11-9.38-0.11c-4.13,0.22-7.86,0.11-9.92,0.11
		c-1.33,0-1.51-0.11-1.51-0.95c0-0.95,1.91-1.89,3.73-2.64c2.08-0.84,2.08-3.58,2.08-6.74V270.23"/>
	<path id="XMLID_87_" class="st0" d="M134.06,282.36c0,8.32,2.98,10.85,8.19,10.85c3.4,0,8.61-2.63,8.61-5.9
		c0-2.74,0.25-7.91,0.25-21.51c0-3.7-0.42-4.22-5.39-5.5c-1.24-0.31-1.41-0.73-1.41-1.48c0-0.95,0.17-1.69,2.33-1.69
		c1.82,0,3.64,0.22,5.38,0.22c1.9,0,3.73-0.22,5.71-0.22c1.16,0,1.16,0.85,1.16,2.44c0,8.22-0.32,15.92-0.32,26.99
		c0,6.87,0.17,7.5,3.56,7.81c2.24,0.21,2.49,0.21,2.49,1.27c0,0.73-0.5,1.25-3.24,1.47c-5.04,0.42-8.44,2-8.93,2
		c-1.75,0-1.82-0.95-1.82-2.84c0-2.12-0.17-3.06-0.49-3.06c-0.93,0-6.47,6.34-13.35,6.34c-7.44,0-10.68-5.39-10.68-14.66v-22.35
		c0-1.06-0.56-1.69-2.31-2.22c-1.33-0.41-2.73-1.05-2.73-1.89c0-1.28,1.24-1.28,2.24-1.28c0.5,0,3.23,0.22,5.47,0.22
		c1.16,0,2.48-0.22,3.64-0.22c1.58,0,1.65,0.85,1.65,4.75V282.36"/>
	<path id="XMLID_83_" class="st0" d="M183.5,282.67c4.31,0,6.39-5.38,6.39-12.44c0-7.06-2.07-12.44-6.39-12.44
		c-4.22,0-6.37,5.38-6.37,12.44C177.13,277.29,179.28,282.67,183.5,282.67 M171.41,309.25c0,6.12,5.63,7.79,10.1,7.79
		c6.62,0,14.33-3.57,14.33-10c0-5.92-10.52-6.01-17.14-6.01C173.9,301.02,171.41,305.87,171.41,309.25 M202.88,259.69
		c1.99,0,2.16,0.52,2.16,2.63v2.21c-1.24,0-2.57,0.22-3.81,0.32c-1.99,0.22-3.23,0.22-3.23,2.12c0,12.54-6.46,18.03-14.74,18.03
		c-7.03,0-7.94,1.17-7.94,4.22c0,3.37,6.7,2.32,13.4,2.74c6.71,0.43,13.41,2.12,13.41,11.29c0,13.71-17.88,17.61-24.84,17.61
		c-9.1,0-13.16-4.43-13.16-10.23c0-6.01,9.27-9.7,9.27-10.65c0-1.06-6.21-5.38-6.21-10.23c0-5.49,8.61-4.74,8.61-6.44
		c0-0.84-7.12-2.31-7.12-12.96c0-11.18,8.85-14.86,14.82-14.86c6.96,0,10.85,4.74,14.58,4.54L202.88,259.69z"/>
	<path id="XMLID_82_" class="st2" d="M238.07,246.3c0,1.16-0.32,1.69-1.06,1.69c-2.07,0-1.83-12.55-11.77-12.55
		c-7.45,0-9.6,6.11-9.6,10.96c0,11.7,26.24,10.01,26.24,32.8c0,7.48-2.81,20.35-18.63,20.35c-7.2,0-15.49-2.23-15.49-6.75
		c0-4.74,0.09-13.3,2-13.3c1.9,0,1.07,5.08,3.98,9.6c1.99,3.17,6.62,6.64,11.68,6.64c6.96,0,10.01-5.38,10.01-10.85
		c0-16.14-25.75-13.39-25.75-35.43c0-10.76,5.53-17.82,17.22-17.82c5.95,0,11.16,1.47,11.16,4.32V246.3"/>
	<path id="XMLID_79_" class="st0" d="M258.93,293.64c6.46,0,7.14-4.54,7.14-13.6c0-3.9-0.34-4.42-1.33-4.42
		c-0.51,0-9.77,3.16-9.77,12.34C254.98,291.11,256.63,293.64,258.93,293.64 M247.34,291.11c0-11.28,10.44-15.5,16.99-18.88
		c1.24-0.63,1.98-1.78,1.98-4.74c0-5.06-1.07-8.43-5.46-8.43c-3.07,0-5.55,3.06-6.38,6.85c-0.66,3.06-2.89,5.06-5.7,5.06
		c-1.58,0-1.99-0.95-1.99-2.73c0-3.07,6.45-12.76,16.96-12.76c8.2,0,10.28,3.8,10.28,9.8c0,5.58-0.34,11.18-0.34,16.76
		c0,8.97,0.41,9.71,2.83,9.71c1.4,0,3.56-1.26,3.73-1.26c0.48,0,0.57,0.42,0.57,0.83c0,3.28-3.4,7.17-7.95,7.17
		c-4.23,0-6.63-4.32-7.28-4.32c-0.5,0-5.38,5.39-12.17,5.39C251.08,299.55,247.34,298.48,247.34,291.11"/>
	<path id="XMLID_78_" class="st0" d="M286.6,263.17c-0.07-0.95-1.24-0.95-2.57-0.95c-1.31,0-2.39-0.11-2.39-1.59
		c0-2.11,4.31-1.9,5.05-4.01c0.5-1.36,0.74-11.18,3.3-17.19c2.91-6.84,9.71-12.02,16-12.02c2.48,0,6.78,0.52,6.78,4.64
		c0,3.06-1.82,5.37-3.56,5.37c-2.89,0-4.14-4.74-8.11-4.74c-2.75,0-5.9,1.27-6.47,15.5c-0.33,7.79-0.16,9.17,1.57,9.17h6.12
		c1.66,0,1.9,0.42,1.9,2.53c0,1.26-0.16,1.68-1.49,1.68h-4.55c-3.3,0-3.64,0.84-3.64,4.43v20.14c0,5.06,0.09,7.68,2.64,8.32
		c3.07,0.75,4.31,0.95,4.31,2.21c0,1.06-0.99,1.38-2.39,1.38c-2.9,0-4.39-0.43-5.8-0.43h-8.52c-0.68,0-1.24,0.23-1.92,0.23
		c-1.15,0-1.81-0.23-1.81-1.17c0-1.47,1.47-1.79,2.97-2.21c1.42-0.41,2.57-1.26,2.57-5.69V263.17"/>
	<path id="XMLID_75_" class="st0" d="M315.5,269.5c0,1.68,0.75,1.78,2.65,1.78c11.36,0,12.58-1.27,12.58-6.75
		c0-1.57-0.81-6.1-6.2-6.1C318.99,258.42,315.5,265.7,315.5,269.5 M338.36,273.4c0,1.04-0.17,1.36-1.15,1.36
		c-6.3,0-12.59-0.52-18.89-0.52c-0.99,0-3.14,0-3.14,4.11c0,8.97,6.29,14.45,11.34,14.45c5.46,0,7.95-4.43,10.12-4.43
		c0.81,0,0.9,0.53,0.9,1.16c0,1.58-4.64,10.02-14.99,10.02c-8.78,0-15.82-9.07-15.82-21.51c0-13.39,9.28-22.57,17.05-22.57
		C334.55,255.47,338.36,266.64,338.36,273.4"/>
	<path id="XMLID_74_" class="st0" d="M354.43,286.89c0,5.49,2.89,5.69,4.63,5.69c2.32,0,4.56-0.83,4.96-0.83
		c0.41,0,0.92,0.31,0.92,1.26c0,2.42-4.15,6.54-10.11,6.54c-4.88,0-8.35-2.95-8.35-10.86v-23.94c0-0.74-0.09-1.06-0.67-1.06
		c-2.9,0-3.98-0.21-3.98-1.89c0-1.48,3.73-2.33,6.63-5.38c3.22-3.37,4.04-7.27,5.46-7.27c2.24,0-0.67,8.22,2.72,8.22h7.45
		c1,0,1.33,0.31,1.33,2c0,2.94-0.34,3.05-1.82,3.05h-7.71c-1.33,0-1.48,1.27-1.48,4.22V286.89"/>
	<path id="XMLID_73_" class="st0" d="M385.14,285.53c0.25,0.73,0.34,1.04,0.66,1.04c0.74,0,1.17-0.63,1.42-1.47l5.79-16.45
		c0.65-1.79,0.9-3.49,0.9-5.37c0-1.27-0.41-2.01-0.99-2.54c-1.4-1.27-3.64-1.05-3.64-2.42c0-0.63,0.34-1.38,0.74-1.38
		c1.24,0,4.97,0.43,7.45,0.43c1,0,2.08-0.43,3.07-0.43c1.16,0,1.65,0.43,1.65,1.48c0,1.26-1.48,0.73-2.73,2.31
		c-0.32,0.42-0.75,0.95-1.06,1.69c-3.48,7.48-13.66,36.91-14.16,38.17c-3.07,7.81-4.31,20.25-9.77,20.25
		c-4.63,0-5.56-3.06-5.56-5.59c0-2.74,1.58-4.74,3.66-4.74c0.74,0,1.65,0.42,2.89,0.42c4.06,0,5.87-9.18,5.87-11.17
		c0-1.28-0.16-2.64-0.57-3.8l-10.78-33.12c-0.24-0.85-0.83-1.58-1.83-2.11c-1.3-0.73-2.39-1.05-2.39-2.42
		c0-0.52,0.25-1.38,1.58-1.38c1.15,0,3.15,0.43,8.86,0.43c1.99,0,5.31-0.43,5.96-0.43c0.58,0,1.32,0.21,1.32,1.16
		c0,1.48-2.72,0.95-4.05,2.63c-0.5,0.63-0.74,1.38-0.74,2.54c0,1.25,0.4,2.42,0.83,3.78L385.14,285.53"/>
	<path id="XMLID_72_" class="st2" d="M411.79,242.82c0-4.33-0.56-5.7-3.96-5.91c-2.07-0.1-2.48-0.63-2.48-1.89
		c0-1.26,0.41-1.9,2.31-1.9c1.99,0,4.22,0.43,8.29,0.43c6.71,0,7.7-0.43,10.43-0.43c1.99,0,2.32,0.32,2.32,1.26
		c0,0.95-0.67,1.69-2.57,1.9c-4.23,0.43-4.56,1.06-4.56,5.06v46.4c0,5.47,1.49,5.7,4.47,6.53c1.74,0.53,2.73,0.84,2.73,2.53
		c0,0.95-0.16,1.26-1.9,1.26c-2.24,0-6.37-0.43-12.43-0.43c-4.72,0-7.29,0.43-9.6,0.43c-1.26,0-1.42-0.75-1.42-2.01
		c0-1.47,0.34-1.58,3.64-1.78c2.82-0.2,4.72-0.31,4.72-8.33V242.82"/>
	<path id="XMLID_71_" class="st0" d="M446.16,290.36c0,2.12,0.18,3.48,1.08,4.11c2.32,1.69,5.13,0.95,5.13,2.32
		c0,1.26-0.59,1.26-1.49,1.26c-0.65,0-1.49-0.43-7.78-0.43c-6.62,0-7.28,0.43-8.03,0.43c-0.9,0-1.33-0.2-1.33-0.95
		c0-1.47,1.99-1.47,3.15-2.64c1.07-1.15,1.31-1.47,1.31-10.12v-13.91c0-5.92-3.14-3.69-3.14-6.44c0-0.52,0.25-0.84,0.41-0.95
		l1.83-1.16c4.31-2.74,7.29-7.9,8.19-7.9c0.32,0,0.65,0.41,0.65,0.95v6.12c0,0.41,0.59,0.62,0.66,0.62c1.18,0,5.06-6.21,12.1-6.21
		c7.78,0,11.77,5.27,11.77,15.81v16.03c0,6.01,0,6.75,1.22,7.16c1.92,0.63,4.07,0.75,4.07,2.53c0,0.95-0.74,1.06-2.4,1.06
		c-0.99,0-4.47-0.43-8.19-0.43h-7.21c-0.59,0-1.24,0-1.24-0.95c0-1.27,4.13-1.04,4.8-2.21c0.82-1.47,0.98-2.21,0.98-9.28v-12.53
		c0-8.75-2.64-10.86-7.77-10.86c-3.64,0-8.79,1.69-8.79,6.53V290.36"/>
	<path id="XMLID_70_" class="st0" d="M502.24,265.07c0,2.53-0.52,2.64-1.01,2.64c-2.31,0-1.31-8.87-9.6-8.87
		c-2.48,0-5.21,1.69-5.21,5.39c0,7.27,17.89,6.85,17.89,21.62c0,12.02-10.1,13.71-15,13.71c-4.47,0-10.26-1.59-10.26-4.75
		c0-5.16,0-8.54,1.49-8.54c1.81,0,0.97,9.91,9.84,9.91c4.23,0,6.8-2.21,6.8-6.12c0-10.44-17.39-9.17-17.39-21.08
		c0-10.02,7.45-13.5,14.08-13.5c4.22,0,8.37,2.63,8.37,3.37V265.07"/>
	<path id="XMLID_69_" class="st0" d="M520.94,286.89c0,5.49,2.91,5.69,4.63,5.69c2.33,0,4.56-0.83,4.97-0.83
		c0.42,0,0.92,0.31,0.92,1.26c0,2.42-4.16,6.54-10.11,6.54c-4.88,0-8.36-2.95-8.36-10.86v-23.94c0-0.74-0.09-1.06-0.66-1.06
		c-2.9,0-3.97-0.21-3.97-1.89c0-1.48,3.72-2.33,6.62-5.38c3.23-3.37,4.04-7.27,5.46-7.27c2.24,0-0.68,8.22,2.73,8.22h7.45
		c0.99,0,1.33,0.31,1.33,2c0,2.94-0.34,3.05-1.83,3.05h-7.7c-1.33,0-1.49,1.27-1.49,4.22V286.89"/>
	<path id="XMLID_66_" class="st0" d="M544.63,230.16c2.89,0,4.55,3.06,4.55,5.8c0,2.75-1.65,5.8-4.55,5.8
		c-2.91,0-4.56-3.05-4.56-5.8C540.07,233.22,541.72,230.16,544.63,230.16 M542.97,297.64c-3.14,0-4.47,0.43-7.45,0.43
		c-0.75,0.11-1.24-0.11-1.24-1.06c0-0.95,0.99-1.58,2.73-1.78c0.84-0.12,1.83-0.64,1.92-0.75c1.06-0.94,1.15-2.94,1.15-4.84v-20.88
		c0-6.75-4.39-2.74-4.39-6.43c0-2.2,2.4-0.84,7.28-4c3.07-2,3.98-4.22,4.65-4.22c0.33,0,0.66,0.11,0.66,0.63
		c0,0.63-0.25,3.8-0.25,8.55v27.62c0,2.64,0.16,3.17,1.08,3.58c0.66,0.32,1.24,0.43,2.14,0.63c2.15,0.54,2.25,0.95,2.25,1.58
		c0,0.43-0.1,0.95-0.91,0.95H542.97z"/>
	<path id="XMLID_65_" class="st0" d="M568.23,286.89c0,5.49,2.89,5.69,4.63,5.69c2.33,0,4.56-0.83,4.97-0.83
		c0.41,0,0.9,0.31,0.9,1.26c0,2.42-4.13,6.54-10.1,6.54c-4.88,0-8.36-2.95-8.36-10.86v-23.94c0-0.74-0.08-1.06-0.67-1.06
		c-2.89,0-3.98-0.21-3.98-1.89c0-1.48,3.73-2.33,6.63-5.38c3.24-3.37,4.05-7.27,5.45-7.27c2.25,0-0.66,8.22,2.75,8.22h7.44
		c1,0,1.33,0.31,1.33,2c0,2.94-0.34,3.05-1.82,3.05h-7.7c-1.33,0-1.49,1.27-1.49,4.22V286.89"/>
	<path id="XMLID_64_" class="st0" d="M593.81,282.36c0,8.32,2.99,10.85,8.19,10.85c3.41,0,8.63-2.63,8.63-5.9
		c0-2.74,0.25-7.91,0.25-21.51c0-3.7-0.43-4.22-5.4-5.5c-1.22-0.31-1.4-0.73-1.4-1.48c0-0.95,0.17-1.69,2.32-1.69
		c1.81,0,3.63,0.22,5.38,0.22c1.91,0,3.73-0.22,5.71-0.22c1.15,0,1.15,0.85,1.15,2.44c0,8.22-0.32,15.92-0.32,26.99
		c0,6.87,0.16,7.5,3.57,7.81c2.21,0.21,2.46,0.21,2.46,1.27c0,0.73-0.5,1.25-3.21,1.47c-5.05,0.42-8.46,2-8.95,2
		c-1.74,0-1.81-0.95-1.81-2.84c0-2.12-0.18-3.06-0.49-3.06c-0.93,0-6.46,6.34-13.33,6.34c-7.47,0-10.7-5.39-10.7-14.66v-22.35
		c0-1.06-0.57-1.69-2.31-2.22c-1.33-0.41-2.73-1.05-2.73-1.89c0-1.28,1.24-1.28,2.23-1.28c0.5,0,3.24,0.22,5.46,0.22
		c1.16,0,2.49-0.22,3.64-0.22c1.58,0,1.65,0.85,1.65,4.75V282.36"/>
	<path id="XMLID_63_" class="st0" d="M638.54,286.89c0,5.49,2.87,5.69,4.63,5.69c2.31,0,4.54-0.83,4.97-0.83
		c0.41,0,0.9,0.31,0.9,1.26c0,2.42-4.13,6.54-10.12,6.54c-4.87,0-8.35-2.95-8.35-10.86v-23.94c0-0.74-0.08-1.06-0.66-1.06
		c-2.89,0-3.98-0.21-3.98-1.89c0-1.48,3.73-2.33,6.64-5.38c3.21-3.37,4.05-7.27,5.45-7.27c2.23,0-0.65,8.22,2.73,8.22h7.45
		c1,0,1.34,0.31,1.34,2c0,2.94-0.34,3.05-1.83,3.05h-7.69c-1.33,0-1.49,1.27-1.49,4.22V286.89"/>
	<path id="XMLID_60_" class="st0" d="M660.64,269.5c0,1.68,0.74,1.78,2.66,1.78c11.35,0,12.59-1.27,12.59-6.75
		c0-1.57-0.84-6.1-6.22-6.1C664.11,258.42,660.64,265.7,660.64,269.5 M683.49,273.4c0,1.04-0.15,1.36-1.15,1.36
		c-6.3,0-12.59-0.52-18.88-0.52c-1,0-3.15,0-3.15,4.11c0,8.97,6.3,14.45,11.34,14.45c5.47,0,7.95-4.43,10.11-4.43
		c0.82,0,0.9,0.53,0.9,1.16c0,1.58-4.65,10.02-14.99,10.02c-8.77,0-15.81-9.07-15.81-21.51c0-13.39,9.26-22.57,17.05-22.57
		C679.69,255.47,683.49,266.64,683.49,273.4"/>
	<path id="XMLID_57_" class="st0" d="M34.77,348.78c-0.26,0-0.33,0-0.52,0.22c-0.93,1.12-1.9,2.54-2.87,3.84
		c-0.45,0.64-0.93,1.42-0.93,2.12c0,0.93,0.97,1.08,1.83,1.23c0.67,0.11,1.3,0.18,1.3,0.71c0,0.48-0.52,0.56-0.97,0.56
		c-1.42,0-2.83-0.15-4.21-0.15c-1.16,0-2.42,0.15-3.28,0.15c-0.67,0-0.82-0.3-0.82-0.52c0-0.49,0.56-0.56,1.04-0.71
		c1.83-0.34,2.68-1.68,3.99-3.28c4.77-6.07,9.66-12.22,14.46-18.37c0.48-0.67,0.9-0.97,1.75-0.97c0.75,0,0.78,0.78,0.78,1.15
		c0.11,5.18,0.15,13.34,0.26,18.64c0.07,2.23,0.19,2.72,1.49,2.83c0.67,0.11,1.23,0.07,1.23,0.59c0,0.6-0.56,0.64-0.93,0.64
		c-1.19,0-2.83-0.15-4.32-0.15c-1.53,0-2.76,0.15-3.76,0.15c-0.52,0-1.08,0-1.08-0.52c0-0.63,0.71-0.63,1.68-0.71
		c0.97-0.04,1.71-0.41,1.75-2.2c0-1.75-0.11-3.5-0.15-5.25H34.77z M42.3,338.71l-0.04-0.04c-2.27,2.94-4.51,5.81-6.78,8.72h7.01
		L42.3,338.71z"/>
	<path id="XMLID_56_" class="st0" d="M66.45,340.24c0-4.62,4.88-6.71,8.94-6.71c1.6,0,3.54,0.26,5.03,0.93
		c0.45,0.18,0.93,0.37,0.93,0.89c0,0.26-0.15,0.82-0.26,1.12c-0.15,0.71-0.37,1.46-0.49,2.05c-0.11,0.34-0.22,1.16-0.78,1.16
		c-0.56,0-0.56-0.64-0.63-1.01c-0.07-0.93-0.11-1.79-0.78-2.68c-0.71-0.93-1.86-1.27-3.09-1.27c-2.24,0-4.88,1.34-4.88,3.76
		c0,1.98,1.53,3.32,3.69,5.15c2.13,1.83,4.18,3.73,4.18,6.63c0,4.47-4.7,7.53-9.5,7.53c-1.53,0-3.99-0.49-5.59-1.2
		c-0.56-0.3-1.16-0.52-1.16-1.19c0-0.78,0.34-2.24,0.45-3.28c0.11-0.78,0.22-1.41,0.71-1.41c0.63,0,0.71,0.59,0.82,1.23
		c0.15,0.97,0.26,2.05,0.86,2.87c0.93,1.16,2.31,1.72,3.88,1.72c2.76,0,5.29-1.75,5.29-4.62c0-2.12-1.45-3.58-3.43-5.29
		c-2.05-1.75-4.18-3.54-4.18-6.34V340.24z"/>
	<path id="XMLID_55_" class="st0" d="M82.51,355.63c0-1.04,0.45-2.43,0.75-3.24c0.89-2.53,1.75-5.07,2.61-7.57
		c0.15-0.33,0.45-1.12,0.45-1.49c0-0.3-0.11-0.6-0.48-0.6c-0.86,0-2.35,1.9-2.79,2.54c-0.37,0.45-0.67,0.97-1.01,0.97
		c-0.18,0-0.29-0.15-0.29-0.45c0-0.86,3.58-5.55,6.82-5.55c0.86,0,1.53,0.67,1.53,1.68c0,0.67-0.26,1.6-0.56,2.46
		c-0.9,2.68-1.79,5.4-2.72,8.13c-0.15,0.44-0.45,1.34-0.45,1.86c0,0.63,0.34,0.97,0.89,0.97c1.49,0,4.25-2.61,5.37-4.14
		c2.39-2.91,4.02-6.07,4.92-9.09c0.37-1.23,0.49-1.41,0.93-1.45c0.52-0.11,2.01-0.07,2.35-0.07c0.3,0,0.56,0.11,0.56,0.41
		c0,0.22-0.07,0.49-0.22,0.93c-1.04,3.47-2.12,6.93-3.21,10.44c-0.19,0.74-0.41,1.45-0.41,1.9c0,0.33,0.19,0.7,0.56,0.7
		c1.08,0,2.91-2.38,3.47-3.28c0.22-0.34,0.37-0.56,0.63-0.56c0.22,0,0.37,0.15,0.37,0.34c0,1.12-4.07,6.34-7.64,6.34
		c-0.89,0-1.23-0.71-1.23-1.49c0-1.68,1.19-5.15,1.97-7.45l-0.15-0.04c-2.68,4.17-7.57,8.98-11.18,8.98c-1.34,0-1.83-0.97-1.83-2.13
		V355.63z"/>
	<path id="XMLID_52_" class="st0" d="M123.7,345.24c0,6.37-6.26,12.56-12.9,12.56c-2.57,0-5.29-1.2-5.29-4.55
		c0-1.71,0.64-3.47,1.05-4.78c1.19-3.87,2.38-7.71,3.58-11.55c0.26-0.75,0.52-1.6,0.52-2.05c0-0.7-0.41-0.85-0.97-0.85
		c-0.48-0.04-1.45,0-1.45-0.52c0-0.64,0.82-0.71,1.6-0.75c1.75-0.07,2.95-0.3,4.51-1.08c0.19-0.11,0.37-0.18,0.56-0.18
		c0.22,0,0.45,0.11,0.45,0.44c-0.15,0.49-0.3,1.08-0.48,1.6l-4.59,14.46l0.08,0.04c1.75-2.87,5.85-7.79,9.43-7.79
		c2.72,0,3.91,2.61,3.91,4.96V345.24z M119.93,345.35c0-1.23-0.48-2.76-1.86-2.76c-3.47,0-9.62,8.8-9.62,12.07
		c0,1.49,1.08,2.09,2.39,2.09c4.36-0.04,9.09-7.15,9.09-11.37V345.35z"/>
	<path id="XMLID_51_" class="st0" d="M136.41,352.47c0,1.45-1.16,3.02-2.42,3.91c-1.34,0.89-3.13,1.42-4.88,1.42
		c-1.68,0-3.5-0.56-4.7-1.31c-0.41-0.26-0.86-0.67-0.86-1.15c0-0.38,0.22-1.04,0.34-1.38c0.15-0.45,0.37-1.45,1.01-1.45
		c0.45,0,0.74,0.37,1.15,1.08c0.79,1.3,1.86,3.09,3.95,3.09c1.41,0,2.9-1.08,2.9-2.53c0-1.57-1.49-2.76-2.98-4.07
		c-1.49-1.34-2.98-2.76-2.98-4.58c0-3.2,3.09-5.26,6.71-5.26c0.97,0,4.84,0.23,4.84,1.68c0,0.3-0.18,0.86-0.33,1.27
		c-0.19,0.41-0.37,1.19-0.93,1.19c-0.56,0-1.12-0.78-1.83-1.57c-0.75-0.78-1.6-1.53-2.83-1.53c-1.34,0-2.43,0.93-2.43,2.28
		c0,1.38,1.3,2.5,3.06,4.02c1.57,1.35,3.21,2.87,3.21,4.85V352.47z"/>
	<path id="XMLID_48_" class="st0" d="M148.56,341.73c0,0.63-0.37,1.86-0.6,2.61c-0.86,2.76-1.79,5.59-2.65,8.31
		c-0.19,0.6-0.37,1.15-0.37,1.57c0,0.37,0.11,0.67,0.45,0.67c0.67,0,1.94-1.49,2.65-2.57c0.41-0.67,0.75-1.2,1.04-1.2
		c0.27,0,0.34,0.19,0.34,0.38c0,0.63-1.08,2.09-1.53,2.72c-1.08,1.34-3.39,3.58-5.29,3.58c-1.26,0-1.53-0.82-1.53-1.79
		c0-0.86,0.38-2.2,0.67-3.17c0.86-2.76,1.79-5.59,2.57-8.16c0.11-0.33,0.34-0.93,0.34-1.19c0-0.3-0.11-0.64-0.45-0.64
		c-0.59,0-1.45,0.86-2.09,1.57c-0.78,0.82-1.34,1.57-1.64,1.57c-0.19,0-0.3-0.19-0.3-0.38c0-0.52,1.37-2.09,1.86-2.57
		c1.08-1.04,3.28-2.79,5.03-2.79c0.93,0,1.49,0.49,1.49,1.46V341.73z M150.49,335.39c0,1.23-1.08,2.65-2.46,2.65
		c-1.04,0-1.57-0.78-1.57-1.6c0-1.23,1.04-2.68,2.39-2.68c0.97,0,1.64,0.71,1.64,1.6V335.39z"/>
	<path id="XMLID_45_" class="st0" d="M151.35,353.36c0-3.32,2.08-6.86,4.44-9.13c2.27-2.24,5.62-3.99,8.75-3.99
		c1.15,0,2.09,0.41,2.65,1.23c0.49-1.61,0.97-3.21,1.45-4.78c0.07-0.33,0.34-1.15,0.34-1.45c0-0.93-0.89-1.01-1.49-1.01
		c-0.67,0-1.12-0.04-1.12-0.49c0-0.59,0.71-0.59,1.16-0.63c1.16-0.04,3.09-0.38,4.32-1.05c0.48-0.22,1.01-0.56,1.27-0.56
		c0.25,0,0.37,0.18,0.37,0.44c0,0.23-0.15,0.75-0.22,1.04c-1.98,6.41-3.92,12.82-5.85,19.23c-0.18,0.6-0.49,1.6-0.49,2.02
		c0,0.37,0.15,0.56,0.49,0.56c0.71,0,2.13-1.83,2.68-2.72c0.38-0.56,0.63-0.93,0.93-0.93c0.26,0,0.3,0.23,0.3,0.38
		c0,0.7-1.08,2.23-1.64,2.87c-1.08,1.27-3.32,3.39-5.22,3.39c-0.93,0-1.34-0.56-1.34-1.57c0-1.01,0.34-2.24,0.63-3.24
		c0.44-1.45,0.93-2.94,1.38-4.32l-0.07-0.08c-2.01,2.87-6.11,9.21-10.32,9.21c-2.5,0-3.39-2.42-3.39-4.4V353.36z M166.67,342.96
		c0-1.04-0.97-1.6-1.93-1.6c-2.35,0-5,2.2-6.49,4.1c-1.52,1.97-3.02,4.99-3.02,7.41c0,0.97,0.3,2.12,1.53,2.12
		c2.24,0,5.07-3.57,6.45-5.33c1.05-1.42,3.47-5.07,3.47-6.67V342.96z"/>
	<path id="XMLID_42_" class="st0" d="M182.54,341.73c0,0.63-0.37,1.86-0.59,2.61c-0.86,2.76-1.79,5.59-2.65,8.31
		c-0.19,0.6-0.37,1.15-0.37,1.57c0,0.37,0.11,0.67,0.45,0.67c0.67,0,1.93-1.49,2.65-2.57c0.41-0.67,0.74-1.2,1.05-1.2
		c0.25,0,0.33,0.19,0.33,0.38c0,0.63-1.08,2.09-1.53,2.72c-1.08,1.34-3.39,3.58-5.29,3.58c-1.26,0-1.53-0.82-1.53-1.79
		c0-0.86,0.37-2.2,0.67-3.17c0.86-2.76,1.79-5.59,2.57-8.16c0.11-0.33,0.34-0.93,0.34-1.19c0-0.3-0.11-0.64-0.45-0.64
		c-0.6,0-1.45,0.86-2.09,1.57c-0.78,0.82-1.34,1.57-1.63,1.57c-0.19,0-0.3-0.19-0.3-0.38c0-0.52,1.38-2.09,1.86-2.57
		c1.08-1.04,3.28-2.79,5.03-2.79c0.93,0,1.49,0.49,1.49,1.46V341.73z M184.48,335.39c0,1.23-1.08,2.65-2.46,2.65
		c-1.04,0-1.57-0.78-1.57-1.6c0-1.23,1.05-2.68,2.39-2.68c0.97,0,1.64,0.71,1.64,1.6V335.39z"/>
	<path id="XMLID_39_" class="st0" d="M185.08,353.81c0-3.05,2.08-6.74,4.28-9.02c2.31-2.42,5.62-4.47,8.91-4.47
		c2.16,0,2.65,1.2,2.9,1.2c0.15,0,0.3-0.6,0.53-1.08c0.15-0.3,0.3-0.41,0.71-0.45c0.56-0.04,1.34-0.07,1.89-0.07
		c0.41,0,0.75,0.11,0.75,0.48c0,0.19-0.15,0.64-0.23,0.9c-1.12,3.73-2.39,7.72-3.54,11.52c-0.15,0.41-0.33,1.04-0.33,1.38
		c0,0.3,0.11,0.52,0.33,0.52c0.82,0,2.39-2.05,2.84-2.72c0.25-0.37,0.52-0.78,0.82-0.78c0.22,0,0.37,0.19,0.37,0.41
		c0,0.71-1.45,2.65-2.2,3.35c-1.12,1.12-3.2,2.79-4.92,2.79c-0.93,0-1.23-0.7-1.23-1.38c0-0.67,0.18-1.42,0.41-2.09
		c0.67-2.16,1.38-4.4,2.08-6.67h-0.07c-2.16,3.62-7,10.18-11.22,10.18c-1.98,0-3.09-1.87-3.09-3.95V353.81z M200.7,343.07
		c0-1.12-0.93-1.67-2.09-1.67c-2.39,0-4.81,2.35-6.33,4.28c-1.38,1.71-3.17,5.11-3.17,7.23c0,0.89,0.44,1.97,1.49,1.97
		c1.97,0,4.99-3.5,6.3-5.14c1.11-1.34,3.8-5.11,3.8-6.64V343.07z"/>
	<path id="XMLID_38_" class="st0" d="M224.1,342.4c0,1.23-0.82,2.61-2.12,2.61c-0.41,0-0.67-0.08-0.86-0.23
		c-0.41-0.37-0.56-0.89-0.71-1.34c-0.07-0.19-0.19-0.3-0.41-0.3c-0.89,0-2.87,2.91-3.46,3.95c-1.27,2.05-3.39,6.15-4.14,8.57
		c-0.45,1.38-0.41,1.68-2.16,1.68c-0.78,0-1.64,0.04-1.64-0.64c0-0.26,0.22-0.97,0.29-1.23c1.05-3.36,2.08-6.71,3.1-10.06
		c0.18-0.6,0.45-1.42,0.45-2.01c0-0.34-0.12-0.75-0.49-0.75c-0.56,0-1.5,0.97-2.05,1.68c-0.41,0.52-0.56,0.78-0.89,1.19
		c-0.15,0.18-0.34,0.52-0.56,0.52c-0.22,0-0.37-0.19-0.37-0.38c0-0.67,1.41-2.42,2.01-3.02c0.89-0.97,2.68-2.42,4.06-2.42
		c1.08,0,1.72,1.16,1.72,2.31c0,1.53-1.15,4.66-1.9,7.08h0.08c1.42-2.57,4.77-9.4,7.98-9.4c1.26,0,2.08,0.82,2.08,2.13V342.4z"/>
	<path id="XMLID_37_" class="st0" d="M241.84,342.81c0,4.32-5.52,10.96-8.5,14.46c-0.63,0.78-1.34,1.57-1.98,2.31
		c-2.34,2.68-5.59,6.19-8.83,6.19c-1.3,0-2.91-0.86-2.91-2.2c0-0.82,0.71-1.53,1.57-1.53c0.86,0,1.3,0.52,1.72,1.04
		c0.41,0.45,0.82,0.89,1.53,0.89c1.68,0,3.39-2.05,4.1-3.35c0.52-0.97,0.86-2.09,0.96-3.21c0.07-1.57,0.12-3.24,0.12-4.92
		c-0.07-1.79-0.19-9.88-1.79-9.88c-0.93,0-2.09,1.97-2.39,2.61c-0.15,0.3-0.41,1.04-0.82,1.04c-0.27,0-0.34-0.26-0.34-0.45
		c0-0.7,0.97-2.23,1.42-2.83c0.93-1.23,2.39-2.76,4.06-2.76c1.67,0,2.38,2.39,2.8,4.1c0.41,1.97,0.59,4.88,0.59,7.3
		c0,1.3-0.15,2.61-0.19,4.32l0.04,0.07c1.42-1.75,2.72-3.47,3.92-5.07c1.15-1.72,2.42-3.69,2.42-5.63c0-0.71-0.26-1.23-0.45-1.64
		c-0.33-0.67-0.56-1.04-0.56-1.57c0-0.97,0.67-1.9,1.72-1.9c1.34,0,1.79,1.57,1.79,2.53V342.81z"/>
	<path id="XMLID_34_" class="st0" d="M270.5,347.58c0,2.5-1.23,5.11-3.05,6.9c-1.86,1.83-4.73,3.32-7.38,3.32
		c-4.18,0-6.79-3.5-6.79-7.3c0-5.29,4.96-10.25,10.22-10.25c4.14,0,7,3.43,7,7.31V347.58z M267.08,345.49
		c0-2.09-0.75-4.18-3.25-4.18c-1.9,0-3.47,1.27-4.62,3.02c-1.57,2.31-2.39,5.52-2.39,7.79c0,2.2,0.71,4.51,3.28,4.51
		c1.86,0,3.43-1.37,4.63-3.24c1.45-2.35,2.35-5.59,2.35-7.87V345.49z"/>
	<path id="XMLID_33_" class="st0" d="M290.59,333.9c0,1.05-0.75,1.79-1.83,1.79c-0.93,0-1.34-0.41-1.61-0.93
		c-0.18-0.41-0.26-0.93-0.37-1.34c-0.07-0.34-0.26-0.64-0.74-0.64c-0.56,0-1.31,0.53-1.75,1.12c-1.01,1.12-1.6,3.17-2.08,4.74
		c-0.22,0.7-0.45,1.41-0.68,2.16h2.98c0.49,0,0.86,0,0.86,0.3c0,0.18-0.07,0.41-0.22,0.75c-0.07,0.3-0.56,0.3-0.86,0.3h-3.17
		c-1.42,4.78-2.84,9.62-4.32,14.42c-0.67,2.28-1.49,4.4-2.87,6.11c-1.64,1.94-4.1,3.17-6.19,3.17c-1.94,0-3.39-0.86-3.39-2.46
		c0-1.08,0.67-1.98,1.82-1.98c1.12,0,1.68,0.64,1.91,1.46c0.03,0.26,0.07,0.56,0.07,0.86c0.03,0.52,0.03,1.01,0.67,1.01
		c0.63,0,1.46-0.75,1.94-1.61c0.9-1.49,1.83-4.47,2.35-6.18c1.49-4.96,2.98-9.92,4.47-14.8h-2.35c-0.52,0-0.75-0.04-0.75-0.3
		c0-0.26,0.12-0.6,0.22-0.75c0.15-0.3,0.45-0.3,0.93-0.3h2.35c0.75-2.39,1.72-4.88,3.54-6.63c1.46-1.31,3.99-2.65,5.92-2.65
		c1.68,0,3.14,0.71,3.14,2.34V333.9z"/>
	<path id="XMLID_29_" class="st0" d="M311.16,344.67c3.13,0.19,6.15,1.68,6.15,5.52c0,2.35-1.53,4.4-3.39,5.63
		c-1.86,1.23-4.85,1.61-7.01,1.61c-1.49,0-3.92-0.07-6.45-0.11c-2.16,0-4.4,0.11-5.85,0.11c-0.64,0-1.23,0-1.23-0.45
		c0-0.78,0.93-0.78,1.71-0.9c1.79-0.04,2.05-1.12,2.61-3.06c1.54-4.92,3.02-9.84,4.51-14.72c0.15-0.56,0.45-1.49,0.45-1.94
		c0-1.04-0.97-1-1.68-1.04c-0.56-0.04-1.26,0-1.26-0.56c0-0.56,0.56-0.67,1.04-0.67c1.27,0.04,3.09,0.11,4.54,0.15
		c2.91-0.04,5.48-0.15,7.86-0.15c3.47,0,5.82,1.75,5.82,4.32c0,3.88-4.77,5.78-7.83,6.19V344.67z M301.99,352.61
		c-0.19,0.67-0.41,1.45-0.41,2.16c0,1.49,2.24,1.34,3.32,1.34c1.97,0,4.02-0.23,5.66-1.6c1.42-1.23,2.35-3.09,2.35-5.07
		c0-3.39-2.84-4.02-5.93-4.02c-2.12,0-2.68,0-2.76,0.07c-0.08,0.07-0.38,1.04-0.71,2.08L301.99,352.61z M310.23,335.28
		c-0.41,0-2.35,0.04-2.79,0.3c-0.37,0.18-0.56,1.08-0.71,1.68l-1.56,4.95c-0.19,0.71-0.41,1.42-0.64,2.09c0.64,0,1.26-0.04,1.9-0.04
		c2.2-0.04,4.25-0.23,6-1.46c1.42-1.08,2.42-2.83,2.42-4.55c0-2.57-2.46-2.98-4.58-2.98H310.23z"/>
	<path id="XMLID_26_" class="st0" d="M342.8,338.45c0,3.32-2.72,5.63-5.59,6.86c-0.93,0.41-1.98,0.86-2.72,0.97v0.08
		c0.52,0.15,1.05,1,1.3,1.83c0.75,1.98,1.46,3.95,2.16,5.97c0.45,1.19,0.63,1.94,2.17,2.01c0.4,0.04,1.04,0.07,1.04,0.63
		c0,0.52-0.59,0.6-0.96,0.6c-0.45,0-1.49-0.08-2.28-0.08c-1.08,0-1.98,0.08-2.53,0.08c-0.75,0-0.83-0.48-1.09-1.23
		c-0.86-2.42-1.71-4.85-2.57-7.27c-0.26-0.75-0.56-1.75-0.82-1.79c-0.15,0-2.08,0.22-2.83,0.3c-0.11,0.41-0.23,0.86-0.38,1.27
		l-1.45,4.77c-0.15,0.48-0.37,1.26-0.37,1.72c0,1.12,1.04,1.12,1.75,1.12c0.49,0,1.23,0.04,1.23,0.55c0,0.6-0.74,0.64-1.11,0.64
		c-1.38-0.04-3.13-0.11-4.85-0.15c-1.35,0.04-2.76,0.11-3.84,0.15c-0.26,0-1.23,0.15-1.23-0.45c0-0.67,0.49-0.71,1.53-0.74
		c1.71-0.04,2.09-0.79,2.75-3.06c1.53-5.03,3.06-10.06,4.55-15.09c0.15-0.41,0.45-1.3,0.45-1.75c0-0.93-0.9-0.97-1.68-1.04
		c-0.53,0-1.34,0.07-1.34-0.64c0-0.59,0.7-0.67,1.15-0.67c1.64,0,3.76,0.12,5.85,0.12c1.94,0,3.69-0.12,5.85-0.11
		c2.8,0,5.85,1.01,5.85,4.39V338.45z M338.37,338.56c0-2.98-1.67-3.31-4.17-3.31c-2.39,0-2.43,0.04-2.87,1.45l-2.24,7.39
		c-0.23,0.7-0.41,1.34-0.6,2.08c0.37,0,0.82-0.07,1.2-0.11c1.86-0.11,3.65-0.64,5.29-1.71c1.97-1.27,3.39-3.32,3.39-5.74V338.56z"/>
	<path id="XMLID_23_" class="st0" d="M350.67,348.78c-0.26,0-0.34,0-0.52,0.22c-0.93,1.12-1.91,2.54-2.88,3.84
		c-0.45,0.64-0.93,1.42-0.93,2.12c0,0.93,0.97,1.08,1.83,1.23c0.67,0.11,1.3,0.18,1.3,0.71c0,0.48-0.52,0.56-0.96,0.56
		c-1.42,0-2.84-0.15-4.21-0.15c-1.15,0-2.43,0.15-3.28,0.15c-0.66,0-0.81-0.3-0.81-0.52c0-0.49,0.55-0.56,1.04-0.71
		c1.83-0.34,2.69-1.68,3.99-3.28c4.76-6.07,9.66-12.22,14.46-18.37c0.49-0.67,0.89-0.97,1.75-0.97c0.75,0,0.78,0.78,0.78,1.15
		c0.12,5.18,0.15,13.34,0.27,18.64c0.07,2.23,0.18,2.72,1.49,2.83c0.67,0.11,1.23,0.07,1.23,0.59c0,0.6-0.56,0.64-0.93,0.64
		c-1.2,0-2.84-0.15-4.33-0.15c-1.52,0-2.75,0.15-3.76,0.15c-0.52,0-1.08,0-1.08-0.52c0-0.63,0.71-0.63,1.67-0.71
		c0.97-0.04,1.71-0.41,1.76-2.2c0-1.75-0.12-3.5-0.15-5.25H350.67z M358.2,338.71l-0.04-0.04c-2.27,2.94-4.51,5.81-6.78,8.72h7.01
		L358.2,338.71z"/>
	<path id="XMLID_22_" class="st0" d="M387,351.27c1.23-4.17,2.5-8.31,3.73-12.48c0.22-0.75,0.52-1.72,0.52-2.54
		c0-0.93-1.04-0.97-1.94-0.97c-0.44,0-0.93-0.11-0.93-0.6c0-0.59,0.68-0.59,1.24-0.59c0.59,0,1.7,0.15,2.83,0.15
		c1.08,0,2.5-0.15,3.24-0.15c0.3,0,0.75,0.04,0.75,0.55c0,0.6-0.6,0.64-1.49,0.67c-1.38,0.04-1.79,0.3-2.69,3.24
		c-1.86,6.15-3.73,12.3-5.55,18.42c-0.12,0.41-0.19,0.74-0.86,0.74c-0.83,0-0.83-0.26-1.05-0.67l-8.76-19.98h-0.07
		c-1.15,3.99-2.35,7.98-3.54,12.04c-0.45,1.53-1.23,4.18-1.23,5.7c0,1.12,0.81,1.38,1.82,1.46c0.56,0.04,1.01,0.15,1.01,0.59
		c0,0.56-0.49,0.6-0.82,0.6c-0.6,0-2.24-0.15-3.43-0.15c-1.01,0-2.23,0.15-2.84,0.15c-0.44,0-1.04,0-1.04-0.56
		c0-0.45,0.32-0.56,0.86-0.63c0.78-0.07,1.41-0.19,1.89-0.82c0.68-0.89,1.12-2.5,1.49-3.73c1.38-4.47,2.75-8.91,4.1-13.38
		c0.19-0.63,0.52-1.71,0.52-2.23c0-0.78-0.81-0.82-1.38-0.82c-0.52,0-1.15-0.04-1.15-0.71c0-0.44,0.52-0.48,1-0.48
		c0.59,0,1.52,0.07,2.58,0.07c1,0,2.05-0.07,2.64-0.07c0.86,0,0.93,0.59,1.27,1.38c2.38,5.26,4.81,10.51,7.19,15.8H387z"/>
	<path id="XMLID_19_" class="st0" d="M400.05,338.23c0.19-0.6,0.44-1.41,0.44-1.86c0-1.12-1.04-1.04-1.74-1.04
		c-0.41,0-1.27,0-1.27-0.64c0-0.59,0.68-0.59,1.12-0.59c2.01,0,4.02,0.15,6.03,0.15c1.94,0,3.92-0.15,5.86-0.15
		c2.23,0,4.25,0.44,5.89,1.6c2.35,1.6,3.69,4.29,3.69,7.08c0,4.07-1.98,8.13-5.07,10.81c-3.28,2.87-7.2,3.88-11.67,3.88
		c-2.05-0.04-4.29-0.11-6.96-0.15c-1.57,0.04-2.84,0.11-3.92,0.15c-0.37,0-1.35,0.11-1.35-0.48c0-0.71,0.53-0.71,1.79-0.75
		c1.72-0.04,2.01-1.04,2.57-2.87L400.05,338.23z M400.05,352.13c-0.22,0.78-0.67,2.13-0.67,2.83c0,1.42,1.9,1.38,2.98,1.38
		c3.77,0,7.12-1.01,9.69-4.21c2.16-2.68,3.73-6.97,3.73-10.43c0-4.4-2.87-6.37-7.01-6.37c-1.49,0-3.06,0-3.46,0.3
		c-0.38,0.3-0.56,1.04-0.78,1.71L400.05,352.13z"/>
	<path id="XMLID_18_" class="st0" d="M437.31,355.15c0,1.04,1.02,1.08,1.79,1.12c0.53,0,1.16,0,1.16,0.55c0,0.6-0.63,0.64-1.08,0.64
		c-1.31-0.04-2.88-0.11-4.82-0.15c-1.38,0.04-2.75,0.11-3.9,0.15c-0.49,0-1.27,0.04-1.27-0.48c0-0.67,0.67-0.71,1.91-0.75
		c1.67-0.11,1.94-1.31,2.46-3.06l4.58-15.06c0.19-0.56,0.41-1.34,0.41-1.83c0-1.01-0.97-1.01-2.13-1.01
		c-0.41,0.04-1.05-0.04-1.05-0.67c0-0.67,1.05-0.52,1.42-0.52c1.15,0.04,2.39,0.11,3.95,0.15c1.83-0.04,3.32-0.11,4.78-0.15
		c0.29,0,0.89,0.04,0.89,0.55c0,0.67-0.77,0.64-1.41,0.67c-1.94,0.07-2.13,0.97-2.72,2.87l-4.26,14.2
		c-0.18,0.59-0.71,2.12-0.71,2.72V355.15z"/>
	<path id="XMLID_17_" class="st0" d="M463,351.27c1.23-4.17,2.5-8.31,3.73-12.48c0.22-0.75,0.52-1.72,0.52-2.54
		c0-0.93-1.04-0.97-1.94-0.97c-0.44,0-0.93-0.11-0.93-0.6c0-0.59,0.68-0.59,1.23-0.59c0.6,0,1.71,0.15,2.84,0.15
		c1.08,0,2.5-0.15,3.24-0.15c0.3,0,0.75,0.04,0.75,0.55c0,0.6-0.6,0.64-1.49,0.67c-1.38,0.04-1.79,0.3-2.69,3.24
		c-1.86,6.15-3.73,12.3-5.55,18.42c-0.12,0.41-0.19,0.74-0.86,0.74c-0.83,0-0.83-0.26-1.05-0.67l-8.75-19.98h-0.07
		c-1.15,3.99-2.35,7.98-3.53,12.04c-0.46,1.53-1.24,4.18-1.24,5.7c0,1.12,0.83,1.38,1.83,1.46c0.56,0.04,1,0.15,1,0.59
		c0,0.56-0.48,0.6-0.82,0.6c-0.59,0-2.23-0.15-3.42-0.15c-1.01,0-2.24,0.15-2.84,0.15c-0.45,0-1.05,0-1.05-0.56
		c0-0.45,0.34-0.56,0.86-0.63c0.79-0.07,1.42-0.19,1.91-0.82c0.66-0.89,1.12-2.5,1.49-3.73c1.38-4.47,2.75-8.91,4.1-13.38
		c0.19-0.63,0.52-1.71,0.52-2.23c0-0.78-0.81-0.82-1.37-0.82c-0.52,0-1.16-0.04-1.16-0.71c0-0.44,0.52-0.48,1.01-0.48
		c0.59,0,1.52,0.07,2.57,0.07c1.01,0,2.04-0.07,2.65-0.07c0.86,0,0.93,0.59,1.27,1.38c2.38,5.26,4.81,10.51,7.19,15.8H463z"/>
	<path id="XMLID_16_" class="st0" d="M473.17,340.24c0-4.62,4.88-6.71,8.95-6.71c1.6,0,3.53,0.26,5.03,0.93
		c0.44,0.18,0.93,0.37,0.93,0.89c0,0.26-0.15,0.82-0.25,1.12c-0.15,0.71-0.38,1.46-0.48,2.05c-0.12,0.34-0.22,1.16-0.78,1.16
		c-0.56,0-0.56-0.64-0.64-1.01c-0.07-0.93-0.11-1.79-0.78-2.68c-0.71-0.93-1.86-1.27-3.09-1.27c-2.23,0-4.88,1.34-4.88,3.76
		c0,1.98,1.52,3.32,3.68,5.15c2.13,1.83,4.18,3.73,4.18,6.63c0,4.47-4.7,7.53-9.51,7.53c-1.54,0-3.99-0.49-5.59-1.2
		c-0.56-0.3-1.15-0.52-1.15-1.19c0-0.78,0.33-2.24,0.44-3.28c0.1-0.78,0.22-1.41,0.71-1.41c0.64,0,0.71,0.59,0.82,1.23
		c0.15,0.97,0.27,2.05,0.86,2.87c0.93,1.16,2.31,1.72,3.87,1.72c2.76,0,5.29-1.75,5.29-4.62c0-2.12-1.45-3.58-3.43-5.29
		c-2.04-1.75-4.17-3.54-4.17-6.34V340.24z"/>
	<path id="XMLID_15_" class="st0" d="M499.82,335.51h-1.75c-1.76,0-3.21,0.04-4.66,1.15c-0.75,0.52-1.46,1.34-1.95,2.2
		c-0.25,0.48-0.47,1-0.96,1c-0.34,0-0.56-0.18-0.56-0.56c0-0.44,1.3-4.25,1.68-5.52c0.11-0.37,0.3-1.12,0.89-1.12
		c0.56,0,0.45,0.64,0.74,1.15c0.23,0.45,0.83,0.41,2.2,0.41h12.86c0.96,0,1.94-0.04,2.5-0.3c1.01-0.44,1.04-1.26,1.63-1.26
		c0.27,0,0.49,0.18,0.49,0.49c0,0.56-1.15,3.91-1.57,5.36c-0.18,0.6-0.33,1.2-0.96,1.2c-0.56,0-0.56-0.52-0.56-0.86v-1.31
		c0-2.01-0.74-2.05-2.94-2.05h-2.87l-5.37,17.7c-0.12,0.45-0.41,1.38-0.41,1.87c0,1.04,1.01,1.08,1.91,1.15
		c0.44,0,1.15,0.04,1.15,0.59c0,0.56-0.56,0.64-1.12,0.64c-1.49-0.04-3.05-0.11-4.54-0.15c-1.46,0.04-3.02,0.11-4.14,0.15
		c-0.37,0-1.35,0.11-1.35-0.48c0-0.75,0.71-0.75,1.71-0.78c1.76-0.04,2.08-1.23,2.61-3.06L499.82,335.51z"/>
	<path id="XMLID_14_" class="st0" d="M514.99,355.15c0,1.04,1.01,1.08,1.79,1.12c0.52,0,1.16,0,1.16,0.55c0,0.6-0.64,0.64-1.08,0.64
		c-1.3-0.04-2.87-0.11-4.8-0.15c-1.39,0.04-2.77,0.11-3.92,0.15c-0.49,0-1.27,0.04-1.27-0.48c0-0.67,0.68-0.71,1.9-0.75
		c1.67-0.11,1.94-1.31,2.46-3.06l4.59-15.06c0.19-0.56,0.41-1.34,0.41-1.83c0-1.01-0.98-1.01-2.13-1.01
		c-0.4,0.04-1.04-0.04-1.04-0.67c0-0.67,1.04-0.52,1.42-0.52c1.15,0.04,2.38,0.11,3.95,0.15c1.82-0.04,3.31-0.11,4.76-0.15
		c0.3,0,0.9,0.04,0.9,0.55c0,0.67-0.79,0.64-1.42,0.67c-1.94,0.07-2.13,0.97-2.72,2.87l-4.24,14.2c-0.19,0.59-0.71,2.12-0.71,2.72
		V355.15z"/>
	<path id="XMLID_13_" class="st0" d="M533.7,335.51h-1.75c-1.76,0-3.21,0.04-4.67,1.15c-0.74,0.52-1.45,1.34-1.94,2.2
		c-0.25,0.48-0.47,1-0.96,1c-0.34,0-0.56-0.18-0.56-0.56c0-0.44,1.3-4.25,1.68-5.52c0.1-0.37,0.3-1.12,0.89-1.12
		c0.56,0,0.44,0.64,0.74,1.15c0.23,0.45,0.83,0.41,2.2,0.41h12.86c0.97,0,1.94-0.04,2.5-0.3c1-0.44,1.04-1.26,1.63-1.26
		c0.26,0,0.48,0.18,0.48,0.49c0,0.56-1.15,3.91-1.56,5.36c-0.18,0.6-0.33,1.2-0.96,1.2c-0.56,0-0.56-0.52-0.56-0.86v-1.31
		c0-2.01-0.74-2.05-2.94-2.05h-2.87l-5.36,17.7c-0.12,0.45-0.41,1.38-0.41,1.87c0,1.04,1,1.08,1.9,1.15c0.44,0,1.15,0.04,1.15,0.59
		c0,0.56-0.56,0.64-1.12,0.64c-1.49-0.04-3.05-0.11-4.54-0.15c-1.46,0.04-3.02,0.11-4.14,0.15c-0.37,0-1.35,0.11-1.35-0.48
		c0-0.75,0.71-0.75,1.72-0.78c1.76-0.04,2.09-1.23,2.62-3.06L533.7,335.51z"/>
	<path id="XMLID_12_" class="st0" d="M545.4,352.47c0-1.53,0.45-2.99,1.01-4.92c0.97-3.2,1.94-6.37,2.91-9.54
		c0.12-0.49,0.41-1.27,0.41-1.72c0-0.93-0.97-1.01-1.71-1.01c-0.53,0-1.12-0.11-1.12-0.64c0-0.41,0.52-0.55,1.3-0.55
		c1.24,0,2.72,0.15,4.4,0.15c1.57,0,2.94-0.15,4.17-0.15c0.34,0,0.93,0.04,0.93,0.55c0,0.6-0.71,0.6-1.2,0.67
		c-2.19,0.04-2.49,0.97-3.02,2.79c-1.08,3.65-2.16,7.31-3.28,10.99c-0.37,1.27-0.85,2.72-0.85,3.91c0,2.61,2.49,3.5,4.84,3.5
		c5.29,0,6.67-3.28,7.9-7.42c1.02-3.28,1.95-6.56,2.91-9.8c0.22-0.75,0.64-2.2,0.64-2.91c0-1.08-0.79-1.12-2.09-1.15
		c-0.48,0-0.9-0.15-0.9-0.6c0-0.52,0.63-0.55,1.08-0.55c0.83,0,1.86,0.15,2.91,0.15c1.15,0,2.2-0.15,3.06-0.15
		c0.37,0,0.78,0.04,0.78,0.55c0,0.56-0.41,0.6-1.34,0.64c-1.35,0.08-1.57,0.15-2.31,2.72c-1.12,3.58-2.2,7.16-3.28,10.77
		c-0.63,2.12-1.35,4.77-2.99,6.45c-1.75,1.72-4.36,2.57-7.16,2.57c-3.21,0-8.01-1.23-8.01-5.29V352.47z"/>
	<path id="XMLID_11_" class="st0" d="M579.35,335.51h-1.75c-1.76,0-3.21,0.04-4.66,1.15c-0.75,0.52-1.45,1.34-1.94,2.2
		c-0.26,0.48-0.48,1-0.97,1c-0.33,0-0.56-0.18-0.56-0.56c0-0.44,1.32-4.25,1.69-5.52c0.1-0.37,0.3-1.12,0.89-1.12
		c0.56,0,0.45,0.64,0.75,1.15c0.22,0.45,0.82,0.41,2.2,0.41h12.85c0.98,0,1.94-0.04,2.5-0.3c1-0.44,1.04-1.26,1.64-1.26
		c0.25,0,0.49,0.18,0.49,0.49c0,0.56-1.16,3.91-1.57,5.36c-0.19,0.6-0.34,1.2-0.97,1.2c-0.56,0-0.56-0.52-0.56-0.86v-1.31
		c0-2.01-0.74-2.05-2.94-2.05h-2.87l-5.37,17.7c-0.11,0.45-0.4,1.38-0.4,1.87c0,1.04,1.01,1.08,1.89,1.15
		c0.44,0,1.15,0.04,1.15,0.59c0,0.56-0.56,0.64-1.11,0.64c-1.49-0.04-3.06-0.11-4.55-0.15c-1.45,0.04-3.02,0.11-4.14,0.15
		c-0.37,0-1.33,0.11-1.33-0.48c0-0.75,0.71-0.75,1.71-0.78c1.75-0.04,2.09-1.23,2.61-3.06L579.35,335.51z"/>
	<path id="XMLID_10_" class="st0" d="M595.23,352.36c-0.26,0.89-0.56,1.75-0.56,2.53c0,1.31,1.08,1.31,2.99,1.31
		c1.79,0,4.32-0.15,5.7-0.86c1.31-0.67,2.24-2.05,2.91-3.32c0.22-0.41,0.41-0.71,0.82-0.71c0.4,0,0.55,0.26,0.55,0.6
		c0,0.18-0.11,0.56-0.25,1.08c-0.3,1-0.6,2.05-0.9,3.1c-0.22,0.9-0.44,1.34-1.42,1.34c-1.33,0-5.33-0.11-8.71-0.11
		c-5.34,0-7.23,0.11-8.65,0.11c-0.59,0-1.27,0-1.27-0.48c0-0.63,0.6-0.67,1.27-0.67c2.08-0.04,2.38-0.86,3.06-3.02
		c1.53-5.07,3.05-10.1,4.54-15.13c0.15-0.49,0.41-1.34,0.41-1.79c0-0.97-0.82-1.08-1.68-1.12c-0.59-0.04-1.34,0.04-1.34-0.56
		c0-0.55,0.59-0.63,1.04-0.63c1.98,0,4.51,0.19,8.35,0.15c3.17,0,5.85-0.15,7.97-0.15c0.41,0,0.75,0.11,0.75,0.48
		c0,0.49-0.71,2.65-1.12,3.84c-0.19,0.71-0.41,1.38-0.82,1.38c-0.56,0-0.63-0.38-0.68-0.89c0-1.38-0.22-2.39-0.89-2.91
		c-0.9-0.64-1.79-0.67-4.14-0.67c-1.83,0-2.2,0-2.58,0.22c-0.3,0.18-0.44,0.67-0.66,1.42l-2.32,7.56h3.32
		c2.24-0.04,2.95-0.26,4.1-2.35c0.37-0.7,0.56-1.12,1.04-1.12c0.23,0,0.53,0.19,0.53,0.52c0,0.37-0.45,1.41-0.56,1.75
		c-0.52,1.38-1.27,3.84-1.49,5.07c-0.11,0.41-0.22,1.34-0.86,1.34c-0.49,0-0.6-0.37-0.6-0.75c0-0.49,0.08-1.04,0.08-1.6
		c0-1.75-1.23-1.57-2.72-1.6h-3.24L595.23,352.36z"/>
	<path id="XMLID_9_" class="st0" d="M610.06,356.08c0-1.23,1.08-2.39,2.43-2.39c1.42,0,2.05,1.23,2.05,2.39
		c0,3.88-4.75,7.9-6.01,7.9c-0.27,0-0.48-0.15-0.48-0.37c0-0.45,1.49-1.16,2.57-2.35c0.96-1.08,1.79-2.53,1.79-3.17
		c0-0.34-0.07-0.52-0.41-0.52c-0.1,0-0.22,0.04-0.34,0.04c-0.07,0.04-0.18,0.07-0.33,0.07c-0.71,0-1.27-0.78-1.27-1.56V356.08z"/>
	<path id="XMLID_6_" class="st0" d="M634.83,341.73c0,0.63-0.38,1.86-0.6,2.61c-0.86,2.76-1.79,5.59-2.65,8.31
		c-0.18,0.6-0.37,1.15-0.37,1.57c0,0.37,0.11,0.67,0.44,0.67c0.68,0,1.94-1.49,2.65-2.57c0.41-0.67,0.75-1.2,1.05-1.2
		c0.26,0,0.34,0.19,0.34,0.38c0,0.63-1.09,2.09-1.54,2.72c-1.08,1.34-3.39,3.58-5.29,3.58c-1.26,0-1.53-0.82-1.53-1.79
		c0-0.86,0.37-2.2,0.67-3.17c0.86-2.76,1.79-5.59,2.57-8.16c0.12-0.33,0.34-0.93,0.34-1.19c0-0.3-0.12-0.64-0.44-0.64
		c-0.6,0-1.46,0.86-2.08,1.57c-0.79,0.82-1.35,1.57-1.64,1.57c-0.19,0-0.31-0.19-0.31-0.38c0-0.52,1.39-2.09,1.86-2.57
		c1.09-1.04,3.28-2.79,5.04-2.79c0.93,0,1.49,0.49,1.49,1.46V341.73z M636.77,335.39c0,1.23-1.08,2.65-2.47,2.65
		c-1.04,0-1.57-0.78-1.57-1.6c0-1.23,1.05-2.68,2.39-2.68c0.97,0,1.64,0.71,1.64,1.6V335.39z"/>
	<path id="XMLID_5_" class="st0" d="M658.2,342.66c0,0.78-0.37,1.75-0.63,2.5c-0.86,2.31-1.76,4.66-2.65,7.08
		c-0.34,0.79-0.67,1.6-0.67,2.13c0,0.45,0.25,0.71,0.67,0.71c0.78,0,2.01-1.31,2.76-2.24c0.48-0.6,1.04-1.57,1.41-1.57
		c0.22,0,0.37,0.19,0.37,0.38c0,0.59-0.67,1.56-1.82,2.79c-1.16,1.27-3.54,3.36-5.4,3.36c-0.97,0-1.86-0.49-1.86-1.79
		c0-1.2,0.47-2.61,0.96-3.81c0.78-2.08,1.6-4.21,2.42-6.45c0.22-0.63,0.59-1.56,0.59-2.2c0-0.71-0.41-1.15-1.11-1.15
		c-1.68,0-3.88,2.49-5.14,4.13c-1.79,2.2-4.29,6.56-5.19,9.35c-0.37,1.23-0.47,1.46-1.82,1.46h-0.74c-0.56,0-1.16,0-1.16-0.52
		c0-0.22,0.19-0.85,0.26-1.04c1.12-3.42,2.2-6.89,3.24-10.32c0.22-0.64,0.45-1.38,0.45-1.94c0-0.41-0.19-0.78-0.68-0.78
		c-0.67,0-2.09,1.49-2.83,2.46c-0.26,0.37-0.63,1-0.86,1c-0.22,0-0.41-0.15-0.41-0.38c0-0.48,1.23-2.12,1.71-2.6
		c1.08-1.2,3.09-2.99,4.85-2.99c1.19,0,1.75,0.71,1.75,1.94c0,0.97-0.26,2.02-0.56,2.95c-0.44,1.49-0.93,2.98-1.42,4.55l0.07,0.07
		c2.05-3.65,6.2-9.51,10.78-9.51c1.57,0,2.65,0.97,2.65,2.39V342.66z"/>
	<path id="XMLID_4_" class="st0" d="M677.72,342.4c0,0.82-0.82,1.41-1.63,1.41c-0.75,0-1.27-0.26-1.68-0.59
		c-0.37-0.38-0.67-0.75-0.89-1.16c-0.31-0.41-0.63-0.75-1.16-0.75c-1.3,0-2.9,1.49-3.88,2.72c-1.57,1.9-2.87,4.99-2.87,7.46
		c0,2.23,1.12,3.95,3.32,3.95c1.89,0,3.58-1.04,4.73-2.16c1.08-0.97,1.75-1.9,2.12-1.9c0.19,0,0.34,0.19,0.34,0.37
		c0,0.56-1.08,1.83-1.49,2.31c-1.75,1.91-4.21,3.73-7.08,3.73c-3.5,0-5.85-2.91-5.85-6.22c0-2.72,1.45-5.55,3.5-7.61
		c1.97-1.97,5.1-3.73,8.24-3.73c1.82,0,4.28,0.71,4.28,2.13V342.4z"/>
	<path id="XMLID_3_" class="st0" d="M684.66,355.3c0,1.23-0.97,2.5-2.38,2.5c-1.2,0-1.71-0.78-1.71-1.75c0-1.23,0.93-2.54,2.35-2.54
		c1.08,0,1.75,0.71,1.75,1.75V355.3z"/>
</g>
</svg>
