<?xml version="1.0" encoding="utf-8"?>
<!-- Generator: Adobe Illustrator 24.0.3, SVG Export Plug-In . SVG Version: 6.00 Build 0)  -->
<svg version="1.1" id="Layer_1" xmlns="http://www.w3.org/2000/svg" xmlns:xlink="http://www.w3.org/1999/xlink" x="0px" y="0px"
	 viewBox="0 0 1920 1080" style="enable-background:new 0 0 1920 1080;" xml:space="preserve">
<style type="text/css">
	.st0{clip-path:url(#SVGID_2_);fill:#101010;}
	.st1{clip-path:url(#SVGID_2_);}
	.st2{clip-path:url(#SVGID_4_);fill:#FFFFFF;}
	.st3{clip-path:url(#SVGID_4_);fill:#282828;}
	.st4{clip-path:url(#SVGID_4_);fill:none;stroke:#BB3B39;stroke-width:0.75;stroke-miterlimit:10;}
	.st5{clip-path:url(#SVGID_4_);fill:#B93B39;}
	.st6{fill:#FFFFFF;}
	.st7{clip-path:url(#SVGID_6_);fill:#282828;}
	.st8{clip-path:url(#SVGID_6_);fill:#FFFFFF;}
	.st9{clip-path:url(#SVGID_8_);}
	.st10{fill:#BB3B39;}
	.st11{clip-path:url(#SVGID_8_);fill:#FFFFFF;}
	.st12{clip-path:url(#SVGID_8_);fill:none;stroke:#BB3B39;stroke-width:0.75;stroke-miterlimit:10;}
	.st13{clip-path:url(#SVGID_10_);fill:none;stroke:#BB3B39;stroke-width:0.75;stroke-miterlimit:10;}
	.st14{clip-path:url(#SVGID_10_);fill:none;stroke:#FFFFFF;stroke-miterlimit:10;}
	.st15{fill:#C03D3A;}
	.st16{fill:#C03C39;}
	.st17{fill:#152828;}
	.st18{fill:url(#SVGID_11_);}
	.st19{fill:url(#SVGID_12_);}
	.st20{fill:url(#SVGID_13_);}
	.st21{fill:#1C1D21;}
	.st22{fill:#1D1D1D;}
	.st23{fill:url(#SVGID_14_);}
	.st24{fill:url(#SVGID_15_);}
	.st25{fill:url(#SVGID_16_);}
	.st26{fill:url(#SVGID_17_);}
	.st27{fill:url(#SVGID_18_);}
	.st28{fill:url(#SVGID_19_);}
	.st29{fill:url(#SVGID_20_);}
	.st30{fill:url(#SVGID_21_);}
	.st31{fill:url(#SVGID_22_);}
	.st32{opacity:0.5;}
	.st33{opacity:0.5;fill:url(#SVGID_23_);}
	.st34{opacity:0.1;}
	.st35{fill:url(#SVGID_24_);}
	.st36{fill:url(#SVGID_25_);}
	.st37{fill:url(#SVGID_26_);}
	.st38{fill:url(#SVGID_27_);}
	.st39{fill:url(#SVGID_28_);}
	.st40{fill:url(#SVGID_29_);}
	.st41{fill:url(#SVGID_30_);}
	.st42{fill:url(#SVGID_31_);}
	.st43{fill:url(#SVGID_32_);}
	.st44{fill:url(#SVGID_33_);}
	.st45{fill:url(#SVGID_34_);}
	.st46{fill:url(#SVGID_35_);}
	.st47{fill:url(#SVGID_36_);}
	.st48{fill:url(#SVGID_37_);}
	.st49{fill:url(#SVGID_38_);}
	.st50{fill:url(#SVGID_39_);}
	.st51{fill:url(#SVGID_40_);}
	.st52{fill:url(#SVGID_41_);}
	.st53{fill:url(#SVGID_42_);}
	.st54{fill:url(#SVGID_43_);}
	.st55{fill:url(#SVGID_44_);}
	.st56{fill:url(#SVGID_45_);}
	.st57{fill:url(#SVGID_46_);}
	.st58{fill:url(#SVGID_47_);}
	.st59{fill:url(#SVGID_48_);}
	.st60{fill:#AFAFAF;}
</style>
<g>
	<g>
		<g>
			<g>
				<linearGradient id="SVGID_2_" gradientUnits="userSpaceOnUse" x1="960" y1="344.4801" x2="960" y2="691.3572">
					<stop  offset="0" style="stop-color:#163F41"/>
					<stop  offset="1" style="stop-color:#0B1E1E"/>
				</linearGradient>
				<path style="fill:url(#SVGID_2_);" d="M796.75,823.05h326.5c66.5,0,120.42-53.91,120.42-120.42v-326.5
					c0-66.51-53.91-120.42-120.42-120.42h-326.5c-66.51,0-120.42,53.91-120.42,120.42v326.5
					C676.33,769.14,730.24,823.05,796.75,823.05z"/>
			</g>
		</g>
		<g class="st32">
			<linearGradient id="SVGID_4_" gradientUnits="userSpaceOnUse" x1="960" y1="271.7737" x2="960" y2="771.3336">
				<stop  offset="0" style="stop-color:#FFFFFF;stop-opacity:0"/>
				<stop  offset="0.165" style="stop-color:#FFFFFF"/>
				<stop  offset="0.4939" style="stop-color:#FFFFFF;stop-opacity:0"/>
			</linearGradient>
			<path style="opacity:0.5;fill:url(#SVGID_4_);" d="M1123.55,257.33H796.45c-66.34,0-120.11,53.78-120.11,120.11v327.11
				c0,66.34,53.78,120.11,120.11,120.11h327.11c66.34,0,120.11-53.78,120.11-120.11V377.44
				C1243.67,311.11,1189.89,257.33,1123.55,257.33z"/>
		</g>
		<g class="st34">
			
				<linearGradient id="SVGID_6_" gradientUnits="userSpaceOnUse" x1="8364.8916" y1="-10830.415" x2="8932.2285" y2="-10830.415" gradientTransform="matrix(0 -1 1 0 11790.415 9187.5605)">
				<stop  offset="0" style="stop-color:#030000;stop-opacity:0"/>
				<stop  offset="0.1222" style="stop-color:#000000"/>
				<stop  offset="0.3557" style="stop-color:#030000;stop-opacity:0"/>
			</linearGradient>
			<path style="fill:url(#SVGID_6_);" d="M676.33,375.75v326.5c0,66.5,53.91,120.42,120.42,120.42h326.5
				c66.51,0,120.42-53.91,120.42-120.42v-326.5c0-66.51-53.91-120.42-120.42-120.42h-326.5
				C730.24,255.33,676.33,309.25,676.33,375.75z"/>
		</g>
	</g>
	<g>
		<g>
			<linearGradient id="SVGID_8_" gradientUnits="userSpaceOnUse" x1="702.2586" y1="702.3835" x2="1074.6022" y2="318.3587">
				<stop  offset="0" style="stop-color:#937042"/>
				<stop  offset="1" style="stop-color:#F6D37D"/>
			</linearGradient>
			<path style="fill:url(#SVGID_8_);" d="M983.98,567.09v-13.57h-83.69c-13.43,0-25.72-4.96-35.15-13.14
				c9.43-8.18,21.72-13.14,35.15-13.14h83.69v-13.57h-83.69c-7.66,0-13.9-6.23-13.9-13.89V412.3h-13.57v87.47
				c0,6.58,2.33,12.62,6.2,17.36c-8.54,2.85-16.31,7.36-22.95,13.16c-6-8.67-9.54-19.19-9.54-30.51V412.3h-13.57v87.47
				c0,15.24,5.1,29.31,13.67,40.6c-8.57,11.3-13.67,25.36-13.67,40.61v86.19h13.57v-86.19c0-11.33,3.53-21.84,9.54-30.51
				c6.64,5.8,14.41,10.31,22.95,13.16c-3.87,4.73-6.2,10.78-6.2,17.36v86.19h13.57v-86.19c0-7.66,6.23-13.9,13.9-13.9H983.98z"/>
			<linearGradient id="SVGID_10_" gradientUnits="userSpaceOnUse" x1="719.0887" y1="743.5648" x2="1148.5953" y2="300.5836">
				<stop  offset="0" style="stop-color:#937042"/>
				<stop  offset="1" style="stop-color:#F6D37D"/>
			</linearGradient>
			<rect x="905.75" y="452.15" style="fill:url(#SVGID_10_);" width="178.61" height="13.57"/>
			<linearGradient id="SVGID_11_" gradientUnits="userSpaceOnUse" x1="699.1716" y1="724.2531" x2="1128.6776" y2="281.2725">
				<stop  offset="0" style="stop-color:#937042"/>
				<stop  offset="1" style="stop-color:#F6D37D"/>
			</linearGradient>
			<rect x="905.75" y="412.3" class="st18" width="178.61" height="13.57"/>
			<linearGradient id="SVGID_12_" gradientUnits="userSpaceOnUse" x1="800.1147" y1="822.1265" x2="1229.6212" y2="379.1454">
				<stop  offset="0" style="stop-color:#937042"/>
				<stop  offset="1" style="stop-color:#F6D37D"/>
			</linearGradient>
			<rect x="905.75" y="614.28" class="st19" width="178.61" height="13.57"/>
			<linearGradient id="SVGID_13_" gradientUnits="userSpaceOnUse" x1="820.0302" y1="841.4362" x2="1249.5366" y2="398.4551">
				<stop  offset="0" style="stop-color:#937042"/>
				<stop  offset="1" style="stop-color:#F6D37D"/>
			</linearGradient>
			<rect x="905.75" y="654.13" class="st20" width="178.61" height="13.57"/>
			<linearGradient id="SVGID_14_" gradientUnits="userSpaceOnUse" x1="741.5308" y1="765.324" x2="1171.0356" y2="322.3446">
				<stop  offset="0" style="stop-color:#937042"/>
				<stop  offset="1" style="stop-color:#F6D37D"/>
			</linearGradient>
			<path class="st23" d="M1093.72,318.64H826.29c-48.33,0-87.65,39.32-87.65,87.65v267.43c0,48.33,39.32,87.64,87.65,87.64h267.43
				c48.33,0,87.64-39.32,87.64-87.64V406.29C1181.36,357.96,1142.04,318.64,1093.72,318.64z M1167.79,673.72
				c0,40.84-33.23,74.08-74.08,74.08H826.29c-40.85,0-74.08-33.23-74.08-74.08V406.29c0-40.85,33.23-74.08,74.08-74.08h267.43
				c40.84,0,74.08,33.23,74.08,74.08V673.72z"/>
		</g>
		<linearGradient id="SVGID_15_" gradientUnits="userSpaceOnUse" x1="938.4801" y1="602.9424" x2="1062.9611" y2="474.5562">
			<stop  offset="0" style="stop-color:#937042"/>
			<stop  offset="1" style="stop-color:#F6D37D"/>
		</linearGradient>
		<rect x="997.55" y="513.67" class="st24" width="41.83" height="13.57"/>
		<linearGradient id="SVGID_16_" gradientUnits="userSpaceOnUse" x1="938.4801" y1="642.7859" x2="1062.9611" y2="514.3997">
			<stop  offset="0" style="stop-color:#937042"/>
			<stop  offset="1" style="stop-color:#F6D37D"/>
		</linearGradient>
		<rect x="997.55" y="553.51" class="st25" width="41.83" height="13.57"/>
	</g>
</g>
</svg>
